<svg xmlns="http://www.w3.org/2000/svg" xmlns:xlink="http://www.w3.org/1999/xlink" width="300" zoomAndPan="magnify" viewBox="0 0 224.87999 225" height="300" preserveAspectRatio="xMidYMid meet" version="1.2"><defs><clipPath id="9a74803e09"><path d="M 2.65625 8 L 222.289062 8 L 222.289062 224.9375 L 2.65625 224.9375 Z M 2.65625 8 "/></clipPath></defs><g id="88eb2d01ea"><g clip-rule="nonzero" clip-path="url(#9a74803e09)"><path style=" stroke:none;fill-rule:nonzero;fill:#000000;fill-opacity:1;" d="M 207.8125 34.820312 C 184.691406 5.308594 142.007812 0.121094 112.484375 23.238281 C 100.511719 13.859375 85.738281 8.777344 70.53125 8.792969 C 33.027344 8.839844 2.664062 39.265625 2.710938 76.753906 C 2.710938 143.78125 104.78125 220.53125 109.109375 223.753906 C 110.085938 224.484375 111.269531 224.878906 112.484375 224.882812 C 113.695312 224.882812 114.875 224.492188 115.84375 223.769531 C 120.1875 220.535156 222.253906 143.78125 222.253906 76.757812 C 222.273438 61.550781 217.183594 46.785156 207.8125 34.820312 Z M 70.683594 20.042969 C 84.746094 20.054688 98.304688 25.304688 108.707031 34.761719 C 110.855469 36.703125 114.121094 36.703125 116.265625 34.761719 C 126.714844 25.273438 140.328125 20.023438 154.441406 20.042969 C 185.726562 20.089844 211.046875 45.480469 211 76.753906 C 211 84.335938 209.453125 92.136719 206.757812 99.992188 C 206.6875 99.988281 206.621094 99.984375 206.554688 99.984375 L 146.839844 99.984375 L 135.136719 75.660156 C 134.402344 74.121094 132.84375 73.140625 131.140625 73.140625 L 131.078125 73.140625 C 129.34375 73.160156 127.785156 74.191406 127.078125 75.773438 L 110.277344 113.382812 L 94.675781 61.910156 C 94.109375 60.042969 92.386719 58.757812 90.433594 58.753906 C 88.480469 58.753906 86.757812 60.027344 86.183594 61.890625 L 74.828125 98.808594 L 17.808594 98.808594 C 15.355469 91.355469 13.957031 83.957031 13.957031 76.753906 C 13.996094 45.449219 39.371094 20.082031 70.683594 20.042969 Z M 112.484375 212.152344 C 98.074219 200.839844 41.4375 154.339844 21.203125 107.699219 L 78.105469 107.699219 C 80.054688 107.699219 81.78125 106.425781 82.351562 104.5625 L 90.398438 78.414062 L 105.234375 127.363281 C 105.773438 129.140625 107.359375 130.390625 109.207031 130.511719 L 109.488281 130.511719 C 111.242188 130.511719 112.832031 129.484375 113.550781 127.878906 L 131.289062 88.148438 L 140.042969 106.347656 C 140.777344 107.882812 142.335938 108.867188 144.039062 108.867188 L 203.242188 108.867188 C 182.574219 155.097656 126.777344 200.921875 112.484375 212.152344 Z M 112.484375 212.152344 "/></g></g></svg>