<svg xmlns="http://www.w3.org/2000/svg" xmlns:xlink="http://www.w3.org/1999/xlink" width="300" zoomAndPan="magnify" viewBox="0 0 224.87999 225" height="300" preserveAspectRatio="xMidYMid meet" version="1.2"><defs><clipPath id="bd217a3005"><path d="M 74 9.972656 L 214.554688 9.972656 L 214.554688 214.613281 L 74 214.613281 Z M 74 9.972656 "/></clipPath><clipPath id="0cc5793165"><path d="M 9.914062 105 L 72 105 L 72 154 L 9.914062 154 Z M 9.914062 105 "/></clipPath><clipPath id="32541c6e87"><path d="M 20 166 L 62 166 L 62 214.613281 L 20 214.613281 Z M 20 166 "/></clipPath></defs><g id="875425d64c"><path style=" stroke:none;fill-rule:nonzero;fill:#000000;fill-opacity:1;" d="M 96.019531 108.816406 C 95.25 108.816406 94.472656 108.554688 93.839844 108.023438 C 89.894531 104.730469 84.222656 104.5 80.0625 107.476562 C 78.53125 108.570312 76.402344 108.214844 75.308594 106.683594 C 74.214844 105.152344 74.570312 103.023438 76.101562 101.929688 C 82.785156 97.152344 91.878906 97.507812 98.207031 102.789062 C 99.652344 103.996094 99.847656 106.144531 98.640625 107.585938 C 97.96875 108.398438 97 108.816406 96.019531 108.816406 Z M 96.019531 108.816406 "/><path style=" stroke:none;fill-rule:nonzero;fill:#000000;fill-opacity:1;" d="M 115.488281 194.015625 L 115.410156 194.015625 C 104.21875 193.933594 95.121094 184.59375 95.121094 173.203125 L 95.121094 156.527344 C 95.121094 154.644531 96.648438 153.117188 98.53125 153.117188 C 100.417969 153.117188 101.945312 154.644531 101.945312 156.527344 L 101.945312 173.203125 C 101.945312 180.863281 108.003906 187.144531 115.445312 187.199219 L 115.503906 187.199219 C 123.351562 187.199219 128.007812 181.328125 129.011719 175.859375 C 134.097656 148.207031 149.164062 136.851562 162.460938 126.832031 C 175.703125 116.851562 187.144531 108.234375 187.144531 84.953125 C 187.144531 58.714844 165.738281 37.308594 139.421875 37.238281 C 135.070312 37.238281 130.777344 37.796875 126.683594 38.898438 C 124.875 39.378906 122.992188 38.3125 122.503906 36.496094 C 122.015625 34.675781 123.089844 32.808594 124.90625 32.316406 C 129.582031 31.058594 134.46875 30.417969 139.429688 30.417969 C 169.503906 30.503906 193.964844 54.96875 193.964844 84.953125 C 193.964844 111.632812 180.03125 122.125 166.5625 132.277344 C 153.660156 142 140.320312 152.050781 135.714844 177.09375 C 133.878906 187.070312 125.570312 194.015625 115.488281 194.015625 Z M 115.488281 194.015625 "/><g clip-rule="nonzero" clip-path="url(#bd217a3005)"><path style=" stroke:none;fill-rule:nonzero;fill:#000000;fill-opacity:1;" d="M 115.550781 214.46875 L 115.234375 214.46875 C 92.863281 214.292969 74.667969 195.785156 74.667969 173.203125 L 74.667969 156.527344 C 74.667969 154.644531 76.191406 153.117188 78.078125 153.117188 C 79.964844 153.117188 81.488281 154.644531 81.488281 156.527344 L 81.488281 173.203125 C 81.488281 192.050781 96.652344 207.503906 115.289062 207.648438 C 115.378906 207.648438 115.476562 207.648438 115.570312 207.648438 C 134.207031 207.648438 146.546875 193.550781 149.121094 179.550781 C 152.839844 159.308594 165.351562 149.980469 177.449219 140.957031 C 192.949219 129.398438 207.589844 118.480469 207.589844 84.949219 C 207.589844 47.566406 177.179688 16.988281 139.800781 16.789062 C 139.707031 16.789062 139.609375 16.789062 139.511719 16.789062 C 122.65625 16.789062 102.988281 24.675781 91.570312 36.027344 C 84.972656 42.589844 81.488281 49.859375 81.488281 57.050781 C 81.488281 60.917969 84.269531 62.832031 86.65625 63.292969 C 89.117188 63.777344 92.269531 63.023438 93.695312 59.480469 C 96.515625 52.28125 100.824219 46.332031 106.585938 41.589844 C 108.046875 40.386719 110.1875 40.605469 111.382812 42.054688 C 112.578125 43.511719 112.367188 45.65625 110.917969 46.851562 C 106.066406 50.84375 102.4375 55.855469 100.125 61.761719 C 100.113281 61.792969 100.011719 62.050781 100 62.082031 C 97.609375 68.019531 91.710938 71.210938 85.355469 69.988281 C 80.039062 68.957031 74.671875 64.558594 74.671875 57.054688 C 74.671875 48.007812 78.855469 39.066406 86.765625 31.199219 C 99.628906 18.402344 121.027344 10.003906 139.835938 9.972656 C 180.957031 10.195312 214.410156 43.832031 214.410156 84.957031 C 214.410156 121.90625 196.9375 134.933594 181.527344 146.429688 C 169.972656 155.042969 159.066406 163.183594 155.824219 180.792969 C 152.230469 200.355469 135.320312 214.46875 115.554688 214.46875 Z M 115.550781 214.46875 "/></g><path style=" stroke:none;fill-rule:nonzero;fill:#000000;fill-opacity:1;" d="M 153.0625 115.753906 C 151.886719 115.753906 150.746094 115.148438 150.113281 114.054688 C 149.164062 112.429688 149.722656 110.34375 151.347656 109.398438 C 160.667969 103.984375 166.691406 94.386719 166.691406 84.953125 C 166.691406 68.664062 154.914062 62.03125 143.890625 61.253906 C 127.679688 60.082031 108.847656 70.589844 105.777344 92.246094 C 105.515625 94.109375 103.824219 95.417969 101.925781 95.140625 C 100.058594 94.878906 98.761719 93.152344 99.027344 91.289062 C 102.679688 65.539062 125.078125 53.089844 144.371094 54.453125 C 162.070312 55.703125 173.503906 67.675781 173.503906 84.953125 C 173.503906 96.773438 166.152344 108.679688 154.765625 115.289062 C 154.226562 115.605469 153.640625 115.75 153.058594 115.75 Z M 153.0625 115.753906 "/><path style=" stroke:none;fill-rule:nonzero;fill:#000000;fill-opacity:1;" d="M 146.242188 101.996094 C 144.621094 101.996094 143.183594 100.832031 142.886719 99.179688 C 141.402344 90.738281 135.625 83.757812 128.171875 81.390625 C 120.855469 79.066406 112.523438 81.183594 106.445312 86.921875 C 105.074219 88.21875 102.917969 88.148438 101.628906 86.785156 C 100.335938 85.417969 100.394531 83.257812 101.761719 81.96875 C 109.648438 74.527344 120.558594 71.820312 130.238281 74.890625 C 140.234375 78.066406 147.652344 86.917969 149.601562 97.996094 C 149.925781 99.851562 148.6875 101.617188 146.835938 101.945312 C 146.636719 101.980469 146.433594 101.996094 146.242188 101.996094 Z M 146.242188 101.996094 "/><g clip-rule="nonzero" clip-path="url(#0cc5793165)"><path style=" stroke:none;fill-rule:nonzero;fill:#000000;fill-opacity:1;" d="M 55.070312 153.121094 L 33.769531 153.121094 C 20.613281 153.121094 9.914062 142.417969 9.914062 129.265625 C 9.914062 116.113281 20.613281 105.40625 33.769531 105.40625 L 55.070312 105.40625 C 64 105.40625 71.261719 112.667969 71.261719 121.597656 L 71.261719 136.933594 C 71.261719 145.859375 64 153.125 55.070312 153.125 Z M 33.769531 112.222656 C 24.375 112.222656 16.730469 119.867188 16.730469 129.265625 C 16.730469 138.664062 24.375 146.300781 33.769531 146.300781 L 55.070312 146.300781 C 60.238281 146.300781 64.441406 142.101562 64.441406 136.933594 L 64.441406 121.597656 C 64.441406 116.425781 60.238281 112.226562 55.070312 112.226562 L 33.769531 112.226562 Z M 33.769531 112.222656 "/></g><path style=" stroke:none;fill-rule:nonzero;fill:#000000;fill-opacity:1;" d="M 67.089844 144.695312 C 65.394531 144.695312 63.921875 143.433594 63.710938 141.710938 C 63.476562 139.839844 64.800781 138.136719 66.667969 137.902344 L 101.5625 133.539062 C 103.71875 133.269531 105.339844 131.429688 105.339844 129.261719 C 105.339844 127.089844 103.71875 125.25 101.5625 124.980469 L 66.667969 120.621094 C 64.800781 120.386719 63.476562 118.683594 63.710938 116.8125 C 63.941406 114.945312 65.605469 113.621094 67.515625 113.855469 L 102.410156 118.214844 C 107.96875 118.910156 112.164062 123.660156 112.164062 129.257812 C 112.164062 134.859375 107.96875 139.609375 102.410156 140.300781 L 67.515625 144.664062 C 67.371094 144.683594 67.230469 144.691406 67.089844 144.691406 Z M 67.089844 144.695312 "/><path style=" stroke:none;fill-rule:nonzero;fill:#000000;fill-opacity:1;" d="M 30.367188 175.042969 C 28.484375 175.042969 26.953125 173.519531 26.953125 171.632812 L 26.953125 149.710938 C 26.953125 147.828125 28.480469 146.300781 30.367188 146.300781 C 32.25 146.300781 33.777344 147.824219 33.777344 149.710938 L 33.777344 171.632812 C 33.777344 173.515625 32.25 175.042969 30.367188 175.042969 Z M 30.367188 175.042969 "/><path style=" stroke:none;fill-rule:nonzero;fill:#000000;fill-opacity:1;" d="M 50.8125 175.042969 C 48.929688 175.042969 47.402344 173.519531 47.402344 171.632812 L 47.402344 149.710938 C 47.402344 147.828125 48.925781 146.300781 50.8125 146.300781 C 52.695312 146.300781 54.222656 147.824219 54.222656 149.710938 L 54.222656 171.632812 C 54.222656 173.515625 52.695312 175.042969 50.8125 175.042969 Z M 50.8125 175.042969 "/><g clip-rule="nonzero" clip-path="url(#32541c6e87)"><path style=" stroke:none;fill-rule:nonzero;fill:#000000;fill-opacity:1;" d="M 57.628906 214.46875 C 55.746094 214.46875 54.21875 212.945312 54.21875 211.058594 L 54.21875 182.941406 C 54.21875 177.773438 50.015625 173.570312 44.847656 173.570312 L 36.328125 173.570312 C 31.160156 173.570312 26.957031 177.773438 26.957031 182.941406 L 26.957031 211.058594 C 26.957031 212.941406 25.433594 214.46875 23.546875 214.46875 C 21.664062 214.46875 20.136719 212.945312 20.136719 211.058594 L 20.136719 182.941406 C 20.136719 174.015625 27.402344 166.75 36.328125 166.75 L 44.847656 166.75 C 53.777344 166.75 61.039062 174.015625 61.039062 182.941406 L 61.039062 211.058594 C 61.039062 212.941406 59.515625 214.46875 57.628906 214.46875 Z M 57.628906 214.46875 "/></g><path style=" stroke:none;fill-rule:nonzero;fill:#000000;fill-opacity:1;" d="M 47.40625 125.855469 L 37.179688 125.855469 C 35.296875 125.855469 33.769531 124.332031 33.769531 122.445312 C 33.769531 120.5625 35.296875 119.035156 37.179688 119.035156 L 47.40625 119.035156 C 49.289062 119.035156 50.816406 120.5625 50.816406 122.445312 C 50.816406 124.332031 49.292969 125.855469 47.40625 125.855469 Z M 47.40625 125.855469 "/><path style=" stroke:none;fill-rule:nonzero;fill:#000000;fill-opacity:1;" d="M 129.203125 132.671875 L 125.792969 132.671875 C 123.910156 132.671875 122.382812 131.144531 122.382812 129.261719 C 122.382812 127.375 123.910156 125.851562 125.792969 125.851562 L 129.203125 125.851562 C 131.085938 125.851562 132.613281 127.375 132.613281 129.261719 C 132.613281 131.144531 131.089844 132.671875 129.203125 132.671875 Z M 129.203125 132.671875 "/><path style=" stroke:none;fill-rule:nonzero;fill:#000000;fill-opacity:1;" d="M 118.976562 122.445312 C 118.105469 122.445312 117.234375 122.113281 116.570312 121.449219 C 115.238281 120.113281 115.238281 117.960938 116.570312 116.625 L 119.980469 113.214844 C 121.3125 111.882812 123.46875 111.882812 124.800781 113.214844 C 126.132812 114.546875 126.132812 116.703125 124.800781 118.035156 L 121.390625 121.449219 C 120.722656 122.113281 119.851562 122.445312 118.980469 122.445312 Z M 118.976562 122.445312 "/><path style=" stroke:none;fill-rule:nonzero;fill:#000000;fill-opacity:1;" d="M 122.386719 146.304688 C 121.515625 146.304688 120.644531 145.972656 119.976562 145.308594 L 116.566406 141.898438 C 115.234375 140.570312 115.234375 138.410156 116.566406 137.078125 C 117.898438 135.746094 120.054688 135.746094 121.386719 137.078125 L 124.796875 140.484375 C 126.128906 141.816406 126.132812 143.972656 124.796875 145.308594 C 124.132812 145.972656 123.261719 146.304688 122.390625 146.304688 Z M 122.386719 146.304688 "/></g></svg>