<svg xmlns="http://www.w3.org/2000/svg" xmlns:xlink="http://www.w3.org/1999/xlink" width="300" zoomAndPan="magnify" viewBox="0 0 224.87999 225" height="300" preserveAspectRatio="xMidYMid meet" version="1.2"><defs><clipPath id="bfb9151e01"><path d="M 167 168 L 220 168 L 220 220.496094 L 167 220.496094 Z M 167 168 "/></clipPath><clipPath id="9b5289ca25"><path d="M 4.523438 4.609375 L 171 4.609375 L 171 172 L 4.523438 172 Z M 4.523438 4.609375 "/></clipPath></defs><g id="1635dc454b"><g clip-rule="nonzero" clip-path="url(#bfb9151e01)"><path style=" stroke:none;fill-rule:nonzero;fill:#231f20;fill-opacity:1;" d="M 205.574219 220.496094 C 204.273438 220.496094 202.972656 220 201.980469 219.007812 L 169.476562 186.417969 C 168.515625 185.457031 167.988281 184.175781 167.988281 182.816406 C 167.988281 181.457031 168.515625 180.179688 169.476562 179.214844 L 178.730469 169.9375 C 180.710938 167.949219 183.933594 167.949219 185.917969 169.9375 L 218.421875 202.523438 C 220.402344 204.507812 220.402344 207.742188 218.421875 209.726562 L 209.164062 219.007812 C 208.175781 220 206.875 220.496094 205.574219 220.496094 Z M 182.324219 171.230469 C 181.734375 171.230469 181.144531 171.457031 180.695312 171.90625 L 171.4375 181.1875 C 171.003906 181.621094 170.765625 182.199219 170.765625 182.816406 C 170.765625 183.433594 171.003906 184.011719 171.4375 184.449219 L 203.945312 217.035156 C 204.84375 217.9375 206.304688 217.9375 207.199219 217.035156 L 216.457031 207.757812 C 216.894531 207.320312 217.132812 206.742188 217.132812 206.125 C 217.132812 205.507812 216.894531 204.929688 216.457031 204.492188 L 183.953125 171.90625 C 183.503906 171.457031 182.914062 171.230469 182.324219 171.230469 Z M 182.324219 171.230469 "/></g><g clip-rule="nonzero" clip-path="url(#9b5289ca25)"><path style=" stroke:none;fill-rule:nonzero;fill:#231f20;fill-opacity:1;" d="M 87.652344 171.214844 C 65.453125 171.214844 44.585938 162.550781 28.890625 146.816406 C 13.195312 131.082031 4.550781 110.160156 4.550781 87.90625 C 4.550781 65.65625 13.195312 44.734375 28.890625 29 C 44.585938 13.265625 65.453125 4.597656 87.652344 4.597656 C 109.847656 4.597656 130.714844 13.265625 146.414062 29 C 162.109375 44.734375 170.753906 65.65625 170.753906 87.90625 C 170.753906 110.160156 162.109375 131.082031 146.414062 146.816406 C 130.714844 162.550781 109.847656 171.214844 87.652344 171.214844 Z M 87.652344 7.382812 C 66.195312 7.382812 46.027344 15.761719 30.855469 30.96875 C 15.683594 46.179688 7.328125 66.398438 7.328125 87.90625 C 7.328125 109.417969 15.683594 129.636719 30.855469 144.847656 C 46.027344 160.054688 66.195312 168.429688 87.652344 168.429688 C 109.105469 168.429688 129.277344 160.054688 144.449219 144.847656 C 159.617188 129.636719 167.972656 109.417969 167.972656 87.90625 C 167.972656 66.398438 159.617188 46.179688 144.449219 30.96875 C 129.277344 15.761719 109.105469 7.382812 87.652344 7.382812 Z M 87.652344 7.382812 "/></g><path style=" stroke:none;fill-rule:nonzero;fill:#231f20;fill-opacity:1;" d="M 87.652344 163.363281 C 67.546875 163.363281 48.644531 155.515625 34.429688 141.261719 C 20.214844 127.011719 12.382812 108.0625 12.382812 87.90625 C 12.382812 67.753906 20.214844 48.804688 34.429688 34.554688 C 48.644531 20.300781 67.546875 12.453125 87.652344 12.453125 C 107.757812 12.453125 126.65625 20.304688 140.871094 34.554688 C 140.871094 34.554688 140.871094 34.550781 140.871094 34.554688 C 155.089844 48.804688 162.917969 67.753906 162.917969 87.90625 C 162.917969 108.0625 155.089844 127.011719 140.871094 141.261719 C 126.65625 155.515625 107.753906 163.363281 87.652344 163.363281 Z M 87.652344 15.238281 C 68.289062 15.238281 50.085938 22.796875 36.394531 36.523438 C 22.703125 50.246094 15.164062 68.496094 15.164062 87.90625 C 15.164062 107.320312 22.703125 125.566406 36.394531 139.292969 C 50.085938 153.019531 68.289062 160.578125 87.652344 160.578125 C 107.015625 160.578125 125.21875 153.019531 138.910156 139.292969 C 152.601562 125.566406 160.140625 107.320312 160.140625 87.90625 C 160.140625 68.496094 152.601562 50.246094 138.910156 36.523438 C 125.21875 22.796875 107.015625 15.238281 87.652344 15.238281 Z M 87.652344 15.238281 "/><path style=" stroke:none;fill-rule:nonzero;fill:#231f20;fill-opacity:1;" d="M 170.925781 181.125 C 170.570312 181.125 170.214844 180.988281 169.941406 180.71875 L 140.136719 150.835938 C 139.863281 150.5625 139.714844 150.1875 139.730469 149.804688 C 139.742188 149.417969 139.917969 149.054688 140.207031 148.800781 C 141.6875 147.515625 143.113281 146.183594 144.449219 144.847656 C 145.78125 143.507812 147.109375 142.078125 148.390625 140.597656 C 148.644531 140.304688 149.007812 140.132812 149.390625 140.117188 C 149.777344 140.105469 150.152344 140.25 150.421875 140.523438 L 180.230469 170.40625 C 180.773438 170.949219 180.773438 171.832031 180.230469 172.375 L 171.90625 180.71875 C 171.636719 180.988281 171.28125 181.125 170.925781 181.125 Z M 143.144531 149.914062 L 170.925781 177.761719 L 177.28125 171.390625 L 149.503906 143.542969 C 148.488281 144.675781 147.453125 145.773438 146.414062 146.816406 C 145.371094 147.859375 144.277344 148.898438 143.144531 149.914062 Z M 143.144531 149.914062 "/><path style=" stroke:none;fill-rule:nonzero;fill:#231f20;fill-opacity:1;" d="M 99.671875 91.640625 C 96.640625 91.640625 93.710938 90.765625 91.179688 89.097656 C 88.96875 87.644531 86.109375 87.644531 83.898438 89.097656 C 81.238281 90.851562 78.144531 91.726562 74.945312 91.632812 C 66.789062 91.394531 60.1875 84.804688 59.914062 76.632812 C 59.808594 73.460938 60.648438 70.382812 62.34375 67.726562 C 67.988281 58.902344 70.96875 49.03125 70.96875 39.179688 L 70.96875 15.445312 C 70.96875 14.785156 71.429688 14.21875 72.070312 14.082031 C 82.328125 11.917969 92.738281 11.902344 103.003906 14.035156 C 103.648438 14.167969 104.109375 14.738281 104.109375 15.398438 L 104.109375 39.179688 C 104.109375 49.03125 107.09375 58.902344 112.734375 67.726562 C 114.433594 70.382812 115.273438 73.460938 115.167969 76.632812 C 114.890625 84.804688 108.289062 91.394531 100.132812 91.632812 C 99.980469 91.636719 99.828125 91.636719 99.671875 91.636719 Z M 73.746094 16.582031 L 73.746094 39.179688 C 73.746094 49.566406 70.613281 59.957031 64.683594 69.230469 C 63.292969 71.40625 62.601562 73.933594 62.691406 76.539062 C 62.914062 83.246094 68.335938 88.652344 75.027344 88.847656 C 77.65625 88.921875 80.195312 88.207031 82.375 86.769531 C 85.511719 84.707031 89.566406 84.707031 92.707031 86.769531 C 94.886719 88.207031 97.429688 88.925781 100.054688 88.847656 C 106.746094 88.652344 112.164062 83.246094 112.390625 76.539062 C 112.476562 73.9375 111.789062 71.40625 110.394531 69.230469 C 104.46875 59.957031 101.332031 49.566406 101.332031 39.179688 L 101.332031 16.542969 C 92.171875 14.78125 82.902344 14.796875 73.746094 16.585938 Z M 73.746094 16.582031 "/><path style=" stroke:none;fill-rule:nonzero;fill:#231f20;fill-opacity:1;" d="M 87.648438 163.371094 C 82.441406 163.371094 77.238281 162.824219 72.070312 161.734375 C 71.429688 161.597656 70.96875 161.03125 70.96875 160.371094 L 70.96875 139.511719 C 70.96875 129.277344 68.046875 119.496094 62.519531 111.234375 C 60.703125 108.519531 59.804688 105.34375 59.914062 102.058594 L 59.917969 101.957031 C 60.011719 99.625 61.269531 97.523438 63.28125 96.324219 C 65.296875 95.121094 67.746094 95.019531 69.832031 96.050781 C 71.464844 96.859375 73.210938 97.292969 75.027344 97.347656 C 77.652344 97.425781 80.191406 96.703125 82.375 95.269531 C 85.511719 93.203125 89.566406 93.203125 92.707031 95.269531 C 94.886719 96.703125 97.429688 97.425781 100.054688 97.34375 C 101.867188 97.292969 103.617188 96.855469 105.246094 96.050781 C 107.332031 95.019531 109.785156 95.121094 111.800781 96.324219 C 113.808594 97.519531 115.066406 99.625 115.164062 101.949219 C 115.164062 101.949219 115.164062 101.949219 115.164062 101.953125 L 115.167969 102.058594 C 115.277344 105.34375 114.375 108.515625 112.558594 111.234375 C 107.03125 119.496094 104.109375 129.277344 104.109375 139.511719 L 104.109375 160.417969 C 104.109375 161.078125 103.648438 161.644531 103.003906 161.78125 C 97.90625 162.839844 92.777344 163.371094 87.648438 163.371094 Z M 73.746094 159.230469 C 82.902344 161.019531 92.171875 161.035156 101.332031 159.273438 L 101.332031 139.511719 C 101.332031 128.722656 104.417969 118.40625 110.25 109.683594 C 111.742188 107.453125 112.480469 104.851562 112.390625 102.152344 L 112.386719 102.066406 C 112.332031 100.683594 111.582031 99.433594 110.378906 98.71875 C 109.175781 98 107.714844 97.9375 106.476562 98.550781 C 104.484375 99.535156 102.351562 100.066406 100.136719 100.128906 C 96.9375 100.222656 93.839844 99.347656 91.179688 97.597656 C 88.96875 96.140625 86.109375 96.140625 83.898438 97.597656 C 81.238281 99.347656 78.144531 100.222656 74.945312 100.128906 C 72.730469 100.066406 70.597656 99.535156 68.605469 98.550781 C 67.363281 97.9375 65.90625 98 64.699219 98.71875 C 63.5 99.433594 62.75 100.683594 62.695312 102.066406 L 62.691406 102.152344 C 62.601562 104.851562 63.339844 107.453125 64.828125 109.683594 C 70.664062 118.40625 73.75 128.722656 73.75 139.511719 L 73.75 159.230469 Z M 102.722656 160.417969 Z M 102.722656 160.417969 "/><path style=" stroke:none;fill-rule:nonzero;fill:#231f20;fill-opacity:1;" d="M 70.832031 128.191406 C 70.648438 128.191406 70.460938 128.152344 70.277344 128.074219 C 70.027344 127.964844 64.050781 125.316406 57.957031 119.34375 C 52.316406 113.8125 45.539062 104.277344 45.296875 90.269531 C 45.105469 79.207031 49.453125 68.277344 57.871094 58.664062 C 64.195312 51.441406 70.496094 47.539062 70.761719 47.378906 C 71.414062 46.976562 72.269531 47.183594 72.671875 47.839844 C 73.070312 48.496094 72.863281 49.351562 72.210938 49.753906 C 72.113281 49.8125 65.933594 53.65625 59.90625 60.5625 C 54.382812 66.886719 47.847656 77.164062 48.074219 90.222656 C 48.253906 100.707031 52.234375 109.835938 59.898438 117.351562 C 65.632812 122.96875 71.332031 125.496094 71.390625 125.519531 C 72.09375 125.828125 72.414062 126.648438 72.105469 127.355469 C 71.878906 127.878906 71.367188 128.191406 70.832031 128.191406 Z M 70.832031 128.191406 "/><path style=" stroke:none;fill-rule:nonzero;fill:#231f20;fill-opacity:1;" d="M 104.46875 128.191406 C 103.933594 128.191406 103.421875 127.878906 103.195312 127.351562 C 102.890625 126.648438 103.210938 125.828125 103.914062 125.519531 C 103.96875 125.496094 109.742188 122.925781 115.476562 117.28125 C 123.09375 109.777344 127.046875 100.671875 127.226562 90.222656 C 127.453125 77.164062 120.917969 66.886719 115.398438 60.5625 C 109.351562 53.636719 103.152344 49.792969 103.089844 49.753906 C 102.4375 49.351562 102.230469 48.492188 102.632812 47.839844 C 103.03125 47.183594 103.886719 46.976562 104.542969 47.378906 C 104.808594 47.539062 111.105469 51.441406 117.429688 58.664062 C 125.847656 68.277344 130.195312 79.207031 130.007812 90.269531 C 129.765625 104.277344 122.988281 113.808594 117.34375 119.339844 C 111.253906 125.316406 105.277344 127.964844 105.023438 128.074219 C 104.84375 128.152344 104.65625 128.191406 104.46875 128.191406 Z M 104.46875 128.191406 "/></g></svg>