<svg xmlns="http://www.w3.org/2000/svg" xmlns:xlink="http://www.w3.org/1999/xlink" width="300" zoomAndPan="magnify" viewBox="0 0 224.87999 225" height="300" preserveAspectRatio="xMidYMid meet" version="1.2"><defs><clipPath id="a585478b97"><path d="M 161 24.65625 L 224.761719 24.65625 L 224.761719 200.0625 L 161 200.0625 Z M 161 24.65625 "/></clipPath><clipPath id="54d95f001b"><path d="M 0 24.65625 L 148 24.65625 L 148 200.0625 L 0 200.0625 Z M 0 24.65625 "/></clipPath></defs><g id="ddeba2f792"><g clip-rule="nonzero" clip-path="url(#a585478b97)"><path style=" stroke:none;fill-rule:nonzero;fill:#000000;fill-opacity:1;" d="M 221.371094 24.660156 L 165.152344 24.660156 C 163.21875 24.660156 161.644531 26.234375 161.644531 28.164062 L 161.644531 41.996094 C 161.644531 43.925781 163.21875 45.496094 165.152344 45.496094 L 168.660156 45.496094 L 168.660156 105.847656 C 168.660156 110.878906 170.460938 115.726562 173.742188 119.542969 L 189.753906 138.179688 L 189.753906 193.050781 C 187.820312 193.050781 186.246094 194.625 186.246094 196.554688 C 186.246094 198.484375 187.820312 200.058594 189.753906 200.058594 L 196.769531 200.058594 C 198.703125 200.058594 200.277344 198.484375 200.277344 196.554688 C 200.277344 194.625 198.703125 193.050781 196.769531 193.050781 L 196.769531 138.222656 L 212.78125 119.589844 C 216.066406 115.773438 217.863281 110.898438 217.863281 105.894531 L 217.863281 45.519531 L 221.371094 45.519531 C 223.304688 45.519531 224.878906 43.949219 224.878906 42.015625 L 224.878906 28.164062 C 224.878906 26.234375 223.304688 24.660156 221.371094 24.660156 Z M 207.453125 115.007812 L 193.261719 131.535156 L 179.070312 115.007812 C 176.890625 112.472656 175.699219 109.214844 175.699219 105.871094 L 175.699219 80.792969 L 210.824219 80.792969 L 210.824219 105.871094 C 210.824219 109.214844 209.609375 112.472656 207.453125 115.007812 Z M 210.824219 73.785156 L 175.675781 73.785156 L 175.675781 45.519531 L 210.800781 45.519531 L 210.800781 73.785156 Z M 217.863281 38.492188 L 168.660156 38.492188 L 168.660156 31.667969 L 217.863281 31.667969 Z M 217.863281 38.492188 "/></g><g clip-rule="nonzero" clip-path="url(#54d95f001b)"><path style=" stroke:none;fill-rule:nonzero;fill:#000000;fill-opacity:1;" d="M 144.058594 24.660156 L 87.839844 24.660156 C 85.902344 24.660156 84.328125 26.234375 84.328125 28.164062 L 84.328125 129.847656 C 84.328125 129.847656 84.328125 129.871094 84.328125 129.894531 L 84.328125 138.15625 L 23.859375 164.988281 L 10.546875 164.988281 C 4.722656 164.988281 0 169.703125 0 175.515625 L 0 182.523438 C 0 192.199219 7.871094 200.058594 17.5625 200.058594 L 130.003906 200.058594 C 139.695312 200.058594 147.566406 192.199219 147.566406 182.523438 L 147.566406 28.164062 C 147.566406 26.234375 146.015625 24.660156 144.058594 24.660156 Z M 127.214844 164.671875 L 91.367188 138.628906 L 91.367188 132.5 L 122.671875 123.113281 L 140.574219 132.050781 L 140.574219 156.027344 Z M 91.347656 99.675781 L 91.347656 91.320312 L 140.550781 91.320312 L 140.550781 124.238281 Z M 113.472656 118.554688 L 91.347656 125.179688 L 91.347656 107.511719 Z M 91.347656 84.292969 L 91.347656 77.265625 L 140.550781 77.265625 L 140.550781 84.292969 Z M 140.550781 31.6875 L 140.550781 70.285156 L 91.347656 70.285156 L 91.347656 31.6875 Z M 87.410156 144.464844 L 120.871094 168.757812 L 83.296875 193.050781 L 76.144531 193.050781 L 60.808594 156.277344 Z M 58.109375 193.050781 L 39.78125 165.59375 L 54.375 159.128906 L 68.519531 193.050781 Z M 7.015625 182.523438 L 7.015625 175.515625 C 7.015625 173.585938 8.589844 172.015625 10.523438 172.015625 L 24.578125 172.015625 C 25.074219 172.015625 25.570312 171.925781 25.996094 171.722656 L 33.214844 168.511719 L 49.652344 193.050781 L 17.5625 193.050781 C 11.761719 193.050781 7.015625 188.335938 7.015625 182.523438 Z M 130.003906 193.050781 L 96.226562 193.050781 L 140.550781 164.425781 L 140.550781 182.523438 C 140.550781 188.335938 135.828125 193.050781 130.003906 193.050781 Z M 130.003906 193.050781 "/></g></g></svg>