<svg xmlns="http://www.w3.org/2000/svg" xmlns:xlink="http://www.w3.org/1999/xlink" width="300" zoomAndPan="magnify" viewBox="0 0 224.87999 225" height="300" preserveAspectRatio="xMidYMid meet" version="1.2"><defs><clipPath id="9599ed8145"><path d="M 9.933594 7.410156 L 215.324219 7.410156 L 215.324219 212.800781 L 9.933594 212.800781 Z M 9.933594 7.410156 "/></clipPath></defs><g id="b6f7b1d3b5"><g clip-rule="nonzero" clip-path="url(#9599ed8145)"><path style=" stroke:none;fill-rule:nonzero;fill:#000000;fill-opacity:1;" d="M 112.628906 212.800781 C 102.160156 212.800781 93.65625 204.285156 93.65625 193.828125 L 93.65625 192.921875 C 93.65625 188.582031 90.761719 184.730469 86.292969 183.121094 C 84.050781 182.308594 81.871094 181.402344 79.730469 180.390625 C 75.375 178.328125 70.566406 178.988281 67.492188 182.085938 L 66.84375 182.738281 C 63.257812 186.324219 58.480469 188.308594 53.414062 188.308594 C 53.390625 188.308594 53.363281 188.308594 53.339844 188.308594 C 48.28125 188.292969 43.539062 186.289062 39.996094 182.6875 C 36.46875 179.21875 34.46875 174.488281 34.449219 169.421875 C 34.425781 164.320312 36.410156 159.519531 40.03125 155.898438 L 40.648438 155.273438 C 43.746094 152.183594 44.402344 147.375 42.351562 143.011719 C 41.347656 140.898438 40.449219 138.722656 39.652344 136.507812 C 38.035156 132.007812 34.183594 129.097656 29.839844 129.097656 L 28.90625 129.097656 C 18.449219 129.078125 9.933594 120.574219 9.933594 110.105469 C 9.933594 99.640625 18.449219 91.132812 28.90625 91.132812 L 29.839844 91.132812 C 34.183594 91.132812 38.035156 88.222656 39.652344 83.722656 C 40.449219 81.503906 41.355469 79.324219 42.351562 77.210938 C 44.394531 72.851562 43.734375 68.042969 40.65625 64.972656 C 33.433594 57.730469 32.636719 46.289062 38.796875 38.851562 C 45.671875 30.578125 59.3125 29.953125 66.851562 37.507812 L 67.476562 38.125 C 70.566406 41.222656 75.375 41.890625 79.738281 39.828125 C 81.851562 38.835938 84.027344 37.929688 86.242188 37.132812 C 90.746094 35.515625 93.65625 31.664062 93.65625 27.316406 L 93.65625 26.382812 C 93.65625 15.925781 102.160156 7.410156 112.628906 7.410156 C 123.09375 7.410156 131.601562 15.925781 131.601562 26.382812 L 131.601562 27.316406 C 131.601562 31.664062 134.511719 35.515625 139.011719 37.132812 C 141.226562 37.929688 143.410156 38.835938 145.523438 39.828125 C 149.886719 41.875 154.699219 41.222656 157.761719 38.132812 C 165.011719 30.902344 176.453125 30.105469 183.878906 36.269531 C 188.28125 39.921875 190.796875 45.253906 190.796875 50.910156 C 190.796875 55.898438 188.765625 60.785156 185.234375 64.320312 L 184.617188 64.945312 C 181.519531 68.035156 180.859375 72.84375 182.914062 77.210938 C 183.921875 79.339844 184.832031 81.523438 185.636719 83.757812 C 187.253906 88.230469 191.105469 91.125 195.441406 91.125 L 196.351562 91.125 C 206.808594 91.132812 215.324219 99.640625 215.324219 110.105469 C 215.324219 120.574219 206.808594 129.078125 196.351562 129.078125 L 195.441406 129.078125 C 191.105469 129.078125 187.253906 131.972656 185.644531 136.4375 C 184.832031 138.679688 183.921875 140.863281 182.914062 143.003906 C 180.859375 147.359375 181.519531 152.167969 184.609375 155.242188 L 185.257812 155.890625 C 188.863281 159.503906 190.847656 164.304688 190.820312 169.402344 C 190.804688 174.460938 188.800781 179.203125 185.199219 182.746094 C 181.734375 186.273438 177 188.273438 171.933594 188.292969 C 171.90625 188.292969 171.882812 188.292969 171.855469 188.292969 C 166.789062 188.292969 162.015625 186.304688 158.414062 182.703125 L 157.789062 182.085938 C 154.699219 178.988281 149.886719 178.339844 145.523438 180.382812 C 143.394531 181.394531 141.210938 182.300781 138.976562 183.105469 C 134.5 184.722656 131.609375 188.574219 131.609375 192.914062 L 131.609375 193.820312 C 131.601562 204.285156 123.09375 212.800781 112.628906 212.800781 Z M 74.554688 166.339844 C 78.113281 166.339844 81.742188 167.136719 85.207031 168.78125 C 86.988281 169.617188 88.800781 170.371094 90.652344 171.046875 C 100.269531 174.523438 106.484375 183.105469 106.484375 192.921875 L 106.484375 193.828125 C 106.484375 197.21875 109.238281 199.964844 112.617188 199.964844 C 116 199.964844 118.753906 197.207031 118.753906 193.828125 L 118.753906 192.921875 C 118.753906 183.113281 124.976562 174.523438 134.59375 171.046875 C 136.445312 170.378906 138.257812 169.625 140.03125 168.789062 C 149.359375 164.378906 159.875 166.03125 166.84375 173.007812 L 167.457031 173.625 C 168.648438 174.820312 170.195312 175.464844 171.839844 175.464844 C 171.847656 175.464844 171.855469 175.464844 171.867188 175.464844 C 173.472656 175.464844 174.980469 174.820312 176.109375 173.683594 C 177.332031 172.476562 177.96875 170.980469 177.96875 169.371094 C 177.976562 167.726562 177.324219 166.160156 176.144531 164.980469 L 175.492188 164.328125 C 168.546875 157.378906 166.894531 146.863281 171.292969 137.542969 C 172.128906 135.761719 172.882812 133.949219 173.558594 132.101562 C 177.035156 122.480469 185.617188 116.269531 195.433594 116.269531 L 196.339844 116.269531 C 199.730469 116.269531 202.476562 113.511719 202.476562 110.132812 C 202.476562 106.75 199.722656 103.996094 196.339844 103.996094 L 195.433594 103.996094 C 185.625 103.996094 177.035156 97.773438 173.558594 88.15625 C 172.890625 86.304688 172.140625 84.492188 171.300781 82.722656 C 166.894531 73.394531 168.554688 62.867188 175.519531 55.910156 L 176.136719 55.292969 C 177.300781 54.128906 177.957031 52.554688 177.957031 50.945312 C 177.957031 49.089844 177.152344 47.402344 175.683594 46.179688 C 173.347656 44.234375 169.390625 44.679688 166.910156 47.179688 C 159.902344 54.195312 149.382812 55.867188 140.054688 51.46875 C 138.300781 50.621094 136.511719 49.875 134.671875 49.214844 C 125.011719 45.742188 118.761719 37.148438 118.761719 27.316406 L 118.761719 26.382812 C 118.761719 23.003906 116.015625 20.246094 112.628906 20.246094 C 109.238281 20.246094 106.492188 23.003906 106.492188 26.382812 L 106.492188 27.316406 C 106.492188 37.148438 100.253906 45.742188 90.582031 49.214844 C 88.742188 49.875 86.953125 50.621094 85.207031 51.441406 C 75.898438 55.832031 65.371094 54.171875 58.414062 47.214844 L 57.789062 46.597656 C 55.289062 44.097656 50.957031 44.3125 48.675781 47.050781 C 46.730469 49.386719 47.183594 53.332031 49.675781 55.824219 C 56.691406 62.839844 58.351562 73.359375 53.960938 82.679688 C 53.140625 84.433594 52.398438 86.222656 51.738281 88.0625 C 48.261719 97.722656 39.671875 103.96875 29.839844 103.96875 L 28.90625 103.96875 C 25.523438 103.96875 22.769531 106.71875 22.769531 110.105469 C 22.769531 113.496094 25.523438 116.242188 28.90625 116.242188 L 29.839844 116.242188 C 39.671875 116.242188 48.261719 122.480469 51.738281 132.152344 C 52.398438 133.984375 53.140625 135.78125 53.960938 137.527344 C 58.351562 146.84375 56.683594 157.363281 49.734375 164.320312 L 49.117188 164.945312 C 47.921875 166.144531 47.269531 167.699219 47.277344 169.351562 C 47.277344 170.960938 47.921875 172.46875 49.058594 173.597656 C 50.265625 174.820312 51.761719 175.453125 53.371094 175.453125 C 53.378906 175.453125 53.390625 175.453125 53.398438 175.453125 C 55.03125 175.453125 56.589844 174.804688 57.761719 173.632812 L 58.414062 172.980469 C 62.785156 168.617188 68.554688 166.339844 74.554688 166.339844 Z M 74.554688 166.339844 "/></g><path style=" stroke:none;fill-rule:nonzero;fill:#000000;fill-opacity:1;" d="M 85.328125 149.128906 C 80.03125 149.128906 74.929688 147.050781 71.035156 143.148438 C 65.808594 137.917969 63.839844 130.535156 65.789062 123.398438 C 66.714844 119.980469 70.265625 117.972656 73.671875 118.894531 C 77.09375 119.828125 79.105469 123.355469 78.171875 126.777344 C 77.136719 130.566406 79.183594 133.136719 80.105469 134.066406 C 81.03125 135 83.589844 137.054688 87.40625 136.011719 C 90.804688 135.070312 94.363281 137.097656 95.289062 140.511719 C 96.222656 143.925781 94.210938 147.460938 90.789062 148.394531 C 88.964844 148.882812 87.132812 149.128906 85.328125 149.128906 Z M 85.328125 149.128906 "/><path style=" stroke:none;fill-rule:nonzero;fill:#000000;fill-opacity:1;" d="M 138.300781 140.058594 C 138.300781 140.902344 138.21875 141.738281 138.054688 142.5625 C 137.890625 143.390625 137.648438 144.191406 137.324219 144.972656 C 137 145.75 136.605469 146.488281 136.136719 147.191406 C 135.667969 147.890625 135.136719 148.539062 134.542969 149.136719 C 133.945312 149.730469 133.296875 150.265625 132.597656 150.730469 C 131.894531 151.199219 131.15625 151.597656 130.375 151.917969 C 129.597656 152.242188 128.796875 152.484375 127.96875 152.648438 C 127.140625 152.8125 126.308594 152.894531 125.464844 152.894531 C 124.621094 152.894531 123.785156 152.8125 122.960938 152.648438 C 122.132812 152.484375 121.332031 152.242188 120.550781 151.917969 C 119.773438 151.597656 119.035156 151.199219 118.332031 150.730469 C 117.632812 150.265625 116.984375 149.730469 116.386719 149.136719 C 115.792969 148.539062 115.257812 147.890625 114.789062 147.191406 C 114.324219 146.488281 113.925781 145.75 113.605469 144.972656 C 113.28125 144.191406 113.039062 143.390625 112.875 142.5625 C 112.710938 141.738281 112.628906 140.902344 112.628906 140.058594 C 112.628906 139.214844 112.710938 138.382812 112.875 137.554688 C 113.039062 136.726562 113.28125 135.925781 113.605469 135.144531 C 113.925781 134.367188 114.324219 133.628906 114.789062 132.925781 C 115.257812 132.226562 115.792969 131.578125 116.386719 130.980469 C 116.984375 130.386719 117.632812 129.855469 118.332031 129.386719 C 119.035156 128.917969 119.773438 128.523438 120.550781 128.199219 C 121.332031 127.875 122.132812 127.632812 122.960938 127.46875 C 123.785156 127.304688 124.621094 127.222656 125.464844 127.222656 C 126.308594 127.222656 127.140625 127.304688 127.96875 127.46875 C 128.796875 127.632812 129.597656 127.875 130.375 128.199219 C 131.15625 128.523438 131.894531 128.917969 132.597656 129.386719 C 133.296875 129.855469 133.945312 130.386719 134.542969 130.980469 C 135.136719 131.578125 135.667969 132.226562 136.136719 132.925781 C 136.605469 133.628906 137 134.367188 137.324219 135.144531 C 137.648438 135.925781 137.890625 136.726562 138.054688 137.554688 C 138.21875 138.382812 138.300781 139.214844 138.300781 140.058594 Z M 138.300781 140.058594 "/><path style=" stroke:none;fill-rule:nonzero;fill:#000000;fill-opacity:1;" d="M 157.554688 110.105469 C 155.066406 110.105469 152.695312 108.652344 151.652344 106.210938 C 150.777344 104.183594 149.007812 103.636719 148.28125 103.5 C 147.570312 103.355469 145.710938 103.199219 144.144531 104.765625 L 140.699219 108.222656 C 138.191406 110.730469 134.125 110.730469 131.617188 108.222656 C 129.109375 105.714844 129.109375 101.652344 131.617188 99.144531 L 135.074219 95.6875 C 139.175781 91.585938 145.003906 89.796875 150.710938 90.886719 C 156.402344 91.980469 161.167969 95.824219 163.453125 101.144531 C 164.847656 104.40625 163.339844 108.179688 160.082031 109.574219 C 159.257812 109.933594 158.402344 110.105469 157.554688 110.105469 Z M 157.554688 110.105469 "/><path style=" stroke:none;fill-rule:nonzero;fill:#000000;fill-opacity:1;" d="M 80.953125 90.765625 L 89.179688 98.988281 C 92.585938 102.394531 98.113281 102.394531 101.519531 98.988281 C 104.925781 95.582031 104.925781 90.054688 101.519531 86.648438 L 93.285156 78.433594 C 89.878906 75.019531 84.359375 75.019531 80.953125 78.433594 C 77.539062 81.839844 77.539062 87.359375 80.953125 90.765625 Z M 80.953125 90.765625 "/><path style=" stroke:none;fill-rule:nonzero;fill:#000000;fill-opacity:1;" d="M 131.882812 84.433594 C 130.238281 84.433594 128.597656 83.808594 127.347656 82.550781 L 123.066406 78.269531 C 120.5625 75.761719 120.5625 71.699219 123.066406 69.191406 C 125.574219 66.683594 129.640625 66.683594 132.148438 69.191406 L 136.425781 73.46875 C 138.933594 75.976562 138.933594 80.042969 136.425781 82.550781 C 135.167969 83.808594 133.527344 84.433594 131.882812 84.433594 Z M 131.882812 84.433594 "/></g></svg>