<svg xmlns="http://www.w3.org/2000/svg" xmlns:xlink="http://www.w3.org/1999/xlink" width="300" zoomAndPan="magnify" viewBox="0 0 224.87999 225" height="300" preserveAspectRatio="xMidYMid meet" version="1.2"><defs><clipPath id="fca3dfdab4"><path d="M 8.449219 6 L 79 6 L 79 113 L 8.449219 113 Z M 8.449219 6 "/></clipPath><clipPath id="2ec907d2a0"><path d="M 146 6 L 216.089844 6 L 216.089844 113 L 146 113 Z M 146 6 "/></clipPath><clipPath id="bd2aeb99ac"><path d="M 79 148 L 146 148 L 146 214.128906 L 79 214.128906 Z M 79 148 "/></clipPath></defs><g id="4ff712278b"><g clip-rule="nonzero" clip-path="url(#fca3dfdab4)"><path style=" stroke:none;fill-rule:nonzero;fill:#212121;fill-opacity:1;" d="M 50.972656 112.980469 C 48.214844 112.980469 45.390625 112.671875 42.566406 112.03125 C 35.503906 110.429688 28.96875 106.875 23.667969 101.746094 C 17.660156 95.9375 13.378906 88.363281 10.945312 79.234375 C 9.347656 73.242188 8.503906 66.550781 8.503906 59.878906 C 8.503906 53.207031 9.347656 46.515625 10.945312 40.523438 C 13.378906 31.390625 17.660156 23.816406 23.667969 18.007812 C 28.96875 12.878906 35.503906 9.324219 42.5625 7.722656 C 54.613281 4.988281 66.699219 8.261719 73.355469 16.054688 C 79.078125 22.757812 80.082031 31.816406 76.183594 41.5625 C 73.214844 48.996094 71.847656 54.648438 71.753906 59.878906 C 71.847656 65.097656 73.214844 70.75 76.183594 78.199219 C 80.082031 87.941406 79.078125 97 73.355469 103.699219 C 68.261719 109.667969 59.980469 112.980469 50.972656 112.980469 Z M 17.210938 77.5625 C 21.195312 92.492188 30.957031 102.75 44 105.707031 C 53.578125 107.878906 63.394531 105.382812 68.421875 99.492188 C 72.566406 94.640625 73.164062 88.109375 70.160156 80.601562 C 66.875 72.363281 65.367188 65.988281 65.269531 59.929688 C 65.269531 59.894531 65.269531 59.863281 65.269531 59.828125 C 65.367188 53.757812 66.875 47.382812 70.160156 39.15625 C 73.167969 31.644531 72.566406 25.113281 68.421875 20.261719 C 63.390625 14.371094 53.574219 11.871094 43.996094 14.042969 C 30.957031 17 21.195312 27.261719 17.210938 42.195312 C 14.257812 53.265625 14.257812 66.492188 17.210938 77.566406 Z M 17.210938 77.5625 "/></g><path style=" stroke:none;fill-rule:nonzero;fill:#212121;fill-opacity:1;" d="M 50.878906 47.351562 C 49.628906 47.351562 48.375 47.078125 47.183594 46.527344 C 44.191406 45.144531 41.910156 42.179688 40.917969 38.390625 C 40.421875 36.507812 39.40625 35.050781 38.195312 34.492188 C 37.53125 34.1875 36.882812 34.195312 36.214844 34.515625 C 34.601562 35.296875 32.664062 34.621094 31.886719 33.007812 C 31.105469 31.398438 31.78125 29.460938 33.394531 28.679688 C 35.8125 27.511719 38.480469 27.484375 40.910156 28.605469 C 43.90625 29.984375 46.195312 32.953125 47.191406 36.75 C 47.683594 38.628906 48.699219 40.082031 49.90625 40.640625 C 50.574219 40.949219 51.226562 40.945312 51.898438 40.621094 C 53.511719 39.84375 55.449219 40.523438 56.226562 42.140625 C 57 43.753906 56.320312 45.6875 54.707031 46.464844 C 53.472656 47.058594 52.175781 47.351562 50.878906 47.351562 Z M 50.878906 47.351562 "/><path style=" stroke:none;fill-rule:nonzero;fill:#212121;fill-opacity:1;" d="M 37.230469 91.96875 C 35.929688 91.96875 34.632812 91.671875 33.398438 91.082031 C 31.785156 90.304688 31.105469 88.371094 31.882812 86.753906 C 32.65625 85.140625 34.59375 84.460938 36.207031 85.238281 C 36.882812 85.558594 37.53125 85.566406 38.199219 85.257812 C 39.410156 84.699219 40.425781 83.246094 40.917969 81.367188 C 41.910156 77.578125 44.191406 74.613281 47.183594 73.230469 C 49.613281 72.109375 52.285156 72.128906 54.707031 73.292969 C 56.320312 74.070312 57 76.003906 56.226562 77.617188 C 55.449219 79.234375 53.511719 79.914062 51.898438 79.136719 C 51.226562 78.8125 50.574219 78.808594 49.90625 79.117188 C 48.699219 79.675781 47.683594 81.128906 47.191406 83.007812 C 46.199219 86.792969 43.914062 89.757812 40.925781 91.144531 C 39.730469 91.695312 38.480469 91.96875 37.230469 91.96875 Z M 37.230469 91.96875 "/><path style=" stroke:none;fill-rule:nonzero;fill:#212121;fill-opacity:1;" d="M 46.160156 65.996094 C 43.210938 65.996094 40.394531 64.46875 38.425781 61.804688 C 37.683594 60.796875 36.792969 60.246094 35.917969 60.246094 C 35.039062 60.246094 34.148438 60.796875 33.40625 61.804688 C 32.339844 63.246094 30.3125 63.550781 28.871094 62.488281 C 27.429688 61.421875 27.125 59.394531 28.1875 57.953125 C 30.15625 55.289062 32.972656 53.761719 35.917969 53.761719 C 38.859375 53.761719 41.679688 55.289062 43.644531 57.953125 C 44.386719 58.960938 45.28125 59.511719 46.160156 59.511719 C 47.039062 59.511719 47.925781 58.960938 48.660156 57.960938 C 49.722656 56.515625 51.75 56.207031 53.195312 57.265625 C 54.636719 58.328125 54.949219 60.355469 53.886719 61.796875 C 51.929688 64.464844 49.113281 65.992188 46.167969 65.996094 C 46.164062 65.996094 46.164062 65.996094 46.160156 65.996094 Z M 46.160156 65.996094 "/><path style=" stroke:none;fill-rule:nonzero;fill:#212121;fill-opacity:1;" d="M 91.261719 161.644531 C 91.261719 161.644531 91.257812 161.644531 91.257812 161.644531 C 89.46875 161.644531 88.015625 160.191406 88.019531 158.402344 L 88.019531 151.304688 L 88.03125 99.613281 C 88.03125 99.582031 88.03125 99.550781 88.03125 99.519531 C 88.308594 90.351562 85.921875 84.054688 80.292969 79.117188 C 77.378906 76.835938 74.355469 75.84375 71.050781 76.078125 C 69.265625 76.207031 67.710938 74.863281 67.585938 73.078125 C 67.457031 71.292969 68.800781 69.738281 70.585938 69.613281 C 75.53125 69.257812 80.171875 70.761719 84.375 74.078125 C 84.414062 74.113281 84.457031 74.144531 84.496094 74.179688 C 93.894531 82.378906 94.722656 92.640625 94.515625 99.664062 L 94.507812 152.386719 L 94.503906 158.402344 C 94.503906 160.195312 93.050781 161.644531 91.261719 161.644531 Z M 91.261719 161.644531 "/><path style=" stroke:none;fill-rule:nonzero;fill:#212121;fill-opacity:1;" d="M 105.496094 155.457031 C 103.707031 155.457031 102.253906 154.007812 102.253906 152.21875 L 102.253906 99.617188 C 102.253906 99.550781 102.257812 99.484375 102.261719 99.417969 C 103.125 85.199219 100.796875 76.023438 94.222656 67.75 C 90.738281 63.378906 84.820312 59.652344 77.972656 55.335938 C 75.109375 53.535156 72.148438 51.667969 69.015625 49.550781 C 67.53125 48.550781 67.140625 46.535156 68.144531 45.050781 C 69.144531 43.566406 71.164062 43.179688 72.644531 44.179688 C 75.691406 46.238281 78.609375 48.078125 81.429688 49.851562 C 88.777344 54.480469 95.125 58.476562 99.296875 63.714844 C 103.375 68.84375 106.066406 74.367188 107.53125 80.605469 C 108.8125 86.050781 109.195312 92.125 108.742188 99.714844 L 108.742188 152.21875 C 108.742188 154.007812 107.289062 155.457031 105.496094 155.457031 Z M 105.496094 155.457031 "/><path style=" stroke:none;fill-rule:nonzero;fill:#212121;fill-opacity:1;" d="M 58.597656 90.453125 C 57.457031 90.453125 56.351562 89.851562 55.761719 88.785156 C 51.800781 81.65625 49.332031 74.285156 48.425781 66.867188 C 47.699219 60.90625 47.976562 54.917969 49.25 49.066406 C 51.425781 39.058594 55.773438 32.898438 55.957031 32.640625 C 56.996094 31.183594 59.023438 30.84375 60.480469 31.886719 C 61.933594 32.925781 62.273438 34.945312 61.238281 36.398438 C 61.199219 36.453125 57.382812 41.9375 55.527344 50.722656 C 53.0625 62.40625 55.046875 74.152344 61.429688 85.636719 C 62.300781 87.203125 61.734375 89.175781 60.167969 90.042969 C 59.671875 90.320312 59.128906 90.453125 58.597656 90.453125 Z M 58.597656 90.453125 "/><g clip-rule="nonzero" clip-path="url(#2ec907d2a0)"><path style=" stroke:none;fill-rule:nonzero;fill:#212121;fill-opacity:1;" d="M 173.566406 112.980469 C 164.558594 112.980469 156.277344 109.667969 151.183594 103.699219 C 145.460938 97 144.457031 87.941406 148.355469 78.195312 C 151.328125 70.75 152.691406 65.097656 152.785156 59.878906 C 152.691406 54.648438 151.328125 48.996094 148.355469 41.5625 C 144.457031 31.816406 145.460938 22.757812 151.183594 16.054688 C 157.839844 8.261719 169.929688 4.988281 181.976562 7.722656 C 189.039062 9.324219 195.570312 12.878906 200.875 18.007812 C 206.878906 23.816406 211.160156 31.390625 213.59375 40.523438 C 215.191406 46.515625 216.035156 53.207031 216.035156 59.878906 C 216.035156 66.550781 215.191406 73.242188 213.59375 79.234375 C 211.160156 88.363281 206.878906 95.9375 200.871094 101.746094 C 195.570312 106.875 189.035156 110.429688 181.976562 112.03125 C 179.152344 112.671875 176.324219 112.980469 173.566406 112.980469 Z M 173.664062 13.269531 C 166.519531 13.269531 159.9375 15.789062 156.117188 20.261719 C 151.976562 25.113281 151.375 31.644531 154.378906 39.15625 C 157.664062 47.382812 159.171875 53.757812 159.269531 59.828125 C 159.269531 59.863281 159.269531 59.894531 159.269531 59.929688 C 159.171875 65.988281 157.664062 72.363281 154.378906 80.597656 C 151.375 88.109375 151.976562 94.640625 156.117188 99.492188 C 161.144531 105.382812 170.960938 107.878906 180.542969 105.707031 C 193.582031 102.75 203.347656 92.492188 207.328125 77.5625 C 210.28125 66.492188 210.28125 53.265625 207.328125 42.191406 L 207.328125 42.195312 C 203.347656 27.261719 193.582031 17 180.542969 14.042969 C 178.242188 13.523438 175.925781 13.269531 173.664062 13.269531 Z M 173.664062 13.269531 "/></g><path style=" stroke:none;fill-rule:nonzero;fill:#212121;fill-opacity:1;" d="M 173.660156 47.351562 C 172.363281 47.351562 171.066406 47.058594 169.832031 46.464844 C 168.21875 45.6875 167.539062 43.753906 168.316406 42.140625 C 169.089844 40.523438 171.027344 39.84375 172.640625 40.621094 C 173.3125 40.945312 173.964844 40.949219 174.632812 40.640625 C 175.839844 40.082031 176.855469 38.628906 177.351562 36.75 C 178.34375 32.953125 180.632812 29.984375 183.628906 28.605469 C 186.058594 27.484375 188.726562 27.511719 191.148438 28.679688 C 192.757812 29.460938 193.433594 31.398438 192.65625 33.007812 C 191.875 34.621094 189.9375 35.296875 188.324219 34.515625 C 187.65625 34.195312 187.007812 34.1875 186.34375 34.492188 C 185.132812 35.050781 184.117188 36.507812 183.625 38.390625 C 182.628906 42.179688 180.347656 45.144531 177.355469 46.527344 C 176.164062 47.078125 174.914062 47.351562 173.660156 47.351562 Z M 173.660156 47.351562 "/><path style=" stroke:none;fill-rule:nonzero;fill:#212121;fill-opacity:1;" d="M 187.3125 91.96875 C 186.058594 91.96875 184.808594 91.695312 183.617188 91.140625 C 180.625 89.757812 178.339844 86.792969 177.351562 83.007812 C 176.855469 81.128906 175.839844 79.675781 174.632812 79.117188 C 173.964844 78.808594 173.3125 78.8125 172.640625 79.136719 C 171.027344 79.914062 169.089844 79.234375 168.316406 77.617188 C 167.539062 76.003906 168.21875 74.070312 169.832031 73.292969 C 172.253906 72.128906 174.925781 72.109375 177.355469 73.230469 C 180.347656 74.613281 182.632812 77.578125 183.625 81.367188 C 184.117188 83.246094 185.132812 84.699219 186.339844 85.257812 C 187.007812 85.566406 187.660156 85.558594 188.332031 85.238281 C 189.945312 84.460938 191.882812 85.140625 192.660156 86.753906 C 193.433594 88.371094 192.753906 90.304688 191.140625 91.082031 C 189.90625 91.671875 188.609375 91.96875 187.3125 91.96875 Z M 187.3125 91.96875 "/><path style=" stroke:none;fill-rule:nonzero;fill:#212121;fill-opacity:1;" d="M 178.378906 65.996094 C 178.378906 65.996094 178.375 65.996094 178.371094 65.996094 C 175.425781 65.992188 172.609375 64.464844 170.652344 61.796875 C 169.589844 60.355469 169.902344 58.328125 171.34375 57.265625 C 172.789062 56.207031 174.816406 56.515625 175.878906 57.960938 C 176.613281 58.960938 177.503906 59.511719 178.378906 59.511719 C 179.261719 59.511719 180.152344 58.960938 180.894531 57.953125 C 182.863281 55.289062 185.679688 53.761719 188.625 53.761719 C 191.570312 53.761719 194.386719 55.289062 196.351562 57.953125 C 197.417969 59.394531 197.109375 61.421875 195.667969 62.488281 C 194.226562 63.550781 192.199219 63.242188 191.132812 61.804688 C 190.390625 60.796875 189.5 60.246094 188.625 60.246094 C 187.746094 60.246094 186.855469 60.796875 186.113281 61.804688 C 184.144531 64.46875 181.328125 65.996094 178.378906 65.996094 Z M 178.378906 65.996094 "/><path style=" stroke:none;fill-rule:nonzero;fill:#212121;fill-opacity:1;" d="M 119.042969 155.457031 C 117.25 155.457031 115.800781 154.007812 115.800781 152.21875 L 115.800781 99.714844 C 115.34375 92.125 115.730469 86.050781 117.007812 80.605469 C 118.472656 74.367188 121.164062 68.84375 125.238281 63.71875 C 129.414062 58.476562 135.761719 54.480469 143.109375 49.851562 C 145.929688 48.078125 148.847656 46.238281 151.894531 44.179688 C 153.378906 43.179688 155.394531 43.566406 156.394531 45.050781 C 157.398438 46.535156 157.007812 48.550781 155.527344 49.550781 C 152.390625 51.667969 149.429688 53.535156 146.566406 55.335938 C 139.71875 59.652344 133.804688 63.378906 130.316406 67.753906 C 123.742188 76.023438 121.414062 85.199219 122.277344 99.417969 C 122.28125 99.484375 122.285156 99.550781 122.285156 99.617188 L 122.285156 152.21875 C 122.285156 154.007812 120.832031 155.457031 119.042969 155.457031 Z M 119.042969 155.457031 "/><path style=" stroke:none;fill-rule:nonzero;fill:#212121;fill-opacity:1;" d="M 133.273438 133.480469 C 131.480469 133.480469 130.03125 132.027344 130.03125 130.238281 L 130.023438 99.664062 C 129.816406 92.640625 130.644531 82.378906 140.042969 74.179688 C 140.085938 74.144531 140.125 74.113281 140.167969 74.078125 C 144.371094 70.761719 149.007812 69.257812 153.953125 69.613281 C 155.738281 69.738281 157.082031 71.292969 156.953125 73.078125 C 156.828125 74.863281 155.273438 76.207031 153.488281 76.078125 C 150.1875 75.84375 147.164062 76.835938 144.246094 79.117188 C 138.617188 84.054688 136.230469 90.351562 136.507812 99.519531 C 136.507812 99.550781 136.507812 99.582031 136.507812 99.613281 L 136.515625 130.238281 C 136.515625 132.027344 135.0625 133.480469 133.273438 133.480469 Z M 133.273438 133.480469 "/><path style=" stroke:none;fill-rule:nonzero;fill:#212121;fill-opacity:1;" d="M 165.941406 90.453125 C 165.410156 90.453125 164.867188 90.320312 164.371094 90.042969 C 162.804688 89.175781 162.242188 87.203125 163.109375 85.636719 C 169.546875 74.054688 171.511719 62.214844 168.953125 50.441406 C 167.058594 41.726562 163.34375 36.460938 163.304688 36.40625 C 162.265625 34.949219 162.601562 32.925781 164.058594 31.886719 C 165.515625 30.84375 167.542969 31.183594 168.582031 32.640625 C 168.769531 32.898438 173.113281 39.058594 175.289062 49.066406 C 176.5625 54.917969 176.839844 60.90625 176.113281 66.867188 C 175.207031 74.285156 172.742188 81.660156 168.78125 88.785156 C 168.1875 89.851562 167.082031 90.453125 165.941406 90.453125 Z M 165.941406 90.453125 "/><g clip-rule="nonzero" clip-path="url(#bd2aeb99ac)"><path style=" stroke:none;fill-rule:nonzero;fill:#212121;fill-opacity:1;" d="M 122.152344 214.128906 L 102.386719 214.128906 C 100.597656 214.128906 99.144531 212.675781 99.144531 210.886719 L 99.144531 198.789062 C 93.847656 196.957031 89.273438 194.054688 85.808594 190.3125 C 81.601562 185.769531 79.378906 180.359375 79.378906 174.664062 C 79.378906 171.003906 80.296875 167.464844 82.105469 164.144531 C 83.8125 161.003906 86.238281 158.199219 89.316406 155.804688 C 95.480469 151.011719 103.632812 148.371094 112.269531 148.371094 C 114.683594 148.371094 117.09375 148.582031 119.429688 148.992188 C 119.4375 148.996094 119.449219 148.996094 119.457031 149 L 119.632812 149.03125 C 121.394531 149.355469 122.558594 151.046875 122.230469 152.808594 C 121.90625 154.566406 120.210938 155.730469 118.453125 155.40625 L 118.398438 155.394531 C 118.359375 155.390625 118.324219 155.382812 118.289062 155.375 C 116.328125 155.03125 114.304688 154.855469 112.269531 154.855469 C 105.070312 154.855469 98.332031 157.011719 93.296875 160.925781 C 88.503906 164.648438 85.867188 169.53125 85.867188 174.664062 C 85.867188 182.9375 92.851562 190.417969 103.246094 193.277344 C 104.65625 193.664062 105.628906 194.941406 105.628906 196.402344 L 105.628906 207.644531 L 118.910156 207.644531 L 118.910156 196.402344 C 118.910156 194.941406 119.886719 193.664062 121.292969 193.277344 C 131.6875 190.417969 138.675781 182.9375 138.675781 174.664062 C 138.675781 172.875 140.125 171.421875 141.917969 171.421875 C 143.707031 171.421875 145.160156 172.875 145.160156 174.664062 C 145.160156 180.355469 142.9375 185.769531 138.734375 190.3125 C 135.269531 194.054688 130.691406 196.957031 125.394531 198.789062 L 125.394531 210.886719 C 125.394531 212.675781 123.941406 214.128906 122.152344 214.128906 Z M 122.152344 214.128906 "/></g><path style=" stroke:none;fill-rule:nonzero;fill:#212121;fill-opacity:1;" d="M 95.800781 179.371094 C 94.007812 179.371094 92.558594 177.917969 92.558594 176.128906 C 92.558594 170.011719 96.707031 164.515625 103.390625 161.785156 C 105.046875 161.105469 106.941406 161.902344 107.617188 163.558594 C 108.296875 165.214844 107.5 167.109375 105.84375 167.785156 C 101.648438 169.5 99.042969 172.695312 99.042969 176.128906 C 99.042969 177.917969 97.589844 179.371094 95.800781 179.371094 Z M 95.800781 179.371094 "/><path style=" stroke:none;fill-rule:nonzero;fill:#212121;fill-opacity:1;" d="M 141.917969 177.90625 C 127.414062 177.90625 115.617188 166.109375 115.617188 151.613281 C 115.617188 137.117188 127.414062 125.320312 141.917969 125.320312 C 156.417969 125.320312 168.21875 137.117188 168.21875 151.613281 C 168.21875 166.109375 156.417969 177.90625 141.917969 177.90625 Z M 141.917969 131.804688 C 130.992188 131.804688 122.101562 140.691406 122.101562 151.613281 C 122.101562 162.535156 130.992188 171.421875 141.917969 171.421875 C 152.84375 171.421875 161.734375 162.535156 161.734375 151.613281 C 161.734375 140.691406 152.84375 131.804688 141.917969 131.804688 Z M 141.917969 131.804688 "/><path style=" stroke:none;fill-rule:nonzero;fill:#212121;fill-opacity:1;" d="M 141.917969 164.734375 C 140.125 164.734375 138.675781 163.28125 138.675781 161.492188 L 138.675781 141.734375 C 138.675781 139.945312 140.125 138.492188 141.917969 138.492188 C 143.707031 138.492188 145.160156 139.945312 145.160156 141.734375 L 145.160156 161.492188 C 145.160156 163.28125 143.707031 164.734375 141.917969 164.734375 Z M 141.917969 164.734375 "/><path style=" stroke:none;fill-rule:nonzero;fill:#212121;fill-opacity:1;" d="M 151.800781 154.855469 L 132.035156 154.855469 C 130.242188 154.855469 128.792969 153.402344 128.792969 151.613281 C 128.792969 149.824219 130.242188 148.371094 132.035156 148.371094 L 151.800781 148.371094 C 153.589844 148.371094 155.042969 149.824219 155.042969 151.613281 C 155.042969 153.402344 153.589844 154.855469 151.800781 154.855469 Z M 151.800781 154.855469 "/></g></svg>