<svg xmlns="http://www.w3.org/2000/svg" xmlns:xlink="http://www.w3.org/1999/xlink" width="300" zoomAndPan="magnify" viewBox="0 0 224.87999 225" height="300" preserveAspectRatio="xMidYMid meet" version="1.2"><defs><clipPath id="c11b363b36"><path d="M 15 9.535156 L 210 9.535156 L 210 202.179688 L 15 202.179688 Z M 15 9.535156 "/></clipPath></defs><g id="b4eb68aa77"><g clip-rule="nonzero" clip-path="url(#c11b363b36)"><path style=" stroke:none;fill-rule:nonzero;fill:#000000;fill-opacity:1;" d="M 202.660156 106.484375 C 197.058594 103.988281 190.457031 106.5 187.949219 112.089844 L 178.800781 132.496094 C 175.765625 129.40625 171.003906 128.351562 166.816406 130.210938 L 150.71875 137.34375 C 147.714844 137.433594 144.660156 137.796875 141.625 138.417969 C 128.210938 141.175781 117.328125 148.542969 112.605469 157.464844 C 107.882812 148.542969 97 141.175781 83.585938 138.417969 C 80.550781 137.796875 77.496094 137.4375 74.492188 137.34375 L 58.394531 130.210938 C 55.792969 129.058594 52.890625 128.988281 50.21875 130.011719 C 48.757812 130.570312 47.46875 131.417969 46.410156 132.496094 L 37.257812 112.089844 C 34.753906 106.5 28.15625 103.988281 22.546875 106.484375 C 16.972656 108.972656 14.496094 115.390625 16.90625 121.105469 L 34.253906 162.195312 C 36.101562 166.578125 39.46875 169.691406 43.984375 171.207031 L 77.550781 182.457031 C 78.851562 182.894531 79.65625 184.011719 79.65625 185.375 L 79.65625 193.121094 C 79.65625 199.066406 88.546875 202.179688 97.332031 202.179688 C 103.328125 202.179688 109.375 200.730469 112.605469 197.917969 C 115.84375 200.730469 121.894531 202.179688 127.875 202.179688 C 132.277344 202.179688 136.457031 201.417969 139.632812 200.027344 C 144.78125 197.78125 145.546875 194.734375 145.546875 193.117188 L 145.546875 185.371094 C 145.546875 184.003906 146.351562 182.882812 147.652344 182.453125 L 181.21875 171.203125 C 185.734375 169.6875 189.101562 166.574219 190.949219 162.191406 L 208.296875 121.101562 C 210.714844 115.390625 208.238281 108.972656 202.660156 106.484375 Z M 110.199219 193.121094 C 110.199219 194.625 105.3125 197.386719 97.332031 197.386719 C 89.351562 197.386719 84.464844 194.625 84.464844 193.121094 L 84.464844 185.375 C 84.464844 181.933594 82.355469 179.003906 79.082031 177.910156 L 45.515625 166.65625 C 42.300781 165.578125 40 163.453125 38.6875 160.335938 L 21.339844 119.242188 C 19.953125 115.957031 21.34375 112.277344 24.507812 110.863281 C 25.328125 110.5 26.195312 110.3125 27.066406 110.3125 C 27.832031 110.3125 28.601562 110.453125 29.34375 110.738281 C 30.925781 111.339844 32.175781 112.515625 32.863281 114.042969 L 43.558594 137.890625 C 42.613281 142.664062 45.0625 147.632812 49.707031 149.691406 L 72.101562 159.613281 C 73.316406 160.15625 74.734375 159.605469 75.273438 158.394531 C 75.816406 157.183594 75.265625 155.769531 74.050781 155.230469 L 51.65625 145.304688 C 48.695312 143.992188 47.351562 140.523438 48.671875 137.566406 C 49.304688 136.140625 50.46875 135.046875 51.9375 134.484375 C 53.410156 133.917969 55.007812 133.957031 56.4375 134.585938 L 72.96875 141.914062 C 73.261719 142.042969 73.578125 142.113281 73.898438 142.121094 C 76.765625 142.175781 79.695312 142.511719 82.609375 143.109375 C 97.261719 146.117188 108.828125 155.402344 110.195312 165.21875 L 110.195312 193.121094 Z M 203.871094 119.242188 L 186.523438 160.335938 C 185.210938 163.453125 182.910156 165.578125 179.695312 166.65625 L 146.128906 177.910156 C 142.855469 179.003906 140.746094 181.933594 140.746094 185.375 L 140.746094 193.121094 C 140.746094 193.695312 139.792969 194.726562 137.714844 195.632812 C 135.164062 196.746094 131.582031 197.386719 127.882812 197.386719 C 119.933594 197.386719 115.035156 194.628906 115.015625 193.128906 C 115.015625 193.128906 115.015625 193.125 115.015625 193.125 C 115.015625 193.125 115.015625 193.121094 115.015625 193.121094 L 115.015625 165.25 C 116.363281 155.421875 127.9375 146.125 142.601562 143.113281 C 145.511719 142.511719 148.441406 142.179688 151.308594 142.125 C 151.632812 142.117188 151.949219 142.050781 152.242188 141.917969 L 168.773438 134.589844 C 171.738281 133.28125 175.21875 134.613281 176.539062 137.570312 C 177.859375 140.523438 176.515625 143.996094 173.554688 145.308594 L 151.15625 155.234375 C 149.945312 155.773438 149.398438 157.1875 149.933594 158.398438 C 150.476562 159.609375 151.894531 160.15625 153.109375 159.617188 L 175.503906 149.695312 C 180.148438 147.636719 182.597656 142.667969 181.652344 137.894531 L 192.347656 114.046875 C 193.035156 112.515625 194.285156 111.34375 195.867188 110.742188 C 197.449219 110.136719 199.167969 110.183594 200.703125 110.867188 C 203.863281 112.277344 205.257812 115.957031 203.871094 119.242188 Z M 79.847656 123.5 L 93.863281 109.730469 C 94.910156 108.699219 95.773438 107.558594 96.445312 106.335938 L 96.445312 118.585938 C 96.445312 123.710938 100.625 127.878906 105.761719 127.878906 C 110.902344 127.878906 115.082031 123.710938 115.082031 118.585938 L 115.082031 98.625 C 115.082031 93.632812 113.328125 89.328125 109.867188 85.808594 C 110.296875 85.035156 110.535156 84.15625 110.535156 83.246094 L 110.535156 75.1875 C 111.988281 76.214844 113.511719 77.1875 115.136719 78.125 L 125.554688 84.121094 L 118.421875 124.308594 C 118.1875 125.609375 119.0625 126.855469 120.371094 127.085938 C 120.511719 127.109375 120.652344 127.121094 120.789062 127.121094 C 121.9375 127.121094 122.949219 126.300781 123.15625 125.140625 L 127.773438 99.148438 L 147.625 99.148438 L 149.210938 111.796875 C 146.164062 113.117188 144.023438 116.140625 144.023438 119.664062 C 144.023438 124.386719 147.878906 128.230469 152.617188 128.230469 C 157.355469 128.230469 161.210938 124.386719 161.210938 119.664062 C 161.210938 115.402344 158.074219 111.863281 153.980469 111.210938 L 151.542969 91.765625 C 150.660156 84.710938 145.945312 78.902344 139.738281 76.882812 C 139.988281 73.445312 138.296875 69.988281 135.105469 68.15625 L 120.386719 59.683594 C 118.726562 58.726562 117.546875 57.570312 116.5625 55.9375 L 114.496094 52.515625 C 115.636719 50.804688 116.234375 48.929688 116.234375 47.019531 C 116.234375 43.605469 114.285156 40.414062 110.75 38.035156 C 110.632812 37.960938 110.515625 37.886719 110.402344 37.816406 C 112.304688 38.703125 114.429688 39.199219 116.664062 39.199219 C 124.867188 39.199219 131.539062 32.542969 131.539062 24.367188 C 131.539062 16.1875 124.878906 9.535156 116.675781 9.535156 C 108.46875 9.535156 101.792969 16.1875 101.792969 24.367188 C 101.792969 29.589844 104.519531 34.191406 108.625 36.832031 C 104.503906 34.898438 99.902344 34.957031 95.679688 37.082031 C 83.742188 43.078125 75.277344 58.136719 75.105469 73.695312 C 75.046875 78.980469 75.929688 84.253906 77.726562 89.375 L 79.753906 96.027344 C 79.976562 96.769531 79.804688 97.449219 79.25 97.992188 L 66.765625 110.257812 C 64.996094 111.996094 64.011719 114.324219 63.996094 116.808594 C 63.976562 119.296875 64.925781 121.636719 66.667969 123.398438 C 70.273438 127.054688 76.183594 127.097656 79.847656 123.5 Z M 116.675781 14.332031 C 122.226562 14.332031 126.738281 18.835938 126.738281 24.367188 C 126.738281 29.898438 122.226562 34.40625 116.675781 34.40625 C 111.121094 34.40625 106.605469 29.902344 106.605469 24.371094 C 106.605469 18.839844 111.125 14.332031 116.675781 14.332031 Z M 156.410156 119.671875 C 156.410156 121.753906 154.710938 123.445312 152.625 123.445312 C 150.535156 123.445312 148.839844 121.75 148.839844 119.671875 C 148.839844 118.667969 149.238281 117.761719 149.878906 117.085938 L 150.238281 119.96875 C 150.390625 121.1875 151.425781 122.074219 152.625 122.074219 C 152.726562 122.074219 152.824219 122.066406 152.925781 122.054688 C 154.246094 121.890625 155.179688 120.691406 155.015625 119.375 L 154.652344 116.488281 C 155.703125 117.15625 156.410156 118.332031 156.410156 119.671875 Z M 146.777344 92.367188 L 147.027344 94.359375 L 128.625 94.359375 L 130.203125 85.496094 C 130.273438 85.496094 130.351562 85.507812 130.421875 85.507812 C 131.238281 85.507812 132.054688 85.398438 132.863281 85.183594 C 135.050781 84.597656 136.910156 83.273438 138.160156 81.425781 C 142.617188 82.851562 146.136719 87.214844 146.777344 92.367188 Z M 117.988281 63.84375 L 132.707031 72.316406 C 134.859375 73.554688 135.601562 76.3125 134.359375 78.460938 C 133.761719 79.496094 132.789062 80.234375 131.617188 80.546875 C 130.445312 80.859375 129.230469 80.703125 128.199219 80.105469 L 117.542969 73.976562 C 110.832031 70.113281 105.910156 65.539062 101.574219 59.140625 L 98.5 54.605469 C 97.738281 53.480469 97.492188 52.285156 97.753906 50.949219 C 98.015625 49.613281 98.6875 48.597656 99.820312 47.839844 L 100.003906 47.714844 C 100.839844 47.152344 101.71875 46.871094 102.652344 46.871094 C 103.019531 46.871094 103.398438 46.917969 103.785156 47 C 105.160156 47.304688 106.183594 48.039062 106.914062 49.242188 L 112.445312 58.414062 C 113.859375 60.753906 115.621094 62.476562 117.988281 63.84375 Z M 70.140625 113.675781 L 82.625 101.410156 C 84.453125 99.613281 85.101562 97.082031 84.355469 94.632812 L 82.3125 87.9375 C 82.304688 87.902344 82.292969 87.867188 82.28125 87.835938 C 80.660156 83.230469 79.859375 78.492188 79.917969 73.75 C 80.074219 59.910156 87.445312 46.59375 97.84375 41.367188 C 101.214844 39.675781 104.941406 39.914062 108.066406 42.015625 C 109.601562 43.046875 111.429688 44.757812 111.429688 47.027344 C 111.429688 47.152344 111.421875 47.277344 111.410156 47.394531 L 111.035156 46.773438 C 109.632812 44.445312 107.488281 42.90625 104.828125 42.320312 C 102.171875 41.734375 99.574219 42.21875 97.316406 43.734375 L 97.132812 43.859375 C 94.953125 45.320312 93.535156 47.457031 93.027344 50.03125 C 92.527344 52.605469 93.039062 55.113281 94.511719 57.285156 L 97.585938 61.816406 C 100.0625 65.46875 102.714844 68.578125 105.726562 71.324219 L 105.726562 83.246094 C 105.726562 83.488281 105.5625 83.648438 105.425781 83.714844 C 104.710938 84.054688 104.210938 84.726562 104.085938 85.507812 C 103.964844 86.285156 104.230469 87.078125 104.808594 87.621094 L 106.03125 88.773438 C 108.847656 91.441406 110.277344 94.757812 110.277344 98.628906 L 110.277344 118.589844 C 110.277344 121.074219 108.253906 123.089844 105.765625 123.089844 C 103.28125 123.089844 101.257812 121.070312 101.257812 118.589844 L 101.257812 97.476562 C 101.257812 96.839844 101.003906 96.230469 100.550781 95.78125 L 96.859375 92.101562 C 96.144531 91.386719 95.050781 91.191406 94.132812 91.625 C 93.214844 92.058594 92.667969 93.011719 92.765625 94.019531 C 92.855469 94.992188 92.984375 96.054688 93.117188 97.179688 L 93.265625 98.4375 C 93.617188 101.457031 92.65625 104.179688 90.484375 106.3125 L 76.46875 120.082031 C 74.699219 121.820312 71.835938 121.800781 70.089844 120.035156 C 69.246094 119.183594 68.789062 118.050781 68.796875 116.84375 C 68.8125 115.640625 69.285156 114.515625 70.140625 113.675781 Z M 70.140625 113.675781 "/></g></g></svg>