<svg xmlns="http://www.w3.org/2000/svg" xmlns:xlink="http://www.w3.org/1999/xlink" width="300" zoomAndPan="magnify" viewBox="0 0 224.87999 225" height="300" preserveAspectRatio="xMidYMid meet" version="1.2"><defs><clipPath id="1f63eab304"><path d="M 31 0.0585938 L 196.945312 0.0585938 L 196.945312 213.695312 L 31 213.695312 Z M 31 0.0585938 "/></clipPath></defs><g id="c563fa1dab"><g clip-rule="nonzero" clip-path="url(#1f63eab304)"><path style=" stroke:none;fill-rule:nonzero;fill:#000000;fill-opacity:1;" d="M 178.003906 140.933594 C 170.320312 160.230469 172.710938 181.367188 185.753906 209.46875 C 186.429688 210.933594 185.792969 212.667969 184.328125 213.347656 C 183.929688 213.53125 183.511719 213.617188 183.101562 213.617188 C 181.996094 213.617188 180.941406 212.988281 180.445312 211.925781 C 174.105469 198.261719 170.257812 186.25 168.679688 175.203125 C 166.796875 162 168.066406 150.085938 172.570312 138.773438 C 174.339844 134.332031 176.417969 129.796875 178.617188 125 C 183.714844 113.875 188.984375 102.375 190.890625 90.882812 C 191.15625 89.292969 192.660156 88.214844 194.253906 88.480469 C 195.847656 88.742188 196.925781 90.246094 196.660156 91.835938 C 194.625 104.097656 189.191406 115.957031 183.933594 127.429688 C 181.765625 132.160156 179.71875 136.625 178.003906 140.933594 Z M 121.382812 160.238281 C 120.074219 159.292969 118.246094 159.589844 117.300781 160.898438 C 109.988281 171.015625 99.335938 177.28125 89.054688 182.835938 C 88.976562 182.878906 88.90625 182.921875 88.835938 182.96875 C 88.832031 182.972656 88.824219 182.972656 88.820312 182.976562 C 82.121094 187.453125 61.261719 195.09375 54.730469 189.957031 C 51.121094 187.117188 52.75 180.054688 54.75 174.628906 C 55.050781 173.816406 54.972656 172.914062 54.539062 172.164062 C 54.109375 171.414062 53.363281 170.894531 52.507812 170.746094 C 48.320312 170.019531 47.507812 168.933594 47.359375 168.617188 C 47.136719 168.140625 47.0625 166.8125 49.101562 163.25 C 49.855469 161.929688 49.472656 160.25 48.214844 159.394531 C 45.558594 157.578125 44.210938 156.144531 44.097656 155.003906 C 43.960938 153.648438 45.390625 151.417969 48.351562 148.378906 C 49.003906 147.707031 49.296875 146.765625 49.136719 145.84375 C 48.976562 144.921875 48.382812 144.132812 47.539062 143.71875 C 41.285156 140.664062 37.894531 137.683594 37.164062 134.601562 C 36.097656 130.089844 40.730469 124.027344 46.09375 117.007812 C 48.558594 113.785156 51.347656 110.132812 53.933594 106.183594 C 54.542969 105.253906 54.570312 104.066406 54.011719 103.109375 C 49.917969 96.140625 47.804688 89.039062 47.722656 81.988281 C 47.707031 80.390625 46.398438 79.101562 44.800781 79.101562 C 44.789062 79.101562 44.777344 79.105469 44.765625 79.105469 C 43.152344 79.121094 41.855469 80.445312 41.875 82.054688 C 41.960938 89.585938 44.039062 97.113281 48.058594 104.460938 C 45.886719 107.65625 43.632812 110.601562 41.445312 113.464844 C 35.179688 121.664062 29.769531 128.742188 31.472656 135.945312 C 32.46875 140.152344 35.710938 143.773438 41.585938 147.171875 C 39.523438 149.730469 37.976562 152.578125 38.277344 155.585938 C 38.578125 158.566406 40.53125 160.828125 42.8125 162.667969 C 41.566406 165.339844 40.78125 168.367188 42.070312 171.101562 C 43.253906 173.617188 45.738281 174.957031 48.21875 175.730469 C 45.554688 184.609375 46.523438 190.933594 51.113281 194.542969 C 60.53125 201.945312 81.652344 193.582031 89.820312 189.160156 C 95.25 195.964844 97.167969 203.785156 98.644531 211.261719 C 98.921875 212.652344 100.144531 213.617188 101.511719 213.617188 C 101.699219 213.617188 101.890625 213.597656 102.082031 213.5625 C 103.664062 213.25 104.695312 211.714844 104.382812 210.132812 C 102.808594 202.179688 100.761719 193.847656 94.96875 186.257812 C 104.535156 180.9375 114.804688 174.328125 122.042969 164.3125 C 122.988281 163.007812 122.691406 161.179688 121.382812 160.238281 Z M 175.582031 104.160156 C 175.582031 113.472656 172.039062 122.445312 165.863281 128.769531 C 164.191406 130.476562 162.015625 131.375 159.769531 131.375 C 158.707031 131.375 157.625 131.175781 156.578125 130.761719 C 153.304688 129.5 151.203125 126.523438 151.113281 123.003906 C 150.960938 117.445312 149.351562 111.945312 146.554688 107.398438 C 142.027344 106.054688 137.886719 103.660156 134.445312 100.402344 C 133.964844 100.472656 133.488281 100.53125 133.003906 100.582031 C 132.886719 100.59375 132.765625 100.605469 132.648438 100.617188 C 132.296875 100.648438 131.949219 100.675781 131.597656 100.695312 C 131.460938 100.703125 131.328125 100.714844 131.191406 100.71875 C 130.726562 100.742188 130.257812 100.753906 129.792969 100.753906 C 123.429688 100.753906 117.25 98.742188 112.136719 95.042969 C 107.484375 98.882812 101.703125 100.96875 95.59375 100.96875 C 95.207031 100.96875 94.820312 100.957031 94.4375 100.9375 C 94.316406 100.933594 94.195312 100.925781 94.074219 100.921875 C 93.785156 100.902344 93.492188 100.878906 93.203125 100.855469 C 92.953125 100.832031 92.703125 100.800781 92.453125 100.773438 C 92.3125 100.753906 92.171875 100.738281 92.027344 100.71875 C 86.875 100.011719 82.199219 97.792969 78.460938 94.523438 C 78.4375 94.503906 78.410156 94.480469 78.386719 94.457031 C 78.214844 94.304688 78.042969 94.152344 77.875 93.996094 C 77.71875 93.851562 77.566406 93.703125 77.414062 93.558594 C 77.324219 93.46875 77.230469 93.382812 77.144531 93.292969 C 76.882812 93.035156 76.628906 92.765625 76.378906 92.492188 C 76.347656 92.460938 76.320312 92.429688 76.292969 92.398438 C 75.050781 91.035156 73.941406 89.535156 73.007812 87.910156 C 72.777344 87.917969 72.554688 87.917969 72.332031 87.917969 C 57.984375 87.917969 46.3125 76.261719 46.3125 61.929688 C 46.3125 53.296875 50.617188 45.273438 57.6875 40.453125 C 57.34375 39.171875 57.101562 37.863281 56.957031 36.542969 C 56.957031 36.519531 56.953125 36.5 56.949219 36.476562 C 56.90625 36.050781 56.871094 35.621094 56.847656 35.191406 C 56.84375 35.125 56.839844 35.054688 56.835938 34.988281 C 56.816406 34.5625 56.800781 34.132812 56.800781 33.703125 C 56.800781 19.378906 68.472656 7.726562 82.820312 7.726562 C 83.238281 7.726562 83.660156 7.738281 84.082031 7.761719 C 84.171875 7.765625 84.261719 7.769531 84.347656 7.773438 C 84.472656 7.78125 84.59375 7.785156 84.714844 7.792969 C 90.867188 2.914062 99.292969 0.140625 108.046875 0.140625 C 120.597656 0.140625 131.941406 5.726562 137.464844 14.492188 C 137.53125 14.5 137.601562 14.507812 137.667969 14.515625 C 137.773438 14.53125 137.875 14.550781 137.972656 14.574219 C 140.628906 14.996094 143.226562 15.828125 145.632812 17.042969 C 149.558594 14.808594 153.976562 13.636719 158.511719 13.636719 C 172.867188 13.636719 184.542969 25.296875 184.542969 39.625 C 184.542969 42.582031 184.054688 45.460938 183.089844 48.203125 C 187.324219 53.441406 189.632812 59.945312 189.632812 66.714844 C 189.632812 72.335938 188.050781 77.777344 185.046875 82.5 C 184.117188 89.597656 180.738281 96.027344 175.429688 100.828125 C 175.53125 101.941406 175.582031 103.058594 175.582031 104.160156 Z M 179.316406 81.167969 C 179.367188 80.699219 179.53125 80.246094 179.792969 79.855469 C 182.40625 75.960938 183.785156 71.417969 183.785156 66.714844 C 183.785156 60.921875 181.667969 55.371094 177.820312 51.035156 C 175.1875 48.066406 171.828125 45.789062 168.097656 44.457031 C 166.578125 43.914062 165.785156 42.242188 166.332031 40.722656 C 166.875 39.207031 168.546875 38.414062 170.070312 38.957031 C 173.046875 40.023438 175.835938 41.570312 178.316406 43.511719 C 178.566406 42.242188 178.695312 40.945312 178.695312 39.628906 C 178.695312 28.515625 169.640625 19.476562 158.511719 19.476562 C 156 19.476562 153.53125 19.941406 151.214844 20.839844 C 155.371094 24.53125 158.261719 29.46875 159.390625 35.027344 C 159.710938 36.609375 158.6875 38.148438 157.105469 38.46875 C 156.910156 38.507812 156.714844 38.527344 156.519531 38.527344 C 155.160156 38.527344 153.941406 37.574219 153.660156 36.1875 C 152.523438 30.597656 149.089844 25.808594 144.1875 22.910156 C 141.535156 21.332031 138.523438 20.378906 135.472656 20.152344 C 135.460938 20.152344 135.449219 20.148438 135.441406 20.148438 C 134.921875 20.109375 134.402344 20.089844 133.890625 20.089844 C 124.859375 20.089844 116.867188 26.140625 114.453125 34.808594 C 114.09375 36.097656 112.917969 36.945312 111.636719 36.945312 C 111.378906 36.945312 111.113281 36.910156 110.851562 36.835938 C 109.296875 36.40625 108.386719 34.796875 108.816406 33.242188 C 111.59375 23.28125 120.078125 16.003906 130.132812 14.53125 C 125.140625 9.226562 116.996094 5.976562 108.046875 5.976562 C 102.476562 5.976562 97.097656 7.277344 92.59375 9.632812 C 96.300781 11.132812 99.652344 13.472656 102.347656 16.53125 C 103.414062 17.742188 103.296875 19.585938 102.082031 20.652344 C 101.527344 21.140625 100.839844 21.378906 100.152344 21.378906 C 99.34375 21.378906 98.535156 21.042969 97.957031 20.386719 C 94.625 16.605469 90 14.230469 85.019531 13.6875 C 84.917969 13.675781 84.816406 13.667969 84.714844 13.660156 C 84.46875 13.636719 84.21875 13.613281 83.96875 13.601562 C 83.585938 13.578125 83.199219 13.566406 82.824219 13.566406 C 71.699219 13.566406 62.652344 22.601562 62.652344 33.707031 C 62.652344 34.046875 62.660156 34.386719 62.679688 34.726562 C 62.683594 34.808594 62.691406 34.894531 62.695312 34.976562 C 62.710938 35.242188 62.734375 35.507812 62.757812 35.773438 C 62.765625 35.847656 62.777344 35.921875 62.785156 35.996094 C 62.816406 36.296875 62.859375 36.59375 62.90625 36.886719 C 62.910156 36.917969 62.914062 36.949219 62.917969 36.980469 C 63.675781 41.570312 66.003906 45.792969 69.566406 48.890625 C 70.785156 49.949219 70.914062 51.792969 69.851562 53.011719 C 69.273438 53.671875 68.460938 54.011719 67.644531 54.011719 C 66.964844 54.011719 66.28125 53.777344 65.726562 53.296875 C 63.347656 51.226562 61.402344 48.765625 59.9375 46.058594 C 55.082031 49.847656 52.164062 55.679688 52.164062 61.933594 C 52.164062 72.4375 60.253906 81.085938 70.535156 82 C 69.90625 79.769531 69.566406 77.417969 69.566406 74.992188 C 69.566406 73.378906 70.875 72.074219 72.488281 72.074219 C 74.101562 72.074219 75.414062 73.378906 75.414062 74.992188 C 75.414062 80.191406 77.398438 84.9375 80.648438 88.511719 C 80.664062 88.527344 80.679688 88.542969 80.691406 88.558594 C 80.863281 88.746094 81.039062 88.929688 81.21875 89.109375 C 81.285156 89.175781 81.355469 89.246094 81.421875 89.3125 C 81.535156 89.425781 81.652344 89.535156 81.769531 89.644531 C 84.601562 92.289062 88.164062 94.105469 92.015625 94.808594 C 92.019531 94.808594 92.023438 94.808594 92.023438 94.808594 C 92.617188 94.917969 93.214844 94.996094 93.816406 95.050781 C 94.003906 95.066406 94.191406 95.082031 94.378906 95.089844 C 94.484375 95.097656 94.589844 95.105469 94.695312 95.109375 C 94.992188 95.121094 95.292969 95.132812 95.597656 95.132812 C 100.019531 95.132812 104.222656 93.71875 107.699219 91.105469 C 102.832031 85.851562 99.949219 78.992188 99.683594 71.777344 C 99.621094 70.167969 100.882812 68.8125 102.496094 68.753906 C 104.105469 68.710938 105.464844 69.953125 105.527344 71.5625 C 105.777344 78.308594 108.859375 84.667969 113.992188 89.074219 C 118.382812 92.84375 123.992188 94.917969 129.796875 94.917969 C 130.214844 94.917969 130.632812 94.90625 131.050781 94.886719 C 143.855469 94.234375 154.074219 83.625 154.074219 70.679688 C 154.074219 69.066406 155.382812 67.757812 157 67.757812 C 158.613281 67.757812 159.921875 69.066406 159.921875 70.679688 C 159.921875 83.195312 152.222656 93.949219 141.304688 98.472656 C 143.675781 100.121094 146.320312 101.339844 149.136719 102.054688 C 149.835938 102.230469 150.449219 102.660156 150.847656 103.261719 C 154.597656 108.878906 156.769531 115.835938 156.960938 122.851562 C 156.992188 124.007812 157.625 124.910156 158.703125 125.324219 C 159.792969 125.753906 160.871094 125.519531 161.679688 124.695312 C 166.800781 119.449219 169.738281 111.964844 169.738281 104.160156 C 169.738281 102.792969 169.640625 101.394531 169.457031 100.011719 C 169.320312 99.003906 169.71875 98 170.507812 97.359375 C 175.503906 93.292969 178.632812 87.542969 179.316406 81.167969 Z M 154.167969 48.703125 L 154.167969 62.628906 C 154.167969 64.238281 152.859375 65.546875 151.242188 65.546875 L 139.691406 65.546875 L 139.691406 77.070312 C 139.691406 78.683594 138.382812 79.988281 136.765625 79.988281 L 122.832031 79.988281 C 121.21875 79.988281 119.910156 78.683594 119.910156 77.070312 L 119.910156 65.546875 L 108.367188 65.546875 C 106.753906 65.546875 105.445312 64.238281 105.445312 62.628906 L 105.445312 48.703125 C 105.445312 47.089844 106.753906 45.785156 108.367188 45.785156 L 119.910156 45.785156 L 119.910156 34.261719 C 119.910156 32.648438 121.21875 31.34375 122.832031 31.34375 L 136.765625 31.34375 C 138.382812 31.34375 139.691406 32.648438 139.691406 34.261719 L 139.691406 45.785156 L 151.242188 45.785156 C 152.859375 45.785156 154.167969 47.089844 154.167969 48.703125 Z M 148.320312 51.625 L 136.765625 51.625 C 135.152344 51.625 133.84375 50.316406 133.84375 48.703125 L 133.84375 37.179688 L 125.757812 37.179688 L 125.757812 48.703125 C 125.757812 50.316406 124.449219 51.625 122.832031 51.625 L 111.292969 51.625 L 111.292969 59.707031 L 122.832031 59.707031 C 124.449219 59.707031 125.757812 61.015625 125.757812 62.625 L 125.757812 74.148438 L 133.84375 74.148438 L 133.84375 62.625 C 133.84375 61.015625 135.152344 59.707031 136.765625 59.707031 L 148.320312 59.707031 Z M 148.320312 51.625 "/></g></g></svg>