<svg xmlns="http://www.w3.org/2000/svg" xmlns:xlink="http://www.w3.org/1999/xlink" width="300" zoomAndPan="magnify" viewBox="0 0 224.87999 225" height="300" preserveAspectRatio="xMidYMid meet" version="1.2"><defs><clipPath id="c246e422b5"><path d="M 10.402344 4.5 L 207 4.5 L 207 221 L 10.402344 221 Z M 10.402344 4.5 "/></clipPath></defs><g id="c67aee8326"><g clip-rule="nonzero" clip-path="url(#c246e422b5)"><path style=" stroke:none;fill-rule:nonzero;fill:#231f20;fill-opacity:1;" d="M 188.394531 135.464844 C 188.394531 133.972656 188.394531 132.457031 188.394531 130.964844 C 188.394531 82.867188 106.074219 10.605469 102.652344 7.574219 L 99.410156 4.617188 L 96.039062 7.546875 C 92.515625 10.605469 10.296875 82.867188 10.296875 130.9375 C 10.296875 132.765625 10.351562 134.59375 10.464844 136.417969 C 10.578125 138.246094 10.746094 140.066406 10.96875 141.878906 C 11.195312 143.695312 11.472656 145.5 11.808594 147.296875 C 12.144531 149.097656 12.535156 150.882812 12.980469 152.65625 C 13.425781 154.429688 13.925781 156.1875 14.480469 157.929688 C 15.035156 159.671875 15.644531 161.394531 16.304688 163.101562 C 16.964844 164.808594 17.675781 166.492188 18.441406 168.152344 C 19.203125 169.8125 20.019531 171.449219 20.882812 173.0625 C 21.75 174.671875 22.664062 176.257812 23.625 177.8125 C 24.589844 179.367188 25.597656 180.890625 26.65625 182.382812 C 27.710938 183.875 28.8125 185.335938 29.960938 186.761719 C 31.105469 188.1875 32.296875 189.574219 33.527344 190.925781 C 34.761719 192.277344 36.035156 193.589844 37.347656 194.863281 C 38.660156 196.136719 40.011719 197.371094 41.398438 198.5625 C 42.789062 199.75 44.214844 200.898438 45.671875 202 C 47.132812 203.101562 48.625 204.160156 50.152344 205.171875 C 51.675781 206.179688 53.230469 207.144531 54.816406 208.058594 C 56.398438 208.976562 58.011719 209.839844 59.648438 210.65625 C 61.285156 211.472656 62.945312 212.238281 64.632812 212.949219 C 66.316406 213.664062 68.023438 214.324219 69.746094 214.933594 C 71.472656 215.542969 73.214844 216.097656 74.976562 216.597656 C 76.734375 217.101562 78.507812 217.546875 80.296875 217.941406 C 82.082031 218.332031 83.882812 218.667969 85.691406 218.949219 C 87.496094 219.230469 89.3125 219.457031 91.136719 219.628906 C 92.957031 219.796875 94.78125 219.910156 96.613281 219.96875 C 98.441406 220.027344 100.269531 220.027344 102.097656 219.972656 C 103.929688 219.917969 105.753906 219.804688 107.578125 219.636719 C 109.398438 219.46875 111.214844 219.246094 113.023438 218.96875 C 114.832031 218.6875 116.628906 218.351562 118.417969 217.964844 C 120.207031 217.574219 121.980469 217.128906 123.738281 216.628906 C 125.5 216.128906 127.242188 215.578125 128.96875 214.96875 C 130.695312 214.363281 132.402344 213.703125 134.089844 212.992188 C 137.8125 215.296875 141.78125 217.042969 145.996094 218.234375 C 150.210938 219.425781 154.507812 220.019531 158.886719 220.011719 C 160.109375 220.011719 161.328125 219.964844 162.546875 219.871094 C 163.765625 219.78125 164.980469 219.640625 166.1875 219.453125 C 167.394531 219.265625 168.59375 219.03125 169.785156 218.753906 C 170.972656 218.472656 172.152344 218.148438 173.316406 217.777344 C 174.480469 217.40625 175.628906 216.992188 176.761719 216.53125 C 177.894531 216.074219 179.007812 215.570312 180.101562 215.027344 C 181.195312 214.480469 182.265625 213.894531 183.3125 213.265625 C 184.359375 212.640625 185.382812 211.972656 186.378906 211.265625 C 187.378906 210.558594 188.34375 209.8125 189.285156 209.03125 C 190.222656 208.25 191.128906 207.433594 192.007812 206.582031 C 192.882812 205.730469 193.722656 204.847656 194.53125 203.929688 C 195.339844 203.011719 196.109375 202.066406 196.84375 201.089844 C 197.578125 200.113281 198.273438 199.109375 198.929688 198.082031 C 199.585938 197.050781 200.203125 195.996094 200.777344 194.917969 C 201.355469 193.84375 201.886719 192.746094 202.378906 191.625 C 202.867188 190.507812 203.3125 189.371094 203.714844 188.21875 C 204.117188 187.066406 204.476562 185.898438 204.789062 184.71875 C 205.101562 183.535156 205.367188 182.34375 205.585938 181.144531 C 205.808594 179.941406 205.980469 178.734375 206.105469 177.519531 C 206.234375 176.304688 206.3125 175.085938 206.34375 173.867188 C 206.378906 172.644531 206.363281 171.425781 206.300781 170.207031 C 206.238281 168.988281 206.128906 167.769531 205.972656 166.558594 C 205.816406 165.347656 205.617188 164.144531 205.367188 162.949219 C 205.117188 161.753906 204.824219 160.570312 204.480469 159.398438 C 204.140625 158.222656 203.757812 157.066406 203.324219 155.921875 C 202.894531 154.78125 202.421875 153.65625 201.90625 152.546875 C 201.386719 151.441406 200.828125 150.355469 200.226562 149.292969 C 199.625 148.230469 198.984375 147.191406 198.304688 146.179688 C 197.621094 145.164062 196.902344 144.179688 196.144531 143.21875 C 195.386719 142.261719 194.59375 141.335938 193.765625 140.4375 C 192.933594 139.539062 192.070312 138.675781 191.175781 137.847656 C 190.277344 137.015625 189.351562 136.222656 188.394531 135.464844 Z M 99.410156 209.730469 C 98.121094 209.726562 96.832031 209.695312 95.542969 209.628906 C 94.253906 209.566406 92.96875 209.46875 91.6875 209.34375 C 90.402344 209.214844 89.125 209.054688 87.847656 208.867188 C 86.574219 208.675781 85.304688 208.453125 84.039062 208.203125 C 82.773438 207.949219 81.515625 207.667969 80.265625 207.351562 C 79.015625 207.039062 77.773438 206.695312 76.539062 206.320312 C 75.304688 205.945312 74.082031 205.539062 72.867188 205.105469 C 71.652344 204.671875 70.449219 204.207031 69.257812 203.710938 C 68.066406 203.21875 66.890625 202.695312 65.722656 202.144531 C 64.558594 201.59375 63.40625 201.011719 62.269531 200.40625 C 61.132812 199.796875 60.011719 199.164062 58.90625 198.5 C 57.796875 197.835938 56.710938 197.148438 55.636719 196.429688 C 54.566406 195.714844 53.511719 194.972656 52.476562 194.203125 C 51.441406 193.4375 50.421875 192.644531 49.425781 191.828125 C 48.429688 191.007812 47.453125 190.167969 46.5 189.300781 C 45.542969 188.4375 44.609375 187.546875 43.695312 186.636719 C 42.785156 185.726562 41.894531 184.792969 41.03125 183.835938 C 40.164062 182.882812 39.320312 181.90625 38.503906 180.910156 C 37.683594 179.914062 36.890625 178.898438 36.125 177.863281 C 35.355469 176.828125 34.613281 175.777344 33.894531 174.707031 C 33.179688 173.632812 32.488281 172.546875 31.824219 171.441406 C 31.160156 170.335938 30.527344 169.214844 29.917969 168.078125 C 29.308594 166.941406 28.730469 165.792969 28.175781 164.625 C 27.625 163.460938 27.101562 162.285156 26.609375 161.09375 C 26.113281 159.902344 25.648438 158.703125 25.214844 157.488281 C 24.78125 156.277344 24.375 155.054688 24 153.820312 C 23.625 152.585938 23.28125 151.34375 22.964844 150.09375 C 22.652344 148.847656 22.367188 147.589844 22.117188 146.324219 C 21.863281 145.0625 21.640625 143.792969 21.449219 142.519531 C 21.261719 141.242188 21.101562 139.964844 20.972656 138.683594 C 20.847656 137.398438 20.75 136.113281 20.6875 134.828125 C 20.621094 133.539062 20.589844 132.253906 20.589844 130.964844 C 20.589844 92.585938 83.976562 32.484375 99.410156 18.34375 C 114.664062 32.277344 176.378906 90.863281 178.179688 129.242188 L 177.5625 129.011719 C 176.457031 128.523438 175.324219 128.085938 174.195312 127.699219 L 173.398438 127.417969 C 172.007812 126.980469 170.59375 126.59375 169.152344 126.285156 L 168.046875 126.003906 C 166.914062 125.761719 165.78125 125.582031 164.648438 125.464844 L 163.390625 125.308594 C 161.898438 125.308594 160.40625 125.078125 158.886719 125.078125 C 157.332031 125.082031 155.78125 125.160156 154.234375 125.3125 C 152.683594 125.46875 151.148438 125.699219 149.625 126.003906 C 148.097656 126.308594 146.59375 126.6875 145.105469 127.140625 C 143.617188 127.59375 142.15625 128.121094 140.71875 128.714844 C 139.28125 129.3125 137.878906 129.976562 136.507812 130.710938 C 135.136719 131.445312 133.804688 132.246094 132.511719 133.109375 C 131.21875 133.976562 129.972656 134.902344 128.773438 135.886719 C 127.570312 136.875 126.421875 137.917969 125.320312 139.019531 C 124.222656 140.117188 123.179688 141.269531 122.195312 142.472656 C 121.207031 143.675781 120.285156 144.921875 119.421875 146.214844 C 118.558594 147.507812 117.757812 148.839844 117.027344 150.210938 C 116.292969 151.582031 115.628906 152.984375 115.035156 154.421875 C 114.441406 155.855469 113.917969 157.320312 113.46875 158.808594 C 113.015625 160.292969 112.640625 161.800781 112.335938 163.324219 C 112.03125 164.847656 111.804688 166.382812 111.652344 167.929688 C 111.5 169.476562 111.425781 171.027344 111.425781 172.582031 C 111.425781 173.972656 111.425781 175.359375 111.628906 176.722656 L 111.628906 177.570312 C 111.628906 178.90625 111.964844 180.140625 112.222656 181.527344 C 112.253906 181.753906 112.296875 181.976562 112.351562 182.195312 C 112.609375 183.40625 112.890625 184.585938 113.226562 185.746094 C 113.226562 185.949219 113.226562 186.15625 113.40625 186.335938 C 113.789062 187.621094 114.226562 188.90625 114.71875 190.089844 C 114.71875 190.347656 114.921875 190.601562 115.050781 190.859375 C 115.554688 192.113281 116.121094 193.339844 116.75 194.535156 C 117.367188 195.691406 118.0625 196.824219 118.753906 197.957031 C 118.90625 198.160156 119.046875 198.375 119.167969 198.597656 C 119.914062 199.703125 120.683594 200.78125 121.507812 201.835938 L 121.921875 202.324219 C 122.742188 203.328125 123.566406 204.277344 124.492188 205.203125 L 124.671875 205.4375 C 116.492188 208.269531 108.070312 209.699219 99.410156 209.730469 Z M 158.886719 209.730469 C 155.082031 209.753906 151.359375 209.203125 147.722656 208.078125 C 144.089844 206.949219 140.710938 205.296875 137.585938 203.121094 C 135.761719 201.84375 134.066406 200.414062 132.5 198.832031 C 130.933594 197.25 129.519531 195.539062 128.261719 193.703125 C 127.003906 191.863281 125.917969 189.929688 125.007812 187.898438 C 124.097656 185.867188 123.378906 183.769531 122.847656 181.605469 C 122.117188 178.695312 121.757812 175.738281 121.765625 172.738281 C 121.761719 171.519531 121.816406 170.304688 121.933594 169.089844 C 122.046875 167.878906 122.222656 166.671875 122.457031 165.476562 C 122.691406 164.28125 122.984375 163.097656 123.332031 161.933594 C 123.683594 160.765625 124.089844 159.617188 124.554688 158.492188 C 125.015625 157.363281 125.535156 156.261719 126.105469 155.183594 C 126.675781 154.109375 127.300781 153.0625 127.972656 152.046875 C 128.648438 151.03125 129.371094 150.054688 130.140625 149.109375 C 130.914062 148.164062 131.726562 147.261719 132.589844 146.398438 C 133.449219 145.535156 134.347656 144.714844 135.289062 143.9375 C 136.230469 143.164062 137.207031 142.433594 138.21875 141.753906 C 139.230469 141.074219 140.273438 140.449219 141.347656 139.871094 C 142.421875 139.292969 143.519531 138.769531 144.644531 138.300781 C 145.769531 137.832031 146.917969 137.417969 148.082031 137.0625 C 149.25 136.707031 150.429688 136.410156 151.625 136.167969 C 152.820312 135.925781 154.023438 135.746094 155.238281 135.625 C 156.453125 135.503906 157.667969 135.441406 158.886719 135.4375 C 159.839844 135.4375 160.792969 135.4375 161.742188 135.4375 C 165.050781 135.683594 168.261719 136.367188 171.386719 137.484375 C 174.507812 138.601562 177.425781 140.113281 180.136719 142.019531 C 181.746094 143.140625 183.261719 144.386719 184.675781 145.75 C 186.089844 147.113281 187.386719 148.578125 188.566406 150.144531 C 189.75 151.714844 190.796875 153.367188 191.71875 155.101562 C 192.636719 156.835938 193.414062 158.632812 194.046875 160.492188 C 194.683594 162.351562 195.164062 164.246094 195.5 166.183594 C 195.832031 168.117188 196.011719 170.066406 196.035156 172.027344 C 196.058594 173.992188 195.925781 175.945312 195.640625 177.886719 C 195.355469 179.828125 194.917969 181.738281 194.328125 183.609375 C 193.738281 185.484375 193.007812 187.296875 192.128906 189.054688 C 191.253906 190.8125 190.246094 192.488281 189.101562 194.085938 C 187.957031 195.683594 186.695312 197.179688 185.316406 198.578125 C 183.9375 199.976562 182.453125 201.253906 180.871094 202.417969 C 179.289062 203.578125 177.621094 204.609375 175.875 205.507812 C 174.128906 206.40625 172.320312 207.160156 170.453125 207.773438 C 168.589844 208.386719 166.683594 208.847656 164.746094 209.15625 C 162.804688 209.46875 160.851562 209.625 158.886719 209.625 Z M 158.886719 209.730469 "/></g><path style=" stroke:none;fill-rule:nonzero;fill:#231f20;fill-opacity:1;" d="M 164.03125 168.519531 L 164.03125 149.320312 C 164.03125 148.980469 164 148.648438 163.933594 148.316406 C 163.867188 147.984375 163.769531 147.664062 163.640625 147.351562 C 163.511719 147.039062 163.351562 146.742188 163.164062 146.460938 C 162.976562 146.183594 162.765625 145.921875 162.527344 145.683594 C 162.285156 145.445312 162.027344 145.230469 161.746094 145.042969 C 161.464844 144.855469 161.167969 144.699219 160.855469 144.570312 C 160.542969 144.441406 160.222656 144.34375 159.890625 144.277344 C 159.558594 144.210938 159.226562 144.175781 158.886719 144.175781 C 158.550781 144.175781 158.214844 144.210938 157.882812 144.277344 C 157.550781 144.34375 157.230469 144.441406 156.917969 144.570312 C 156.605469 144.699219 156.308594 144.855469 156.027344 145.042969 C 155.75 145.230469 155.488281 145.445312 155.25 145.683594 C 155.011719 145.921875 154.796875 146.183594 154.609375 146.460938 C 154.421875 146.742188 154.261719 147.039062 154.132812 147.351562 C 154.003906 147.664062 153.90625 147.984375 153.839844 148.316406 C 153.773438 148.648438 153.742188 148.980469 153.742188 149.320312 L 153.742188 168.519531 L 134.527344 168.519531 C 134.1875 168.519531 133.851562 168.554688 133.523438 168.621094 C 133.191406 168.6875 132.867188 168.785156 132.554688 168.914062 C 132.246094 169.042969 131.949219 169.199219 131.667969 169.386719 C 131.386719 169.574219 131.125 169.789062 130.886719 170.027344 C 130.648438 170.265625 130.433594 170.527344 130.246094 170.804688 C 130.058594 171.085938 129.902344 171.382812 129.773438 171.695312 C 129.644531 172.007812 129.546875 172.328125 129.480469 172.660156 C 129.414062 172.992188 129.378906 173.324219 129.378906 173.664062 C 129.378906 174 129.414062 174.335938 129.480469 174.664062 C 129.546875 174.996094 129.644531 175.316406 129.773438 175.628906 C 129.902344 175.941406 130.058594 176.238281 130.246094 176.519531 C 130.433594 176.800781 130.648438 177.058594 130.886719 177.296875 C 131.125 177.535156 131.386719 177.75 131.667969 177.9375 C 131.949219 178.125 132.246094 178.285156 132.554688 178.414062 C 132.867188 178.542969 133.191406 178.640625 133.523438 178.707031 C 133.851562 178.769531 134.1875 178.804688 134.527344 178.804688 L 153.742188 178.804688 L 153.742188 197.980469 C 153.742188 198.320312 153.773438 198.652344 153.839844 198.984375 C 153.90625 199.316406 154.003906 199.636719 154.132812 199.949219 C 154.261719 200.261719 154.421875 200.554688 154.609375 200.835938 C 154.796875 201.117188 155.011719 201.378906 155.25 201.617188 C 155.488281 201.855469 155.75 202.066406 156.027344 202.253906 C 156.308594 202.441406 156.605469 202.601562 156.917969 202.730469 C 157.230469 202.859375 157.550781 202.957031 157.882812 203.023438 C 158.214844 203.089844 158.550781 203.121094 158.886719 203.121094 C 159.226562 203.121094 159.558594 203.089844 159.890625 203.023438 C 160.222656 202.957031 160.542969 202.859375 160.855469 202.730469 C 161.167969 202.601562 161.464844 202.441406 161.746094 202.253906 C 162.027344 202.066406 162.285156 201.855469 162.527344 201.617188 C 162.765625 201.378906 162.976562 201.117188 163.164062 200.835938 C 163.351562 200.554688 163.511719 200.261719 163.640625 199.949219 C 163.769531 199.636719 163.867188 199.316406 163.933594 198.984375 C 164 198.652344 164.03125 198.320312 164.03125 197.980469 L 164.03125 178.804688 L 183.25 178.804688 C 183.585938 178.804688 183.921875 178.769531 184.253906 178.707031 C 184.585938 178.640625 184.90625 178.542969 185.21875 178.414062 C 185.53125 178.285156 185.828125 178.125 186.109375 177.9375 C 186.386719 177.75 186.648438 177.535156 186.886719 177.296875 C 187.125 177.058594 187.339844 176.800781 187.527344 176.519531 C 187.714844 176.238281 187.875 175.941406 188.003906 175.628906 C 188.132812 175.316406 188.230469 174.996094 188.296875 174.664062 C 188.363281 174.335938 188.394531 174 188.394531 173.664062 C 188.394531 173.324219 188.363281 172.992188 188.296875 172.660156 C 188.230469 172.328125 188.132812 172.007812 188.003906 171.695312 C 187.875 171.382812 187.714844 171.085938 187.527344 170.804688 C 187.339844 170.527344 187.125 170.265625 186.886719 170.027344 C 186.648438 169.789062 186.386719 169.574219 186.109375 169.386719 C 185.828125 169.199219 185.53125 169.042969 185.21875 168.914062 C 184.90625 168.785156 184.585938 168.6875 184.253906 168.621094 C 183.921875 168.554688 183.585938 168.519531 183.25 168.519531 Z M 164.03125 168.519531 "/></g></svg>