<svg xmlns="http://www.w3.org/2000/svg" xmlns:xlink="http://www.w3.org/1999/xlink" width="300" zoomAndPan="magnify" viewBox="0 0 224.87999 225" height="300" preserveAspectRatio="xMidYMid meet" version="1.2"><defs><clipPath id="ffabc080ea"><path d="M 9.632812 15.589844 L 209.773438 15.589844 L 209.773438 217.230469 L 9.632812 217.230469 Z M 9.632812 15.589844 "/></clipPath></defs><g id="1357bfa2b8"><g clip-rule="nonzero" clip-path="url(#ffabc080ea)"><path style=" stroke:none;fill-rule:nonzero;fill:#000000;fill-opacity:1;" d="M 145.839844 137.546875 C 145.839844 130.699219 142.871094 124.398438 137.917969 119.429688 C 137.738281 119.03125 137.554688 118.628906 137.363281 118.234375 C 126.378906 95.839844 125.351562 84.5 133.125 71.566406 C 135.65625 67.355469 139.46875 64.261719 144.480469 62.328125 C 144.800781 64.316406 145.488281 66.25 146.535156 68.070312 C 139.539062 71.445312 135.328125 76.898438 135.328125 82.847656 C 135.328125 93.070312 147.335938 101.078125 162.667969 101.078125 C 177.199219 101.078125 185.648438 80.902344 187.191406 76.859375 C 191.925781 64.5 191.542969 50.492188 186.140625 38.429688 C 183.746094 33.070312 174.792969 15.589844 160.222656 15.589844 C 153.125 15.589844 146.410156 17.441406 141.320312 20.800781 C 135.878906 24.390625 132.882812 29.285156 132.882812 34.578125 C 132.882812 41.601562 138.203125 47.820312 146.734375 51.128906 C 145.714844 52.816406 145.003906 54.601562 144.617188 56.445312 C 137.476562 58.703125 131.894531 62.917969 128.40625 68.722656 C 120.5625 81.769531 120.484375 93.570312 128.839844 112.929688 C 123.289062 110.132812 116.726562 108.511719 109.703125 108.511719 C 102.679688 108.511719 96.121094 110.128906 90.566406 112.925781 C 98.921875 93.566406 98.84375 81.769531 91 68.722656 C 87.511719 62.917969 81.929688 58.703125 74.789062 56.445312 C 74.402344 54.601562 73.691406 52.816406 72.671875 51.128906 C 81.203125 47.820312 86.523438 41.597656 86.523438 34.578125 C 86.523438 29.285156 83.527344 24.390625 78.085938 20.800781 C 72.996094 17.441406 66.28125 15.589844 59.179688 15.589844 C 44.613281 15.589844 35.660156 33.070312 33.265625 38.429688 C 27.863281 50.492188 27.480469 64.5 32.210938 76.855469 C 33.757812 80.902344 42.207031 101.078125 56.738281 101.078125 C 72.070312 101.078125 84.078125 93.070312 84.078125 82.847656 C 84.078125 76.898438 79.867188 71.445312 72.871094 68.070312 C 73.917969 66.25 74.605469 64.316406 74.925781 62.328125 C 79.9375 64.261719 83.75 67.355469 86.28125 71.566406 C 94.054688 84.5 93.027344 95.84375 82.039062 118.242188 C 81.847656 118.632812 81.664062 119.027344 81.484375 119.421875 C 76.527344 124.390625 73.554688 130.695312 73.554688 137.546875 C 73.554688 147.914062 80.503906 157.558594 91.691406 162.722656 C 96.210938 164.808594 98.910156 169.023438 98.910156 174.007812 L 98.910156 180.078125 C 98.910156 181.601562 100.144531 182.835938 101.664062 182.835938 L 117.742188 182.835938 C 119.261719 182.835938 120.496094 181.601562 120.496094 180.078125 L 120.496094 174.007812 C 120.496094 169.023438 123.195312 164.808594 127.714844 162.722656 C 138.894531 157.5625 145.839844 147.914062 145.839844 137.546875 Z M 138.390625 34.578125 C 138.390625 27.273438 148.390625 21.105469 160.222656 21.105469 C 169.167969 21.105469 176.878906 31.21875 181.113281 40.683594 C 185.917969 51.417969 186.261719 63.886719 182.046875 74.886719 C 179.113281 82.566406 171.726562 95.5625 162.664062 95.5625 C 150.832031 95.5625 140.832031 89.738281 140.832031 82.847656 C 140.832031 78.425781 144.992188 74.230469 151.683594 71.898438 C 152.546875 71.601562 153.203125 70.890625 153.441406 70.007812 C 153.675781 69.125 153.457031 68.179688 152.859375 67.488281 C 150.84375 65.15625 149.773438 62.488281 149.773438 59.773438 C 149.773438 56.871094 150.988281 54.035156 153.28125 51.574219 C 153.945312 50.863281 154.183594 49.855469 153.914062 48.921875 C 153.640625 47.988281 152.898438 47.265625 151.957031 47.023438 C 143.84375 44.925781 138.390625 39.925781 138.390625 34.578125 Z M 78.570312 82.847656 C 78.570312 89.738281 68.574219 95.5625 56.738281 95.5625 C 47.679688 95.5625 40.292969 82.566406 37.355469 74.882812 C 33.144531 63.886719 33.484375 51.421875 38.289062 40.683594 C 42.523438 31.21875 50.238281 21.105469 59.179688 21.105469 C 71.015625 21.105469 81.011719 27.273438 81.011719 34.578125 C 81.011719 39.925781 75.5625 44.925781 67.445312 47.023438 C 66.507812 47.265625 65.761719 47.988281 65.492188 48.921875 C 65.21875 49.855469 65.460938 50.863281 66.121094 51.574219 C 68.417969 54.035156 69.628906 56.871094 69.628906 59.773438 C 69.628906 62.488281 68.5625 65.160156 66.542969 67.492188 C 65.945312 68.179688 65.730469 69.125 65.964844 70.007812 C 66.199219 70.890625 66.859375 71.601562 67.722656 71.902344 C 74.414062 74.230469 78.570312 78.425781 78.570312 82.847656 Z M 125.410156 157.714844 C 118.980469 160.679688 114.988281 166.921875 114.988281 174.007812 L 114.988281 177.320312 L 104.417969 177.320312 L 104.417969 174.007812 C 104.417969 166.921875 100.421875 160.679688 93.996094 157.714844 C 84.785156 153.460938 79.0625 145.734375 79.0625 137.546875 C 79.0625 132.089844 81.503906 127.066406 85.582031 123.070312 C 85.691406 122.976562 85.796875 122.875 85.894531 122.765625 C 91.515625 117.4375 100.097656 114.027344 109.703125 114.027344 C 126.59375 114.027344 140.332031 124.578125 140.332031 137.546875 C 140.332031 145.738281 134.613281 153.464844 125.410156 157.714844 Z M 132.785156 134.667969 L 86.621094 134.667969 C 85.101562 134.667969 83.867188 135.902344 83.867188 137.425781 L 83.867188 137.546875 C 83.867188 145.078125 90.140625 150.648438 96.003906 153.34375 C 101.003906 155.65625 104.976562 159.625 107.195312 164.519531 C 107.640625 165.503906 108.621094 166.136719 109.703125 166.136719 C 110.785156 166.136719 111.765625 165.503906 112.210938 164.519531 C 114.429688 159.625 118.402344 155.65625 123.394531 153.347656 C 129.265625 150.648438 135.539062 145.078125 135.539062 137.546875 L 135.539062 137.425781 C 135.539062 135.902344 134.304688 134.667969 132.785156 134.667969 Z M 121.089844 148.339844 C 116.464844 150.480469 112.542969 153.769531 109.703125 157.835938 C 106.859375 153.769531 102.9375 150.476562 98.308594 148.335938 C 94.792969 146.71875 91.082031 143.851562 89.824219 140.183594 L 129.582031 140.183594 C 128.324219 143.851562 124.609375 146.71875 121.089844 148.339844 Z M 58.5625 143.945312 C 56.660156 142.027344 54.117188 140.964844 51.40625 140.957031 C 51.394531 140.957031 51.386719 140.957031 51.375 140.957031 C 48.667969 140.957031 46.125 142.003906 44.214844 143.910156 C 43.035156 145.085938 42.203125 146.488281 41.726562 147.976562 L 35.882812 142.105469 L 29.941406 114.007812 C 28.679688 108.089844 24.824219 104.414062 19.878906 104.414062 C 14.292969 104.414062 9.734375 108.957031 9.71875 114.542969 L 9.652344 144.773438 C 9.628906 155.171875 12.929688 164.035156 19.738281 171.875 L 45.878906 201.960938 L 45.878906 217.230469 L 85.910156 217.230469 L 85.910156 185.191406 C 85.910156 176.066406 82.644531 168.15625 76.207031 161.6875 Z M 80.402344 211.714844 L 51.386719 211.714844 L 51.386719 199.898438 L 23.894531 168.253906 C 17.996094 161.464844 15.140625 153.789062 15.160156 144.785156 L 15.226562 114.558594 C 15.234375 112.007812 17.320312 109.929688 19.878906 109.929688 C 23.183594 109.929688 24.292969 113.933594 24.554688 115.15625 L 30.832031 144.84375 L 43.769531 157.839844 C 43.773438 157.847656 43.777344 157.851562 43.78125 157.855469 L 57.945312 172.089844 C 58.480469 172.628906 59.1875 172.898438 59.894531 172.898438 C 60.597656 172.898438 61.300781 172.632812 61.839844 172.097656 C 62.917969 171.023438 62.917969 169.277344 61.847656 168.195312 L 48.085938 154.367188 C 48.085938 154.367188 48.085938 154.363281 48.085938 154.363281 L 48.078125 154.359375 C 46.289062 152.550781 46.296875 149.617188 48.101562 147.816406 C 48.972656 146.949219 50.132812 146.472656 51.375 146.472656 C 51.378906 146.472656 51.382812 146.472656 51.390625 146.472656 C 52.628906 146.476562 53.789062 146.957031 54.652344 147.832031 L 72.304688 165.578125 C 77.675781 170.976562 80.398438 177.574219 80.398438 185.191406 L 80.398438 211.714844 Z M 209.683594 114.542969 C 209.671875 108.957031 205.113281 104.414062 199.527344 104.414062 C 194.582031 104.414062 190.726562 108.089844 189.464844 114.011719 L 183.523438 142.105469 L 177.679688 147.976562 C 177.203125 146.488281 176.371094 145.085938 175.191406 143.910156 C 173.28125 142.003906 170.738281 140.957031 168.03125 140.957031 C 168.019531 140.957031 168.011719 140.957031 168 140.957031 C 165.285156 140.964844 162.746094 142.027344 160.847656 143.941406 L 143.199219 161.6875 C 136.761719 168.15625 133.496094 176.066406 133.496094 185.191406 L 133.496094 217.230469 L 173.527344 217.230469 L 173.527344 201.960938 L 199.667969 171.875 C 206.476562 164.035156 209.777344 155.171875 209.753906 144.773438 Z M 195.511719 168.253906 L 168.019531 199.898438 L 168.019531 211.714844 L 139.003906 211.714844 L 139.003906 185.191406 C 139.003906 177.578125 141.726562 170.980469 147.101562 165.582031 L 164.753906 147.828125 C 165.617188 146.957031 166.777344 146.476562 168.015625 146.472656 C 168.019531 146.472656 168.027344 146.472656 168.03125 146.472656 C 169.269531 146.472656 170.433594 146.949219 171.304688 147.816406 C 173.109375 149.617188 173.117188 152.550781 171.324219 154.359375 L 171.320312 154.367188 L 157.558594 168.199219 C 156.484375 169.277344 156.488281 171.023438 157.566406 172.097656 C 158.105469 172.632812 158.808594 172.902344 159.511719 172.902344 C 160.21875 172.902344 160.921875 172.628906 161.460938 172.089844 L 175.621094 157.855469 C 175.625 157.851562 175.628906 157.847656 175.636719 157.84375 L 188.574219 144.84375 L 194.851562 115.160156 C 195.113281 113.933594 196.222656 109.929688 199.527344 109.929688 C 202.085938 109.929688 204.171875 112.007812 204.175781 114.558594 L 204.246094 144.789062 C 204.265625 153.789062 201.40625 161.464844 195.511719 168.253906 Z M 109.703125 65.511719 C 120.691406 65.511719 129.628906 56.5625 129.628906 45.5625 C 129.628906 34.5625 120.691406 25.613281 109.703125 25.613281 C 98.714844 25.613281 89.777344 34.5625 89.777344 45.5625 C 89.777344 56.5625 98.714844 65.511719 109.703125 65.511719 Z M 109.703125 31.128906 C 117.652344 31.128906 124.121094 37.605469 124.121094 45.5625 C 124.121094 53.523438 117.652344 59.996094 109.703125 59.996094 C 101.753906 59.996094 95.285156 53.519531 95.285156 45.5625 C 95.285156 37.605469 101.753906 31.128906 109.703125 31.128906 Z M 99.410156 45.5625 C 99.410156 44.039062 100.644531 42.804688 102.164062 42.804688 L 106.949219 42.804688 L 106.949219 38.015625 C 106.949219 36.492188 108.183594 35.257812 109.703125 35.257812 C 111.222656 35.257812 112.457031 36.492188 112.457031 38.015625 L 112.457031 42.804688 L 117.238281 42.804688 C 118.761719 42.804688 119.992188 44.039062 119.992188 45.5625 C 119.992188 47.085938 118.761719 48.320312 117.238281 48.320312 L 112.457031 48.320312 L 112.457031 53.109375 C 112.457031 54.632812 111.222656 55.867188 109.703125 55.867188 C 108.183594 55.867188 106.949219 54.628906 106.949219 53.109375 L 106.949219 48.320312 L 102.164062 48.320312 C 100.644531 48.320312 99.410156 47.085938 99.410156 45.5625 Z M 99.410156 45.5625 "/></g></g></svg>