<svg xmlns="http://www.w3.org/2000/svg" xmlns:xlink="http://www.w3.org/1999/xlink" width="300" zoomAndPan="magnify" viewBox="0 0 224.87999 225" height="300" preserveAspectRatio="xMidYMid meet" version="1.2"><defs><clipPath id="afe62aa541"><path d="M 89 6.601562 L 134 6.601562 L 134 81 L 89 81 Z M 89 6.601562 "/></clipPath><clipPath id="f33b4330e8"><path d="M 6 61 L 97 61 L 97 215.742188 L 6 215.742188 Z M 6 61 "/></clipPath><clipPath id="4f7da211aa"><path d="M 125 61 L 216 61 L 216 215.742188 L 125 215.742188 Z M 125 61 "/></clipPath><clipPath id="3c219dc1ab"><path d="M 75 144 L 148 144 L 148 215.742188 L 75 215.742188 Z M 75 144 "/></clipPath></defs><g id="bfcd2f3301"><g clip-rule="nonzero" clip-path="url(#afe62aa541)"><path style=" stroke:none;fill-rule:evenodd;fill:#000000;fill-opacity:1;" d="M 130.875 80.445312 C 130.1875 80.445312 129.507812 80.136719 129.054688 79.550781 C 120.5625 68.457031 119.1875 61.554688 119.1875 49.324219 L 119.1875 11.113281 L 103.246094 11.113281 L 103.246094 49.324219 C 103.246094 61.554688 101.875 68.457031 93.378906 79.550781 C 92.613281 80.550781 91.179688 80.742188 90.175781 79.972656 C 89.175781 79.207031 88.984375 77.773438 89.75 76.773438 C 97.328125 66.878906 98.675781 60.980469 98.675781 49.324219 L 98.679688 8.832031 C 98.679688 7.570312 99.699219 6.546875 100.960938 6.546875 L 121.472656 6.546875 C 122.738281 6.546875 123.753906 7.570312 123.753906 8.832031 L 123.753906 49.324219 C 123.753906 60.980469 125.105469 66.878906 132.6875 76.773438 C 133.453125 77.773438 133.261719 79.207031 132.257812 79.972656 C 131.84375 80.292969 131.359375 80.445312 130.875 80.445312 Z M 130.875 80.445312 "/></g><path style=" stroke:none;fill-rule:evenodd;fill:#000000;fill-opacity:1;" d="M 111.21875 28.953125 C 107.476562 28.953125 103.734375 28.296875 100.171875 26.984375 C 98.988281 26.550781 98.382812 25.238281 98.820312 24.054688 C 99.253906 22.871094 100.566406 22.265625 101.75 22.703125 C 107.855469 24.949219 114.578125 24.949219 120.679688 22.703125 C 121.867188 22.265625 123.179688 22.871094 123.617188 24.054688 C 124.050781 25.238281 123.445312 26.550781 122.261719 26.984375 C 118.703125 28.296875 114.957031 28.953125 111.21875 28.953125 Z M 111.21875 28.953125 "/><path style=" stroke:none;fill-rule:evenodd;fill:#000000;fill-opacity:1;" d="M 111.21875 45.804688 C 107.476562 45.804688 103.734375 45.148438 100.171875 43.835938 C 98.988281 43.402344 98.382812 42.089844 98.820312 40.90625 C 99.253906 39.722656 100.566406 39.117188 101.75 39.554688 C 107.855469 41.800781 114.578125 41.800781 120.679688 39.554688 C 121.867188 39.117188 123.179688 39.722656 123.617188 40.90625 C 124.050781 42.089844 123.445312 43.402344 122.261719 43.835938 C 118.703125 45.148438 114.957031 45.804688 111.21875 45.804688 Z M 111.21875 45.804688 "/><path style=" stroke:none;fill-rule:evenodd;fill:#000000;fill-opacity:1;" d="M 94.457031 102.089844 C 93.886719 102.089844 93.308594 101.875 92.867188 101.445312 C 91.964844 100.566406 91.941406 99.121094 92.816406 98.21875 C 102.746094 87.976562 107.722656 78.339844 108.945312 66.980469 C 109.074219 65.820312 110.046875 64.941406 111.21875 64.941406 C 112.382812 64.941406 113.363281 65.820312 113.488281 66.980469 C 114.714844 78.339844 119.6875 87.976562 129.617188 98.21875 C 130.496094 99.121094 130.472656 100.566406 129.5625 101.445312 C 128.664062 102.320312 127.214844 102.300781 126.339844 101.394531 C 118.804688 93.625 113.917969 86.132812 111.21875 78.027344 C 108.523438 86.128906 103.628906 93.625 96.097656 101.394531 C 95.652344 101.855469 95.050781 102.089844 94.457031 102.089844 Z M 94.457031 102.089844 "/><g clip-rule="nonzero" clip-path="url(#f33b4330e8)"><path style=" stroke:none;fill-rule:evenodd;fill:#000000;fill-opacity:1;" d="M 20.117188 215.652344 C 18.40625 215.652344 16.738281 215.429688 15.207031 214.917969 C 12.308594 213.949219 10.164062 212.082031 8.828125 209.371094 C 5.90625 203.433594 5.894531 190.625 8.792969 171.296875 C 13.195312 141.917969 29.195312 98.710938 50.175781 76.496094 C 61.519531 64.484375 72.550781 59.46875 81.238281 62.375 C 86.933594 64.28125 94.167969 70.59375 96.308594 89.859375 C 97.582031 101.359375 96.125 113.851562 91.96875 126.980469 L 91.566406 128.257812 C 88.414062 138.171875 85.925781 146 89.175781 155.914062 C 89.570312 157.109375 88.917969 158.398438 87.71875 158.792969 C 86.519531 159.183594 85.230469 158.535156 84.835938 157.335938 C 81.125 146.023438 83.945312 137.148438 87.210938 126.875 L 87.617188 125.601562 C 91.582031 113.085938 92.972656 101.230469 91.769531 90.363281 C 90.285156 77.011719 86.140625 68.832031 79.792969 66.707031 C 72.984375 64.429688 63.402344 69.140625 53.496094 79.628906 C 33.15625 101.167969 17.609375 143.28125 13.308594 171.972656 C 10.632812 189.847656 10.492188 202.414062 12.925781 207.355469 C 13.714844 208.953125 14.933594 210.011719 16.65625 210.589844 C 20.980469 212.035156 27.234375 210.160156 31.273438 208.113281 C 42.242188 202.570312 56.132812 200.160156 68.394531 198.03125 C 70.410156 197.679688 72.398438 197.335938 74.339844 196.984375 C 76.996094 196.5 79.332031 195.769531 81.289062 194.800781 C 82.421875 194.242188 83.789062 194.707031 84.347656 195.835938 C 84.910156 196.964844 84.441406 198.335938 83.3125 198.894531 C 80.976562 200.046875 78.234375 200.917969 75.15625 201.476562 C 73.203125 201.832031 71.207031 202.175781 69.171875 202.53125 C 57.230469 204.601562 43.691406 206.949219 33.339844 212.1875 C 29.652344 214.050781 24.710938 215.652344 20.117188 215.652344 Z M 20.117188 215.652344 "/></g><path style=" stroke:none;fill-rule:evenodd;fill:#000000;fill-opacity:1;" d="M 33.386719 184.59375 C 32.59375 184.59375 31.820312 184.179688 31.398438 183.4375 C 30.777344 182.339844 31.160156 180.949219 32.257812 180.324219 C 47.605469 171.617188 51.105469 158.269531 55.164062 142.808594 C 59.972656 124.484375 65.425781 103.714844 92.910156 88.125 C 94.007812 87.503906 95.398438 87.890625 96.023438 88.984375 C 96.644531 90.082031 96.261719 91.476562 95.160156 92.097656 C 69.351562 106.734375 64.382812 125.664062 59.582031 143.96875 C 55.445312 159.738281 51.53125 174.640625 34.511719 184.296875 C 34.160156 184.496094 33.765625 184.59375 33.386719 184.59375 Z M 33.386719 184.59375 "/><path style=" stroke:none;fill-rule:evenodd;fill:#000000;fill-opacity:1;" d="M 55.105469 123.109375 C 50.523438 123.109375 45.949219 121.902344 41.921875 119.492188 C 40.839844 118.847656 40.484375 117.445312 41.132812 116.363281 C 41.78125 115.28125 43.175781 114.925781 44.261719 115.574219 C 50.59375 119.355469 58.5625 119.542969 65.0625 116.066406 C 66.175781 115.46875 67.5625 115.886719 68.15625 117 C 68.75 118.109375 68.332031 119.496094 67.222656 120.089844 C 63.453125 122.105469 59.277344 123.109375 55.105469 123.109375 Z M 55.105469 123.109375 "/><path style=" stroke:none;fill-rule:evenodd;fill:#000000;fill-opacity:1;" d="M 40.523438 136.082031 C 39.667969 136.082031 38.84375 135.597656 38.457031 134.773438 C 37.921875 133.632812 38.40625 132.269531 39.546875 131.734375 C 43.976562 129.648438 46.65625 124.972656 46.21875 120.101562 C 46.105469 118.84375 47.03125 117.734375 48.289062 117.621094 C 49.542969 117.511719 50.652344 118.4375 50.765625 119.691406 C 51.375 126.464844 47.648438 132.964844 41.492188 135.863281 C 41.179688 136.011719 40.851562 136.082031 40.523438 136.082031 Z M 40.523438 136.082031 "/><path style=" stroke:none;fill-rule:evenodd;fill:#000000;fill-opacity:1;" d="M 50.429688 157.003906 C 43.675781 157.003906 37.09375 154.128906 32.535156 149.015625 C 31.699219 148.074219 31.78125 146.628906 32.71875 145.792969 C 33.667969 144.953125 35.109375 145.039062 35.945312 145.976562 C 40.410156 150.984375 47.285156 153.339844 53.878906 152.121094 C 55.121094 151.894531 56.308594 152.714844 56.542969 153.953125 C 56.773438 155.191406 55.949219 156.382812 54.710938 156.613281 C 53.289062 156.875 51.855469 157.003906 50.429688 157.003906 Z M 50.429688 157.003906 "/><path style=" stroke:none;fill-rule:evenodd;fill:#000000;fill-opacity:1;" d="M 31.675781 166.328125 C 30.871094 166.328125 30.09375 165.90625 29.675781 165.152344 C 29.0625 164.050781 29.460938 162.660156 30.566406 162.050781 C 34.414062 159.921875 36.957031 156.035156 37.371094 151.660156 C 37.5 150.40625 38.609375 149.488281 39.867188 149.605469 C 41.121094 149.726562 42.039062 150.839844 41.921875 152.097656 C 41.359375 157.96875 37.945312 163.183594 32.777344 166.042969 C 32.429688 166.238281 32.050781 166.332031 31.671875 166.332031 Z M 31.675781 166.328125 "/><path style=" stroke:none;fill-rule:evenodd;fill:#000000;fill-opacity:1;" d="M 91.832031 92.464844 C 81.105469 92.464844 70.710938 87.777344 63.636719 79.652344 C 62.808594 78.703125 62.90625 77.261719 63.859375 76.433594 C 64.8125 75.605469 66.253906 75.707031 67.082031 76.65625 C 73.742188 84.304688 83.765625 88.484375 93.890625 87.832031 C 95.15625 87.746094 96.234375 88.707031 96.316406 89.964844 C 96.398438 91.222656 95.441406 92.308594 94.179688 92.390625 C 93.394531 92.441406 92.609375 92.464844 91.832031 92.464844 Z M 91.832031 92.464844 "/><path style=" stroke:none;fill-rule:evenodd;fill:#000000;fill-opacity:1;" d="M 57.933594 96.417969 C 56.757812 96.417969 55.761719 95.519531 55.65625 94.328125 C 55.554688 93.070312 56.484375 91.96875 57.742188 91.859375 C 62.949219 91.417969 67.304688 87.714844 68.566406 82.644531 C 68.871094 81.421875 70.109375 80.675781 71.335938 80.980469 C 72.558594 81.28125 73.304688 82.523438 73 83.746094 C 71.265625 90.714844 65.285156 95.804688 58.125 96.410156 C 58.0625 96.414062 57.996094 96.417969 57.933594 96.417969 Z M 57.933594 96.417969 "/><g clip-rule="nonzero" clip-path="url(#4f7da211aa)"><path style=" stroke:none;fill-rule:evenodd;fill:#000000;fill-opacity:1;" d="M 202.320312 215.652344 C 197.726562 215.652344 192.78125 214.050781 189.09375 212.1875 C 178.742188 206.949219 165.207031 204.601562 153.257812 202.53125 C 151.234375 202.175781 149.230469 201.832031 147.277344 201.476562 C 144.199219 200.917969 141.460938 200.050781 139.125 198.894531 C 137.992188 198.332031 137.53125 196.964844 138.085938 195.835938 C 138.648438 194.703125 140.019531 194.242188 141.144531 194.800781 C 143.101562 195.765625 145.4375 196.503906 148.097656 196.984375 C 150.035156 197.335938 152.023438 197.679688 154.039062 198.03125 C 166.300781 200.15625 180.199219 202.570312 191.160156 208.113281 C 195.207031 210.15625 201.457031 212.035156 205.78125 210.589844 C 207.503906 210.011719 208.71875 208.957031 209.511719 207.355469 C 211.941406 202.410156 211.804688 189.847656 209.125 171.972656 C 204.824219 143.28125 189.28125 101.167969 168.941406 79.628906 C 159.035156 69.136719 149.449219 64.429688 142.644531 66.707031 C 136.292969 68.828125 132.152344 77.011719 130.667969 90.363281 C 129.460938 101.230469 130.859375 113.085938 134.820312 125.601562 L 135.226562 126.875 C 138.492188 137.152344 141.308594 146.023438 137.597656 157.335938 C 137.203125 158.53125 135.910156 159.1875 134.710938 158.792969 C 133.515625 158.398438 132.863281 157.109375 133.257812 155.914062 C 136.511719 146 134.023438 138.171875 130.875 128.257812 L 130.464844 126.976562 C 126.3125 113.851562 124.851562 101.363281 126.128906 89.859375 C 128.269531 70.59375 135.503906 64.28125 141.191406 62.375 C 149.886719 59.46875 160.917969 64.484375 172.261719 76.496094 C 193.238281 98.710938 209.238281 141.917969 213.644531 171.296875 C 216.542969 190.625 216.527344 203.433594 213.605469 209.371094 C 212.273438 212.082031 210.125 213.949219 207.226562 214.917969 C 205.695312 215.429688 204.027344 215.652344 202.320312 215.652344 Z M 202.320312 215.652344 "/></g><path style=" stroke:none;fill-rule:evenodd;fill:#000000;fill-opacity:1;" d="M 189.046875 184.59375 C 188.664062 184.59375 188.273438 184.496094 187.921875 184.296875 C 170.898438 174.636719 166.992188 159.742188 162.855469 143.96875 C 158.050781 125.660156 153.082031 106.734375 127.269531 92.097656 C 126.171875 91.472656 125.789062 90.082031 126.410156 88.984375 C 127.035156 87.890625 128.425781 87.503906 129.527344 88.125 C 157.011719 103.710938 162.460938 124.484375 167.269531 142.808594 C 171.328125 158.265625 174.828125 171.617188 190.179688 180.324219 C 191.273438 180.945312 191.65625 182.339844 191.035156 183.4375 C 190.617188 184.175781 189.839844 184.59375 189.046875 184.59375 Z M 189.046875 184.59375 "/><path style=" stroke:none;fill-rule:evenodd;fill:#000000;fill-opacity:1;" d="M 167.328125 123.109375 C 163.160156 123.109375 158.980469 122.105469 155.214844 120.089844 C 154.101562 119.496094 153.679688 118.113281 154.277344 117 C 154.871094 115.886719 156.253906 115.46875 157.367188 116.066406 C 163.867188 119.542969 171.839844 119.355469 178.167969 115.574219 C 179.253906 114.929688 180.65625 115.28125 181.300781 116.363281 C 181.953125 117.445312 181.59375 118.847656 180.515625 119.492188 C 176.484375 121.898438 171.90625 123.109375 167.328125 123.109375 Z M 167.328125 123.109375 "/><path style=" stroke:none;fill-rule:evenodd;fill:#000000;fill-opacity:1;" d="M 181.910156 136.082031 C 181.585938 136.082031 181.253906 136.011719 180.9375 135.863281 C 174.785156 132.964844 171.058594 126.464844 171.664062 119.691406 C 171.78125 118.433594 172.894531 117.511719 174.144531 117.621094 C 175.402344 117.734375 176.328125 118.84375 176.214844 120.101562 C 175.777344 124.972656 178.460938 129.648438 182.882812 131.734375 C 184.027344 132.269531 184.515625 133.632812 183.980469 134.773438 C 183.589844 135.597656 182.765625 136.082031 181.910156 136.082031 Z M 181.910156 136.082031 "/><path style=" stroke:none;fill-rule:evenodd;fill:#000000;fill-opacity:1;" d="M 172.003906 157.003906 C 170.582031 157.003906 169.148438 156.875 167.726562 156.613281 C 166.484375 156.382812 165.667969 155.191406 165.894531 153.953125 C 166.125 152.710938 167.316406 151.894531 168.554688 152.121094 C 175.152344 153.339844 182.023438 150.984375 186.484375 145.976562 C 187.324219 145.039062 188.769531 144.953125 189.710938 145.792969 C 190.65625 146.628906 190.734375 148.074219 189.898438 149.015625 C 185.339844 154.125 178.753906 157.003906 172.003906 157.003906 Z M 172.003906 157.003906 "/><path style=" stroke:none;fill-rule:evenodd;fill:#000000;fill-opacity:1;" d="M 190.761719 166.328125 C 190.386719 166.328125 190.007812 166.238281 189.65625 166.042969 C 184.492188 163.183594 181.074219 157.96875 180.511719 152.097656 C 180.394531 150.839844 181.316406 149.726562 182.566406 149.605469 C 183.832031 149.488281 184.941406 150.40625 185.058594 151.660156 C 185.476562 156.035156 188.023438 159.921875 191.867188 162.050781 C 192.972656 162.660156 193.371094 164.050781 192.757812 165.152344 C 192.34375 165.90625 191.5625 166.332031 190.761719 166.328125 Z M 190.761719 166.328125 "/><path style=" stroke:none;fill-rule:evenodd;fill:#000000;fill-opacity:1;" d="M 151.777344 168.875 C 151.488281 168.875 151.199219 168.820312 150.917969 168.707031 C 149.753906 168.234375 149.183594 166.902344 149.660156 165.734375 C 153.046875 157.398438 157.726562 149.710938 163.585938 142.882812 C 164.40625 141.921875 165.847656 141.8125 166.804688 142.636719 C 167.765625 143.453125 167.875 144.894531 167.050781 145.851562 C 161.519531 152.308594 157.089844 159.574219 153.894531 167.449219 C 153.535156 168.335938 152.675781 168.875 151.777344 168.875 Z M 151.777344 168.875 "/><path style=" stroke:none;fill-rule:evenodd;fill:#000000;fill-opacity:1;" d="M 158.542969 155.773438 C 158.296875 155.773438 158.039062 155.734375 157.792969 155.648438 C 153.382812 154.109375 149.855469 150.738281 148.125 146.402344 C 146.394531 142.0625 146.625 137.191406 148.765625 133.039062 C 149.34375 131.917969 150.722656 131.480469 151.839844 132.054688 C 152.964844 132.632812 153.40625 134.007812 152.824219 135.128906 C 151.296875 138.105469 151.128906 141.597656 152.367188 144.707031 C 153.613281 147.816406 156.136719 150.234375 159.296875 151.335938 C 160.492188 151.75 161.117188 153.054688 160.699219 154.242188 C 160.375 155.183594 159.492188 155.773438 158.542969 155.773438 Z M 158.542969 155.773438 "/><path style=" stroke:none;fill-rule:evenodd;fill:#000000;fill-opacity:1;" d="M 130.605469 92.464844 C 129.824219 92.464844 129.035156 92.441406 128.25 92.390625 C 126.992188 92.308594 126.039062 91.222656 126.121094 89.964844 C 126.203125 88.707031 127.277344 87.746094 128.546875 87.832031 C 138.667969 88.484375 148.691406 84.304688 155.351562 76.65625 C 156.183594 75.703125 157.625 75.605469 158.578125 76.433594 C 159.53125 77.261719 159.628906 78.703125 158.800781 79.652344 C 151.726562 87.777344 141.324219 92.464844 130.605469 92.464844 Z M 130.605469 92.464844 "/><path style=" stroke:none;fill-rule:evenodd;fill:#000000;fill-opacity:1;" d="M 164.503906 96.417969 C 164.441406 96.417969 164.375 96.414062 164.304688 96.410156 C 157.148438 95.804688 151.171875 90.714844 149.433594 83.746094 C 149.128906 82.523438 149.875 81.285156 151.097656 80.980469 C 152.328125 80.675781 153.5625 81.417969 153.867188 82.644531 C 155.132812 87.714844 159.480469 91.421875 164.691406 91.859375 C 165.949219 91.964844 166.878906 93.070312 166.777344 94.328125 C 166.675781 95.519531 165.675781 96.417969 164.5 96.417969 Z M 164.503906 96.417969 "/><g clip-rule="nonzero" clip-path="url(#3c219dc1ab)"><path style=" stroke:none;fill-rule:evenodd;fill:#000000;fill-opacity:1;" d="M 111.21875 148.585938 C 93.976562 148.585938 79.949219 162.605469 79.949219 179.839844 C 79.949219 197.070312 93.976562 211.089844 111.21875 211.089844 C 128.457031 211.089844 142.480469 197.070312 142.480469 179.839844 C 142.480469 162.605469 128.457031 148.585938 111.21875 148.585938 Z M 111.21875 215.65625 C 91.460938 215.65625 75.382812 199.589844 75.382812 179.839844 C 75.382812 160.089844 91.460938 144.019531 111.21875 144.019531 C 130.980469 144.019531 147.050781 160.089844 147.050781 179.839844 C 147.050781 199.585938 130.976562 215.65625 111.21875 215.65625 Z M 111.21875 215.65625 "/></g><path style=" stroke:none;fill-rule:evenodd;fill:#000000;fill-opacity:1;" d="M 70.65625 168.875 C 69.753906 168.875 68.898438 168.335938 68.542969 167.449219 C 65.34375 159.570312 60.914062 152.308594 55.382812 145.851562 C 54.5625 144.894531 54.671875 143.453125 55.628906 142.636719 C 56.585938 141.8125 58.027344 141.925781 58.847656 142.882812 C 64.707031 149.710938 69.386719 157.398438 72.769531 165.734375 C 73.246094 166.902344 72.683594 168.234375 71.515625 168.707031 C 71.234375 168.820312 70.945312 168.875 70.65625 168.875 Z M 70.65625 168.875 "/><path style=" stroke:none;fill-rule:evenodd;fill:#000000;fill-opacity:1;" d="M 63.886719 155.773438 C 62.945312 155.773438 62.0625 155.183594 61.734375 154.242188 C 61.320312 153.054688 61.945312 151.753906 63.136719 151.335938 C 66.300781 150.234375 68.828125 147.816406 70.066406 144.707031 C 71.3125 141.597656 71.140625 138.109375 69.605469 135.128906 C 69.03125 134.007812 69.46875 132.632812 70.589844 132.054688 C 71.714844 131.476562 73.089844 131.921875 73.671875 133.039062 C 75.808594 137.191406 76.039062 142.0625 74.308594 146.398438 C 72.578125 150.738281 69.054688 154.109375 64.640625 155.648438 C 64.394531 155.734375 64.136719 155.773438 63.886719 155.773438 Z M 63.886719 155.773438 "/><path style=" stroke:none;fill-rule:evenodd;fill:#000000;fill-opacity:1;" d="M 111.21875 198.960938 C 109.957031 198.960938 108.933594 197.941406 108.933594 196.679688 L 108.933594 162.996094 C 108.933594 161.738281 109.957031 160.714844 111.21875 160.714844 C 112.480469 160.714844 113.503906 161.738281 113.503906 163 L 113.503906 196.679688 C 113.503906 197.9375 112.480469 198.960938 111.21875 198.960938 Z M 111.21875 198.960938 "/><path style=" stroke:none;fill-rule:evenodd;fill:#000000;fill-opacity:1;" d="M 128.066406 182.121094 L 94.367188 182.121094 C 93.105469 182.121094 92.085938 181.097656 92.085938 179.839844 C 92.085938 178.578125 93.105469 177.554688 94.367188 177.554688 L 128.066406 177.554688 C 129.328125 177.554688 130.347656 178.578125 130.347656 179.839844 C 130.347656 181.097656 129.328125 182.121094 128.066406 182.121094 Z M 128.066406 182.121094 "/></g></svg>