<svg xmlns="http://www.w3.org/2000/svg" xmlns:xlink="http://www.w3.org/1999/xlink" width="300" zoomAndPan="magnify" viewBox="0 0 224.87999 225" height="300" preserveAspectRatio="xMidYMid meet" version="1.2"><defs><clipPath id="02f72e4d59"><path d="M 71 4 L 201 4 L 201 215.652344 L 71 215.652344 Z M 71 4 "/></clipPath><clipPath id="ce2337133e"><path d="M 39 4 L 104 4 L 104 215.652344 L 39 215.652344 Z M 39 4 "/></clipPath></defs><g id="cee45bd3c9"><g clip-rule="nonzero" clip-path="url(#02f72e4d59)"><path style=" stroke:none;fill-rule:nonzero;fill:#000000;fill-opacity:1;" d="M 158.367188 28.9375 C 141.117188 24.179688 125.101562 30.265625 116.6875 44.195312 C 109.449219 31.320312 108.417969 19.726562 113.519531 8.894531 C 114.320312 7.191406 113.585938 5.15625 111.882812 4.355469 C 110.1875 3.542969 108.144531 4.277344 107.34375 5.988281 C 100.472656 20.585938 102.703125 36 114.171875 53.109375 C 114.875 54.164062 116.105469 54.746094 117.363281 54.605469 C 118.621094 54.476562 119.703125 53.65625 120.171875 52.476562 C 125.992188 37.933594 140.613281 31.113281 156.554688 35.519531 C 179.539062 41.867188 199.445312 68.878906 192.136719 114.742188 C 182.605469 159.820312 154.234375 182.339844 130.347656 184.667969 C 111.539062 186.507812 95.914062 176.234375 87.523438 156.503906 C 86.792969 154.789062 84.828125 153.96875 83.09375 154.679688 C 78.433594 156.578125 75.148438 159.890625 73.328125 164.511719 C 69.34375 174.628906 72.582031 190.710938 83.210938 213.671875 C 83.789062 214.917969 85.023438 215.652344 86.308594 215.652344 C 86.789062 215.652344 87.277344 215.550781 87.742188 215.335938 C 89.453125 214.542969 90.195312 212.515625 89.402344 210.804688 C 77.359375 184.792969 77.464844 172.632812 79.679688 167.015625 C 80.386719 165.210938 81.429688 163.761719 82.832031 162.640625 C 92.722656 182.742188 110.472656 193.441406 131.007812 191.460938 C 157.375 188.894531 188.5625 164.617188 198.839844 115.984375 C 206.804688 66.058594 183.445312 35.863281 158.367188 28.9375 Z M 158.367188 28.9375 "/></g><g clip-rule="nonzero" clip-path="url(#ce2337133e)"><path style=" stroke:none;fill-rule:nonzero;fill:#000000;fill-opacity:1;" d="M 78.441406 121.949219 C 89.730469 114.910156 100.386719 108.261719 102.929688 96.648438 C 104.902344 87.652344 101.734375 77.238281 92.921875 63.828125 C 77.726562 41.558594 80.859375 20.527344 88.15625 9.289062 C 89.183594 7.703125 88.730469 5.589844 87.148438 4.566406 C 85.570312 3.535156 83.457031 3.988281 82.429688 5.566406 C 71.316406 22.6875 73.222656 47.066406 87.253906 67.625 C 94.847656 79.1875 97.800781 88.203125 96.265625 95.1875 C 94.332031 103.988281 85.296875 109.625 74.832031 116.152344 C 51.542969 130.679688 22.558594 148.753906 51.835938 213.640625 C 52.40625 214.90625 53.648438 215.652344 54.945312 215.652344 C 55.417969 215.652344 55.894531 215.554688 56.351562 215.347656 C 58.066406 214.574219 58.832031 212.550781 58.054688 210.835938 C 31.234375 151.390625 56.3125 135.75 78.441406 121.949219 Z M 78.441406 121.949219 "/></g><path style=" stroke:none;fill-rule:nonzero;fill:#000000;fill-opacity:1;" d="M 128.578125 112.894531 C 127.289062 113.53125 126.183594 114.539062 125.457031 115.964844 L 116.1875 135.605469 C 115.039062 137.734375 114.988281 140.0625 116.035156 141.992188 C 117.039062 143.84375 118.90625 145.015625 121.160156 145.203125 L 137.625 146.511719 C 137.71875 146.519531 138.132812 146.535156 138.226562 146.535156 C 140.324219 146.535156 142.191406 145.601562 143.351562 143.976562 C 144.570312 142.257812 144.828125 140.023438 144.125 138.011719 L 138 116.855469 C 137.519531 115.371094 136.574219 114.199219 135.375 113.378906 C 136.378906 93.867188 127.089844 81.777344 111.027344 62.789062 C 91.558594 38.246094 95.363281 24.382812 99.769531 8.332031 C 100.265625 6.515625 99.199219 4.632812 97.378906 4.136719 C 95.558594 3.632812 93.6875 4.703125 93.1875 6.523438 C 88.703125 22.871094 84.058594 39.777344 105.75 67.113281 C 122.339844 86.730469 129.382812 96.851562 128.578125 112.894531 Z M 138.226562 139.707031 C 138.230469 139.707031 138.234375 139.707031 138.238281 139.707031 L 138.226562 143.121094 L 138.179688 139.71875 C 138.191406 139.714844 138.214844 139.710938 138.226562 139.707031 Z M 137.5 139.652344 L 122.386719 138.449219 L 131.429688 118.964844 C 131.457031 118.96875 131.476562 118.984375 131.5 118.988281 C 131.507812 118.988281 131.511719 118.988281 131.515625 118.988281 Z M 137.5 139.652344 "/><path style=" stroke:none;fill-rule:nonzero;fill:#000000;fill-opacity:1;" d="M 124.316406 153.195312 L 123.824219 158.066406 C 123.636719 159.941406 125.003906 161.617188 126.875 161.804688 C 126.996094 161.816406 127.109375 161.824219 127.222656 161.824219 C 128.957031 161.824219 130.4375 160.511719 130.617188 158.753906 L 131.109375 153.882812 C 131.300781 152.007812 129.9375 150.332031 128.054688 150.144531 C 126.207031 150.007812 124.511719 151.320312 124.316406 153.195312 Z M 124.316406 153.195312 "/><path style=" stroke:none;fill-rule:nonzero;fill:#000000;fill-opacity:1;" d="M 114.839844 149.925781 L 111.203125 153.195312 C 109.796875 154.457031 109.683594 156.613281 110.941406 158.015625 C 111.613281 158.765625 112.542969 159.148438 113.480469 159.148438 C 114.292969 159.148438 115.105469 158.863281 115.761719 158.277344 L 119.398438 155.007812 C 120.804688 153.746094 120.917969 151.589844 119.660156 150.1875 C 118.40625 148.785156 116.246094 148.664062 114.839844 149.925781 Z M 114.839844 149.925781 "/><path style=" stroke:none;fill-rule:nonzero;fill:#000000;fill-opacity:1;" d="M 136.273438 151.863281 C 134.757812 152.984375 134.441406 155.121094 135.5625 156.636719 L 138.484375 160.574219 C 139.152344 161.476562 140.179688 161.953125 141.226562 161.953125 C 141.929688 161.953125 142.644531 161.734375 143.257812 161.28125 C 144.769531 160.160156 145.085938 158.019531 143.964844 156.507812 L 141.046875 152.570312 C 139.925781 151.054688 137.789062 150.738281 136.273438 151.863281 Z M 136.273438 151.863281 "/></g></svg>