<svg xmlns="http://www.w3.org/2000/svg" xmlns:xlink="http://www.w3.org/1999/xlink" width="300" zoomAndPan="magnify" viewBox="0 0 224.87999 225" height="300" preserveAspectRatio="xMidYMid meet" version="1.2"><defs><clipPath id="723a0ab07d"><path d="M 20 1 L 192.046875 1 L 192.046875 220 L 20 220 Z M 20 1 "/></clipPath></defs><g id="fedd20151a"><g clip-rule="nonzero" clip-path="url(#723a0ab07d)"><path style=" stroke:none;fill-rule:nonzero;fill:#000000;fill-opacity:1;" d="M 176.285156 21.804688 C 174.402344 21.804688 172.574219 22.132812 170.808594 22.789062 C 169.039062 23.449219 167.441406 24.398438 166.015625 25.632812 C 165.847656 24.976562 165.640625 24.332031 165.386719 23.703125 C 165.136719 23.074219 164.847656 22.460938 164.515625 21.871094 C 164.1875 21.277344 163.820312 20.707031 163.417969 20.164062 C 163.015625 19.617188 162.578125 19.101562 162.109375 18.613281 C 161.636719 18.125 161.140625 17.667969 160.609375 17.242188 C 160.082031 16.820312 159.527344 16.433594 158.949219 16.078125 C 158.371094 15.726562 157.773438 15.414062 157.152344 15.136719 C 156.535156 14.863281 155.898438 14.628906 155.25 14.4375 C 154.601562 14.242188 153.941406 14.09375 153.273438 13.984375 C 152.605469 13.878906 151.933594 13.8125 151.257812 13.792969 C 150.578125 13.773438 149.90625 13.796875 149.230469 13.863281 C 148.558594 13.929688 147.890625 14.039062 147.230469 14.191406 C 146.570312 14.347656 145.925781 14.539062 145.289062 14.777344 C 144.65625 15.015625 144.039062 15.289062 143.4375 15.605469 C 142.839844 15.921875 142.265625 16.277344 141.710938 16.667969 C 141.15625 17.058594 140.632812 17.484375 140.132812 17.945312 C 139.917969 17.324219 139.667969 16.722656 139.378906 16.132812 C 139.089844 15.546875 138.765625 14.980469 138.40625 14.429688 C 138.050781 13.882812 137.65625 13.359375 137.234375 12.863281 C 136.808594 12.363281 136.355469 11.894531 135.871094 11.453125 C 135.390625 11.011719 134.882812 10.601562 134.347656 10.222656 C 133.8125 9.84375 133.257812 9.5 132.683594 9.191406 C 132.105469 8.882812 131.511719 8.613281 130.902344 8.375 C 130.292969 8.140625 129.667969 7.945312 129.035156 7.789062 C 128.402344 7.632812 127.757812 7.515625 127.109375 7.4375 C 126.460938 7.359375 125.808594 7.324219 125.15625 7.328125 C 124.5 7.332031 123.851562 7.378906 123.203125 7.464844 C 122.554688 7.550781 121.914062 7.675781 121.28125 7.839844 C 120.648438 8.007812 120.03125 8.210938 119.421875 8.453125 C 118.816406 8.699219 118.226562 8.976562 117.652344 9.292969 C 117.082031 9.609375 116.53125 9.960938 116.003906 10.347656 C 115.472656 10.730469 114.972656 11.148438 114.496094 11.597656 C 114.175781 10.738281 113.785156 9.910156 113.320312 9.121094 C 112.859375 8.328125 112.332031 7.582031 111.738281 6.882812 C 111.144531 6.183594 110.496094 5.539062 109.792969 4.953125 C 109.085938 4.367188 108.335938 3.847656 107.542969 3.390625 C 106.746094 2.9375 105.917969 2.554688 105.054688 2.246094 C 104.195312 1.933594 103.3125 1.703125 102.410156 1.546875 C 101.507812 1.390625 100.597656 1.316406 99.679688 1.320312 C 98.765625 1.320312 97.855469 1.40625 96.957031 1.566406 C 96.054688 1.730469 95.175781 1.96875 94.3125 2.285156 C 93.453125 2.601562 92.628906 2.988281 91.835938 3.449219 C 91.042969 3.910156 90.296875 4.4375 89.597656 5.027344 C 88.898438 5.621094 88.253906 6.269531 87.667969 6.972656 C 87.078125 7.675781 86.554688 8.425781 86.097656 9.21875 C 85.640625 10.015625 85.257812 10.84375 84.945312 11.707031 C 84.632812 12.570312 84.398438 13.453125 84.238281 14.355469 C 84.078125 15.261719 84 16.171875 84 17.089844 L 84 35.917969 L 74.222656 35.917969 C 73.191406 35.921875 72.167969 36.023438 71.152344 36.226562 C 70.140625 36.429688 69.15625 36.726562 68.203125 37.125 C 67.25 37.523438 66.34375 38.007812 65.484375 38.582031 C 64.625 39.160156 63.828125 39.8125 63.097656 40.542969 C 62.367188 41.277344 61.714844 42.070312 61.140625 42.933594 C 60.566406 43.792969 60.082031 44.703125 59.6875 45.65625 C 59.292969 46.613281 58.992188 47.601562 58.789062 48.613281 C 58.585938 49.628906 58.484375 50.65625 58.484375 51.691406 L 58.484375 73.929688 C 58.484375 89.742188 60.578125 96.859375 64.707031 103.417969 C 63.738281 104.480469 62.8125 105.582031 61.933594 106.726562 C 61.054688 107.867188 60.226562 109.042969 59.449219 110.253906 C 58.667969 111.46875 57.941406 112.710938 57.269531 113.980469 C 56.59375 115.253906 55.972656 116.554688 55.40625 117.878906 C 54.84375 119.207031 54.335938 120.550781 53.882812 121.921875 C 53.429688 123.289062 53.035156 124.675781 52.703125 126.074219 C 52.367188 127.476562 52.089844 128.890625 51.875 130.316406 C 51.65625 131.742188 51.5 133.171875 51.40625 134.609375 C 51.308594 136.050781 51.273438 137.488281 51.296875 138.929688 C 51.324219 140.371094 51.410156 141.808594 51.554688 143.242188 C 51.699219 144.675781 51.90625 146.101562 52.171875 147.519531 C 52.4375 148.933594 52.765625 150.335938 53.148438 151.726562 C 53.53125 153.117188 53.972656 154.488281 54.472656 155.839844 C 54.972656 157.191406 55.527344 158.519531 56.136719 159.824219 C 56.75 161.128906 57.414062 162.40625 58.132812 163.652344 C 58.851562 164.902344 59.621094 166.117188 60.441406 167.300781 L 56.515625 171.234375 L 55.546875 170.261719 C 55.269531 169.984375 54.945312 169.765625 54.578125 169.617188 C 54.214844 169.464844 53.835938 169.386719 53.4375 169.386719 C 53.042969 169.386719 52.664062 169.464844 52.296875 169.617188 C 51.933594 169.765625 51.609375 169.984375 51.332031 170.261719 L 24.8125 196.84375 C 24.191406 197.46875 23.636719 198.148438 23.148438 198.878906 C 22.660156 199.613281 22.246094 200.386719 21.910156 201.203125 C 21.574219 202.015625 21.320312 202.855469 21.148438 203.71875 C 20.976562 204.585938 20.890625 205.457031 20.890625 206.339844 C 20.890625 207.222656 20.980469 208.09375 21.148438 208.957031 C 21.320312 209.824219 21.578125 210.660156 21.914062 211.476562 C 22.25 212.289062 22.664062 213.0625 23.152344 213.796875 C 23.640625 214.53125 24.195312 215.207031 24.816406 215.832031 C 25.4375 216.453125 26.117188 217.011719 26.847656 217.5 C 27.578125 217.992188 28.351562 218.40625 29.164062 218.742188 C 29.976562 219.078125 30.8125 219.335938 31.675781 219.507812 C 32.539062 219.679688 33.410156 219.765625 34.289062 219.765625 C 35.171875 219.765625 36.042969 219.679688 36.90625 219.507812 C 37.765625 219.335938 38.605469 219.082031 39.417969 218.746094 C 40.230469 218.40625 41.003906 217.996094 41.734375 217.503906 C 42.464844 217.015625 43.144531 216.460938 43.765625 215.835938 L 70.296875 189.265625 C 70.574219 188.988281 70.789062 188.664062 70.941406 188.296875 C 71.09375 187.933594 71.167969 187.550781 71.167969 187.15625 C 71.167969 186.757812 71.09375 186.378906 70.941406 186.011719 C 70.789062 185.644531 70.574219 185.324219 70.296875 185.042969 L 69.324219 184.070312 L 73.25 180.136719 C 75.308594 181.578125 77.457031 182.855469 79.703125 183.972656 L 79.703125 202.996094 C 79.703125 203.390625 79.777344 203.773438 79.929688 204.140625 C 80.082031 204.503906 80.296875 204.828125 80.574219 205.109375 C 80.855469 205.386719 81.175781 205.605469 81.542969 205.753906 C 81.90625 205.90625 82.289062 205.984375 82.683594 205.984375 L 169.671875 205.984375 C 170.066406 205.984375 170.449219 205.90625 170.8125 205.753906 C 171.179688 205.605469 171.5 205.386719 171.78125 205.109375 C 172.058594 204.828125 172.273438 204.503906 172.425781 204.140625 C 172.578125 203.773438 172.652344 203.390625 172.652344 202.996094 L 172.652344 131 C 172.621094 128.660156 172.9375 126.367188 173.59375 124.121094 C 174.253906 121.875 175.226562 119.777344 176.515625 117.824219 L 176.671875 117.574219 C 183.511719 106.894531 192.023438 93.601562 192.023438 81.984375 L 192.023438 37.574219 C 192.023438 36.539062 191.921875 35.515625 191.71875 34.5 C 191.515625 33.484375 191.21875 32.5 190.820312 31.542969 C 190.425781 30.585938 189.941406 29.679688 189.367188 28.820312 C 188.792969 27.957031 188.140625 27.160156 187.410156 26.429688 C 186.679688 25.699219 185.886719 25.042969 185.027344 24.46875 C 184.167969 23.894531 183.261719 23.40625 182.308594 23.011719 C 181.351562 22.613281 180.367188 22.3125 179.355469 22.109375 C 178.34375 21.910156 177.320312 21.804688 176.285156 21.804688 Z M 39.550781 211.613281 C 39.207031 211.960938 38.832031 212.273438 38.425781 212.550781 C 38.019531 212.828125 37.589844 213.058594 37.136719 213.25 C 36.683594 213.441406 36.21875 213.585938 35.734375 213.683594 C 35.253906 213.78125 34.769531 213.832031 34.277344 213.832031 C 33.789062 213.835938 33.300781 213.789062 32.820312 213.695312 C 32.339844 213.597656 31.871094 213.457031 31.417969 213.269531 C 30.964844 213.082031 30.53125 212.851562 30.125 212.582031 C 29.714844 212.308594 29.339844 211.996094 28.992188 211.648438 C 28.644531 211.300781 28.335938 210.921875 28.0625 210.515625 C 27.789062 210.105469 27.5625 209.671875 27.375 209.21875 C 27.1875 208.765625 27.046875 208.296875 26.953125 207.8125 C 26.855469 207.332031 26.8125 206.84375 26.8125 206.351562 C 26.8125 205.859375 26.863281 205.375 26.960938 204.890625 C 27.058594 204.410156 27.203125 203.941406 27.394531 203.488281 C 27.585938 203.035156 27.816406 202.605469 28.09375 202.199219 C 28.367188 201.789062 28.679688 201.414062 29.03125 201.070312 L 53.4375 176.601562 L 63.972656 187.152344 Z M 65.109375 179.84375 L 60.734375 175.460938 L 64.164062 172.023438 C 64.847656 172.792969 65.554688 173.546875 66.285156 174.28125 C 67.015625 175.019531 67.769531 175.730469 68.542969 176.410156 Z M 70.5 170.058594 C 69.851562 169.402344 69.222656 168.726562 68.613281 168.035156 C 68.003906 167.339844 67.417969 166.628906 66.851562 165.898438 C 66.289062 165.167969 65.746094 164.417969 65.226562 163.65625 C 64.710938 162.890625 64.214844 162.113281 63.742188 161.316406 C 63.273438 160.523438 62.828125 159.714844 62.40625 158.894531 C 61.984375 158.070312 61.589844 157.238281 61.21875 156.390625 C 60.847656 155.542969 60.503906 154.6875 60.1875 153.820312 C 59.871094 152.953125 59.582031 152.074219 59.316406 151.191406 C 59.054688 150.304688 58.816406 149.410156 58.609375 148.511719 C 58.402344 147.613281 58.21875 146.707031 58.066406 145.792969 C 57.914062 144.882812 57.789062 143.96875 57.695312 143.050781 C 57.597656 142.128906 57.53125 141.210938 57.488281 140.285156 C 57.449219 139.363281 57.4375 138.441406 57.457031 137.515625 C 57.472656 136.59375 57.515625 135.667969 57.589844 134.75 C 57.664062 133.828125 57.765625 132.910156 57.898438 131.996094 C 58.027344 131.078125 58.183594 130.171875 58.371094 129.265625 C 58.558594 128.359375 58.769531 127.460938 59.011719 126.570312 C 59.253906 125.679688 59.523438 124.792969 59.816406 123.917969 C 60.113281 123.042969 60.433594 122.179688 60.785156 121.324219 C 61.132812 120.46875 61.507812 119.625 61.910156 118.792969 C 62.308594 117.960938 62.734375 117.140625 63.1875 116.335938 C 63.636719 115.527344 64.113281 114.738281 64.613281 113.960938 C 65.113281 113.183594 65.636719 112.425781 66.179688 111.679688 C 66.726562 110.9375 67.296875 110.207031 67.886719 109.5 C 68.480469 108.789062 69.089844 108.101562 69.726562 107.429688 C 70.359375 106.757812 71.011719 106.105469 71.6875 105.476562 C 72.359375 104.84375 73.050781 104.234375 73.761719 103.644531 C 74.472656 103.058594 75.203125 102.492188 75.949219 101.949219 C 76.695312 101.40625 77.457031 100.886719 78.234375 100.390625 C 79.011719 99.894531 79.804688 99.421875 80.613281 98.972656 C 81.417969 98.527344 82.238281 98.105469 83.070312 97.707031 C 83.902344 97.3125 84.746094 96.941406 85.605469 96.597656 C 86.460938 96.25 87.324219 95.933594 88.199219 95.640625 C 89.074219 95.351562 89.957031 95.085938 90.851562 94.851562 C 91.742188 94.613281 92.640625 94.40625 93.542969 94.222656 C 94.449219 94.042969 95.355469 93.890625 96.269531 93.765625 C 97.183594 93.640625 98.101562 93.542969 99.019531 93.472656 C 99.941406 93.40625 100.859375 93.363281 101.78125 93.351562 C 102.703125 93.339844 103.625 93.359375 104.546875 93.402344 C 105.46875 93.449219 106.386719 93.523438 107.304688 93.625 C 108.21875 93.726562 109.132812 93.855469 110.042969 94.015625 C 110.949219 94.171875 111.851562 94.359375 112.75 94.574219 C 113.648438 94.785156 114.535156 95.027344 115.417969 95.296875 C 116.300781 95.566406 117.175781 95.859375 118.039062 96.183594 C 118.902344 96.507812 119.753906 96.855469 120.597656 97.230469 C 121.441406 97.605469 122.269531 98.007812 123.089844 98.433594 C 123.90625 98.863281 124.710938 99.3125 125.5 99.789062 C 126.292969 100.265625 127.066406 100.765625 127.824219 101.289062 C 128.585938 101.8125 129.328125 102.363281 130.054688 102.929688 C 130.777344 103.5 131.488281 104.09375 132.175781 104.707031 C 132.867188 105.320312 133.535156 105.957031 134.1875 106.609375 C 134.835938 107.265625 135.464844 107.941406 136.074219 108.632812 C 136.683594 109.328125 137.269531 110.039062 137.835938 110.769531 C 138.402344 111.5 138.941406 112.246094 139.460938 113.011719 C 139.980469 113.773438 140.476562 114.554688 140.949219 115.347656 C 141.417969 116.140625 141.867188 116.949219 142.289062 117.769531 C 142.707031 118.59375 143.105469 119.425781 143.476562 120.273438 C 143.84375 121.121094 144.191406 121.976562 144.507812 122.84375 C 144.824219 123.710938 145.117188 124.585938 145.378906 125.472656 C 145.644531 126.359375 145.878906 127.25 146.089844 128.152344 C 146.296875 129.050781 146.476562 129.957031 146.632812 130.867188 C 146.785156 131.777344 146.910156 132.695312 147.007812 133.613281 C 147.105469 134.53125 147.171875 135.453125 147.210938 136.375 C 147.253906 137.296875 147.265625 138.222656 147.25 139.144531 C 147.230469 140.070312 147.1875 140.992188 147.113281 141.914062 C 147.039062 142.835938 146.9375 143.753906 146.808594 144.667969 C 146.679688 145.582031 146.523438 146.492188 146.335938 147.398438 C 146.152344 148.300781 145.9375 149.199219 145.699219 150.09375 C 145.457031 150.984375 145.1875 151.867188 144.894531 152.742188 C 144.597656 153.621094 144.277344 154.484375 143.929688 155.339844 C 143.578125 156.195312 143.207031 157.039062 142.804688 157.871094 C 142.40625 158.703125 141.980469 159.523438 141.527344 160.328125 C 141.078125 161.136719 140.601562 161.925781 140.105469 162.703125 C 139.605469 163.480469 139.082031 164.242188 138.535156 164.988281 C 137.988281 165.730469 137.421875 166.457031 136.832031 167.167969 C 136.238281 167.878906 135.628906 168.566406 134.996094 169.238281 C 134.359375 169.910156 133.707031 170.5625 133.035156 171.195312 C 132.359375 171.824219 131.667969 172.433594 130.957031 173.023438 C 130.246094 173.613281 129.519531 174.179688 128.773438 174.722656 C 128.027344 175.265625 127.265625 175.785156 126.488281 176.28125 C 125.710938 176.78125 124.917969 177.253906 124.113281 177.699219 C 123.304688 178.148438 122.484375 178.570312 121.652344 178.96875 C 120.820312 179.363281 119.976562 179.734375 119.121094 180.082031 C 118.265625 180.425781 117.402344 180.742188 116.527344 181.035156 C 115.652344 181.328125 114.769531 181.589844 113.875 181.828125 C 112.984375 182.066406 112.085938 182.277344 111.183594 182.457031 C 110.277344 182.640625 109.371094 182.792969 108.457031 182.917969 C 107.542969 183.042969 106.625 183.140625 105.707031 183.210938 C 104.789062 183.28125 103.867188 183.320312 102.945312 183.332031 C 102.023438 183.34375 101.101562 183.328125 100.179688 183.285156 C 99.257812 183.238281 98.339844 183.164062 97.421875 183.0625 C 96.507812 182.960938 95.59375 182.832031 94.683594 182.675781 C 93.777344 182.519531 92.875 182.332031 91.976562 182.117188 C 91.078125 181.90625 90.191406 181.664062 89.308594 181.394531 C 88.425781 181.128906 87.550781 180.832031 86.6875 180.507812 C 85.824219 180.1875 84.96875 179.839844 84.125 179.464844 C 84 179.394531 83.871094 179.335938 83.738281 179.285156 C 78.769531 177.011719 74.355469 173.9375 70.5 170.058594 Z M 186.0625 81.988281 C 186.0625 91.851562 178.074219 104.324219 171.65625 114.351562 L 171.5 114.597656 C 169.894531 117.027344 168.683594 119.640625 167.863281 122.4375 C 167.046875 125.234375 166.65625 128.089844 166.691406 131.003906 L 166.691406 200.007812 L 85.664062 200.007812 L 85.664062 186.480469 C 87.925781 187.265625 90.230469 187.886719 92.578125 188.347656 C 94.925781 188.808594 97.292969 189.101562 99.679688 189.230469 C 102.070312 189.359375 104.457031 189.320312 106.839844 189.117188 C 109.222656 188.910156 111.578125 188.539062 113.910156 188 C 116.242188 187.464844 118.523438 186.765625 120.757812 185.910156 C 122.992188 185.054688 125.15625 184.042969 127.25 182.882812 C 129.339844 181.722656 131.34375 180.421875 133.253906 178.980469 C 135.167969 177.542969 136.96875 175.972656 138.660156 174.28125 C 158.609375 154.292969 158.609375 121.757812 138.660156 101.761719 C 137.53125 100.632812 136.351562 99.558594 135.121094 98.539062 C 133.890625 97.523438 132.617188 96.5625 131.296875 95.664062 C 129.980469 94.765625 128.621094 93.929688 127.222656 93.160156 C 125.828125 92.386719 124.398438 91.679688 122.933594 91.042969 C 121.472656 90.40625 119.984375 89.835938 118.46875 89.335938 C 116.953125 88.839844 115.417969 88.410156 113.863281 88.054688 C 112.304688 87.699219 110.738281 87.417969 109.15625 87.210938 C 107.574219 87 105.984375 86.867188 104.390625 86.808594 C 102.796875 86.746094 101.203125 86.761719 99.613281 86.851562 C 98.019531 86.941406 96.433594 87.101562 94.855469 87.339844 C 93.277344 87.578125 91.714844 87.886719 90.167969 88.273438 C 88.617188 88.65625 87.089844 89.109375 85.585938 89.636719 C 84.078125 90.164062 82.597656 90.761719 81.148438 91.425781 C 79.699219 92.089844 78.28125 92.820312 76.898438 93.617188 C 75.515625 94.414062 74.171875 95.277344 72.871094 96.199219 C 71.570312 97.121094 70.3125 98.105469 69.101562 99.144531 C 65.957031 93.707031 64.445312 87.460938 64.445312 73.929688 L 64.445312 51.6875 C 64.449219 51.046875 64.511719 50.410156 64.636719 49.777344 C 64.761719 49.148438 64.949219 48.535156 65.195312 47.941406 C 65.441406 47.347656 65.742188 46.785156 66.097656 46.25 C 66.453125 45.714844 66.859375 45.21875 67.3125 44.765625 C 67.765625 44.3125 68.261719 43.90625 68.792969 43.546875 C 69.328125 43.191406 69.890625 42.886719 70.484375 42.640625 C 71.078125 42.394531 71.6875 42.207031 72.316406 42.082031 C 72.945312 41.957031 73.582031 41.894531 74.222656 41.890625 L 84 41.890625 L 84 65.644531 C 84 66.042969 84.074219 66.421875 84.226562 66.789062 C 84.378906 67.152344 84.59375 67.476562 84.875 67.757812 C 85.152344 68.035156 85.476562 68.253906 85.839844 68.402344 C 86.207031 68.554688 86.585938 68.632812 86.980469 68.632812 C 87.375 68.632812 87.757812 68.554688 88.121094 68.402344 C 88.488281 68.253906 88.808594 68.035156 89.089844 67.757812 C 89.367188 67.476562 89.582031 67.152344 89.734375 66.789062 C 89.886719 66.421875 89.960938 66.042969 89.960938 65.644531 L 89.960938 39.148438 C 89.960938 39.105469 89.957031 39.066406 89.957031 39.027344 C 89.953125 38.988281 89.960938 38.945312 89.960938 38.90625 L 89.960938 17.089844 C 89.960938 16.445312 90.023438 15.808594 90.152344 15.179688 C 90.277344 14.546875 90.460938 13.9375 90.707031 13.34375 C 90.953125 12.75 91.253906 12.183594 91.613281 11.652344 C 91.96875 11.117188 92.375 10.621094 92.828125 10.167969 C 93.28125 9.714844 93.777344 9.308594 94.308594 8.949219 C 94.84375 8.59375 95.40625 8.292969 96 8.046875 C 96.59375 7.800781 97.203125 7.617188 97.832031 7.488281 C 98.460938 7.363281 99.097656 7.300781 99.738281 7.300781 C 100.378906 7.300781 101.015625 7.363281 101.644531 7.488281 C 102.273438 7.617188 102.882812 7.800781 103.476562 8.046875 C 104.070312 8.292969 104.632812 8.59375 105.167969 8.949219 C 105.699219 9.308594 106.195312 9.714844 106.648438 10.167969 C 107.101562 10.621094 107.507812 11.117188 107.863281 11.652344 C 108.222656 12.183594 108.523438 12.75 108.769531 13.34375 C 109.015625 13.9375 109.199219 14.546875 109.324219 15.179688 C 109.453125 15.808594 109.515625 16.445312 109.515625 17.089844 L 109.515625 35.085938 C 109.515625 35.480469 109.589844 35.863281 109.742188 36.226562 C 109.894531 36.59375 110.109375 36.917969 110.386719 37.195312 C 110.667969 37.476562 110.988281 37.691406 111.355469 37.84375 C 111.71875 37.996094 112.101562 38.070312 112.496094 38.070312 C 112.890625 38.070312 113.269531 37.996094 113.636719 37.84375 C 114 37.691406 114.324219 37.476562 114.601562 37.195312 C 114.882812 36.917969 115.097656 36.59375 115.25 36.226562 C 115.402344 35.863281 115.476562 35.480469 115.476562 35.085938 L 115.476562 23.085938 C 115.480469 22.445312 115.546875 21.8125 115.675781 21.183594 C 115.804688 20.558594 115.992188 19.949219 116.238281 19.359375 C 116.488281 18.769531 116.789062 18.207031 117.144531 17.675781 C 117.503906 17.144531 117.910156 16.652344 118.363281 16.203125 C 118.816406 15.75 119.308594 15.347656 119.839844 14.992188 C 120.375 14.636719 120.9375 14.339844 121.527344 14.09375 C 122.117188 13.851562 122.726562 13.667969 123.355469 13.542969 C 123.980469 13.417969 124.613281 13.355469 125.253906 13.355469 C 125.890625 13.355469 126.527344 13.417969 127.152344 13.542969 C 127.78125 13.667969 128.386719 13.851562 128.980469 14.09375 C 129.570312 14.339844 130.132812 14.636719 130.664062 14.992188 C 131.195312 15.347656 131.691406 15.75 132.144531 16.203125 C 132.597656 16.652344 133.003906 17.144531 133.359375 17.675781 C 133.71875 18.207031 134.019531 18.769531 134.265625 19.359375 C 134.515625 19.949219 134.703125 20.558594 134.832031 21.183594 C 134.960938 21.8125 135.027344 22.445312 135.03125 23.085938 L 135.03125 41.941406 C 135.03125 42.335938 135.105469 42.71875 135.257812 43.085938 C 135.40625 43.449219 135.625 43.773438 135.902344 44.054688 C 136.183594 44.332031 136.503906 44.550781 136.871094 44.699219 C 137.234375 44.851562 137.613281 44.929688 138.011719 44.929688 C 138.40625 44.929688 138.785156 44.851562 139.152344 44.699219 C 139.515625 44.550781 139.839844 44.332031 140.117188 44.054688 C 140.398438 43.773438 140.613281 43.449219 140.765625 43.085938 C 140.914062 42.71875 140.992188 42.335938 140.992188 41.941406 L 140.992188 29.558594 C 140.988281 28.910156 141.046875 28.273438 141.167969 27.636719 C 141.289062 27.003906 141.472656 26.386719 141.714844 25.789062 C 141.960938 25.191406 142.261719 24.621094 142.617188 24.085938 C 142.972656 23.546875 143.378906 23.046875 143.832031 22.589844 C 144.285156 22.128906 144.78125 21.722656 145.316406 21.359375 C 145.851562 21 146.417969 20.695312 147.011719 20.449219 C 147.605469 20.199219 148.21875 20.011719 148.851562 19.886719 C 149.484375 19.757812 150.121094 19.695312 150.769531 19.695312 C 151.414062 19.695312 152.050781 19.757812 152.683594 19.886719 C 153.316406 20.011719 153.929688 20.199219 154.523438 20.449219 C 155.121094 20.695312 155.683594 21 156.21875 21.359375 C 156.753906 21.722656 157.25 22.128906 157.703125 22.589844 C 158.15625 23.046875 158.5625 23.546875 158.917969 24.085938 C 159.273438 24.621094 159.574219 25.191406 159.820312 25.789062 C 160.0625 26.386719 160.246094 27.003906 160.367188 27.636719 C 160.488281 28.273438 160.546875 28.910156 160.542969 29.558594 L 160.542969 48.785156 C 160.542969 49.183594 160.621094 49.5625 160.769531 49.929688 C 160.921875 50.296875 161.136719 50.617188 161.417969 50.898438 C 161.695312 51.179688 162.019531 51.394531 162.382812 51.546875 C 162.75 51.699219 163.128906 51.773438 163.523438 51.773438 C 163.921875 51.773438 164.300781 51.699219 164.664062 51.546875 C 165.03125 51.394531 165.351562 51.179688 165.632812 50.898438 C 165.910156 50.617188 166.128906 50.296875 166.277344 49.929688 C 166.429688 49.5625 166.503906 49.183594 166.503906 48.785156 L 166.503906 37.574219 C 166.511719 36.933594 166.574219 36.300781 166.703125 35.671875 C 166.832031 35.046875 167.019531 34.4375 167.269531 33.847656 C 167.515625 33.257812 167.816406 32.695312 168.175781 32.164062 C 168.53125 31.632812 168.9375 31.140625 169.390625 30.691406 C 169.84375 30.238281 170.339844 29.835938 170.871094 29.480469 C 171.402344 29.128906 171.964844 28.828125 172.554688 28.582031 C 173.148438 28.339844 173.753906 28.15625 174.382812 28.03125 C 175.011719 27.90625 175.644531 27.84375 176.28125 27.84375 C 176.921875 27.84375 177.554688 27.90625 178.183594 28.03125 C 178.808594 28.15625 179.417969 28.339844 180.007812 28.582031 C 180.601562 28.828125 181.160156 29.128906 181.695312 29.480469 C 182.226562 29.835938 182.71875 30.238281 183.171875 30.691406 C 183.625 31.140625 184.03125 31.632812 184.390625 32.164062 C 184.746094 32.695312 185.046875 33.257812 185.296875 33.847656 C 185.542969 34.4375 185.730469 35.046875 185.859375 35.671875 C 185.988281 36.300781 186.054688 36.933594 186.058594 37.574219 Z M 117.675781 148.355469 C 117.425781 147.410156 117.546875 146.515625 118.039062 145.671875 C 118.0625 145.648438 118.074219 145.625 118.097656 145.597656 L 118.109375 145.5625 L 118.132812 145.527344 C 118.378906 145.144531 118.683594 144.824219 119.050781 144.5625 C 119.417969 144.300781 119.820312 144.117188 120.257812 144.007812 C 120.695312 143.902344 121.136719 143.878906 121.585938 143.945312 C 122.03125 144.007812 122.449219 144.152344 122.839844 144.378906 L 123.117188 144.546875 C 123.820312 145.042969 124.28125 145.703125 124.507812 146.53125 C 124.757812 147.476562 124.636719 148.371094 124.144531 149.214844 C 124.136719 149.25 124.121094 149.277344 124.097656 149.300781 L 124.070312 149.335938 L 124.046875 149.375 C 123.566406 150.132812 122.890625 150.628906 122.019531 150.863281 L 122.007812 150.875 C 121.070312 151.117188 120.179688 150.996094 119.339844 150.511719 L 119.136719 150.390625 C 118.394531 149.902344 117.914062 149.230469 117.6875 148.371094 Z M 115.648438 161.503906 C 115.765625 161.957031 115.792969 162.414062 115.730469 162.878906 C 115.671875 163.34375 115.523438 163.777344 115.289062 164.183594 C 115.054688 164.589844 114.75 164.933594 114.382812 165.21875 C 114.011719 165.503906 113.601562 165.710938 113.148438 165.832031 C 112.695312 165.953125 112.238281 165.984375 111.773438 165.921875 C 111.308594 165.863281 110.871094 165.714844 110.464844 165.480469 C 110.058594 165.246094 109.714844 164.941406 109.425781 164.566406 C 109.140625 164.195312 108.9375 163.78125 108.816406 163.328125 C 108.566406 162.382812 108.6875 161.488281 109.179688 160.644531 C 109.195312 160.617188 109.210938 160.589844 109.226562 160.558594 L 109.25 160.535156 L 109.273438 160.5 C 109.761719 159.738281 110.441406 159.238281 111.3125 159 C 112.253906 158.75 113.148438 158.867188 113.992188 159.347656 C 114.84375 159.835938 115.394531 160.554688 115.648438 161.503906 Z M 115.476562 133.46875 L 115.476562 133.492188 C 115.566406 133.832031 115.605469 134.171875 115.59375 134.523438 C 115.582031 134.871094 115.523438 135.210938 115.410156 135.542969 C 115.296875 135.871094 115.140625 136.179688 114.9375 136.464844 C 114.734375 136.75 114.496094 136.996094 114.21875 137.210938 C 113.941406 137.421875 113.640625 137.589844 113.316406 137.714844 C 112.988281 137.835938 112.652344 137.910156 112.304688 137.933594 C 111.957031 137.957031 111.613281 137.929688 111.273438 137.851562 C 110.933594 137.773438 110.613281 137.644531 110.3125 137.472656 L 110.105469 137.351562 C 109.367188 136.855469 108.886719 136.179688 108.65625 135.320312 C 108.398438 134.378906 108.511719 133.488281 109.007812 132.644531 C 109.242188 132.238281 109.542969 131.890625 109.914062 131.605469 C 110.285156 131.316406 110.699219 131.113281 111.152344 130.992188 C 111.605469 130.867188 112.0625 130.835938 112.527344 130.898438 C 112.992188 130.957031 113.429688 131.105469 113.835938 131.339844 C 113.859375 131.359375 113.882812 131.375 113.910156 131.386719 L 113.945312 131.414062 L 113.980469 131.4375 C 114.738281 131.925781 115.234375 132.601562 115.480469 133.46875 Z M 99.136719 160.015625 C 99.386719 160.957031 99.265625 161.847656 98.773438 162.6875 C 98.304688 163.546875 97.59375 164.097656 96.648438 164.34375 L 96.636719 164.355469 C 95.695312 164.601562 94.800781 164.480469 93.957031 163.992188 C 93.933594 163.980469 93.898438 163.957031 93.871094 163.945312 L 93.847656 163.921875 L 93.8125 163.898438 C 93.046875 163.414062 92.546875 162.730469 92.316406 161.851562 L 92.316406 161.839844 C 92.226562 161.503906 92.183594 161.160156 92.195312 160.808594 C 92.207031 160.460938 92.269531 160.117188 92.382812 159.789062 C 92.496094 159.457031 92.652344 159.148438 92.855469 158.863281 C 93.058594 158.578125 93.300781 158.332031 93.578125 158.117188 C 93.855469 157.90625 94.15625 157.738281 94.484375 157.617188 C 94.8125 157.492188 95.148438 157.421875 95.5 157.398438 C 95.847656 157.378906 96.191406 157.40625 96.53125 157.488281 C 96.871094 157.570312 97.191406 157.695312 97.492188 157.875 C 97.519531 157.886719 97.542969 157.910156 97.566406 157.921875 L 97.636719 157.96875 C 98.402344 158.457031 98.898438 159.140625 99.136719 160.015625 Z M 119.125 124.726562 C 118.871094 123.785156 118.992188 122.898438 119.484375 122.0625 L 119.617188 121.835938 C 120.101562 121.101562 120.765625 120.621094 121.609375 120.394531 L 121.632812 120.394531 C 122.5625 120.148438 123.445312 120.265625 124.277344 120.746094 L 124.566406 120.917969 C 124.929688 121.167969 125.234375 121.480469 125.480469 121.847656 C 125.726562 122.214844 125.898438 122.617188 125.992188 123.050781 C 126.085938 123.480469 126.101562 123.917969 126.03125 124.355469 C 125.960938 124.792969 125.816406 125.203125 125.59375 125.585938 C 125.582031 125.609375 125.558594 125.644531 125.546875 125.671875 L 125.519531 125.695312 L 125.496094 125.730469 C 125.253906 126.113281 124.945312 126.433594 124.578125 126.699219 C 124.210938 126.960938 123.808594 127.148438 123.367188 127.253906 C 122.929688 127.359375 122.484375 127.382812 122.035156 127.316406 C 121.589844 127.253906 121.167969 127.105469 120.777344 126.878906 C 120.746094 126.863281 120.71875 126.84375 120.691406 126.820312 L 120.65625 126.792969 L 120.621094 126.78125 C 119.859375 126.292969 119.367188 125.613281 119.136719 124.738281 Z M 107.679688 116.644531 C 107.4375 115.707031 107.558594 114.816406 108.042969 113.972656 C 108.066406 113.949219 108.078125 113.914062 108.105469 113.886719 L 108.128906 113.863281 L 108.140625 113.828125 C 108.625 113.066406 109.300781 112.566406 110.167969 112.328125 L 110.191406 112.328125 C 111.132812 112.066406 112.027344 112.183594 112.871094 112.679688 C 113.714844 113.171875 114.261719 113.886719 114.511719 114.832031 C 114.628906 115.285156 114.65625 115.742188 114.59375 116.203125 C 114.53125 116.667969 114.382812 117.101562 114.152344 117.503906 C 113.917969 117.910156 113.617188 118.253906 113.25 118.542969 C 112.882812 118.828125 112.476562 119.035156 112.027344 119.160156 L 112.015625 119.160156 C 111.5625 119.277344 111.105469 119.304688 110.644531 119.242188 C 110.183594 119.179688 109.75 119.03125 109.347656 118.796875 C 108.941406 118.566406 108.597656 118.265625 108.3125 117.898438 C 108.027344 117.527344 107.820312 117.121094 107.691406 116.671875 Z M 127.332031 133.117188 C 128.265625 132.863281 129.152344 132.980469 129.988281 133.46875 L 130.265625 133.640625 C 130.625 133.894531 130.929688 134.203125 131.175781 134.570312 C 131.421875 134.941406 131.59375 135.339844 131.6875 135.773438 C 131.785156 136.203125 131.800781 136.636719 131.734375 137.074219 C 131.667969 137.515625 131.523438 137.925781 131.300781 138.308594 C 131.289062 138.332031 131.265625 138.355469 131.253906 138.378906 L 131.230469 138.417969 L 131.207031 138.453125 C 130.714844 139.214844 130.035156 139.714844 129.164062 139.953125 L 129.15625 139.953125 C 128.222656 140.207031 127.335938 140.089844 126.5 139.601562 L 126.292969 139.480469 C 125.558594 138.988281 125.070312 138.316406 124.835938 137.460938 L 124.835938 137.4375 C 124.585938 136.496094 124.703125 135.605469 125.195312 134.765625 C 125.207031 134.734375 125.222656 134.707031 125.246094 134.679688 L 125.269531 134.65625 L 125.292969 134.621094 C 125.777344 133.855469 126.457031 133.355469 127.332031 133.117188 Z M 87.089844 150.667969 L 87.089844 150.691406 C 87.179688 151.027344 87.21875 151.371094 87.207031 151.71875 C 87.195312 152.070312 87.136719 152.410156 87.023438 152.738281 C 86.910156 153.070312 86.753906 153.378906 86.550781 153.664062 C 86.347656 153.945312 86.109375 154.195312 85.832031 154.40625 C 85.554688 154.621094 85.253906 154.789062 84.929688 154.910156 C 84.601562 155.035156 84.265625 155.109375 83.917969 155.132812 C 83.570312 155.15625 83.226562 155.128906 82.886719 155.050781 C 82.546875 154.96875 82.226562 154.84375 81.925781 154.667969 L 81.71875 154.546875 C 80.980469 154.050781 80.496094 153.375 80.257812 152.515625 C 80.078125 151.824219 80.101562 151.140625 80.332031 150.464844 C 80.566406 149.789062 80.964844 149.230469 81.53125 148.796875 C 82.097656 148.363281 82.738281 148.121094 83.449219 148.074219 C 84.164062 148.027344 84.828125 148.179688 85.449219 148.539062 C 85.472656 148.550781 85.496094 148.574219 85.519531 148.585938 L 85.558594 148.609375 L 85.59375 148.632812 C 86.347656 149.121094 86.847656 149.800781 87.089844 150.667969 Z M 102.46875 178.148438 C 103.230469 178.148438 103.996094 178.125 104.757812 178.082031 C 105.523438 178.039062 106.285156 177.972656 107.042969 177.882812 C 107.800781 177.796875 108.558594 177.6875 109.3125 177.554688 C 110.066406 177.425781 110.8125 177.273438 111.558594 177.097656 C 112.304688 176.925781 113.042969 176.730469 113.777344 176.511719 C 114.507812 176.296875 115.234375 176.058594 115.957031 175.800781 C 116.675781 175.542969 117.386719 175.265625 118.089844 174.964844 C 118.796875 174.667969 119.488281 174.347656 120.175781 174.007812 C 120.859375 173.671875 121.535156 173.3125 122.203125 172.933594 C 122.867188 172.558594 123.519531 172.160156 124.164062 171.746094 C 124.804688 171.332031 125.4375 170.898438 126.054688 170.445312 C 126.671875 169.996094 127.277344 169.527344 127.867188 169.039062 C 128.457031 168.554688 129.035156 168.050781 129.597656 167.53125 C 130.160156 167.015625 130.707031 166.480469 131.238281 165.929688 C 131.769531 165.378906 132.285156 164.8125 132.785156 164.234375 C 133.285156 163.652344 133.765625 163.058594 134.230469 162.449219 C 134.695312 161.84375 135.144531 161.222656 135.574219 160.589844 C 136.003906 159.957031 136.417969 159.308594 136.808594 158.652344 C 137.203125 157.996094 137.578125 157.328125 137.929688 156.648438 C 138.285156 155.972656 138.621094 155.285156 138.9375 154.585938 C 139.253906 153.886719 139.546875 153.179688 139.824219 152.46875 C 140.097656 151.753906 140.351562 151.03125 140.585938 150.300781 C 140.820312 149.570312 141.03125 148.835938 141.226562 148.09375 C 141.417969 147.351562 141.585938 146.605469 141.734375 145.855469 C 141.886719 145.105469 142.011719 144.347656 142.117188 143.589844 C 142.226562 142.832031 142.308594 142.070312 142.371094 141.308594 C 142.433594 140.542969 142.476562 139.777344 142.492188 139.011719 C 142.511719 138.246094 142.507812 137.480469 142.484375 136.714844 C 142.460938 135.949219 142.414062 135.1875 142.34375 134.421875 C 142.273438 133.660156 142.183594 132.898438 142.070312 132.140625 C 141.960938 131.382812 141.828125 130.628906 141.671875 129.878906 C 141.515625 129.128906 141.339844 128.386719 141.140625 127.644531 C 140.945312 126.90625 140.722656 126.171875 140.484375 125.445312 C 140.246094 124.714844 139.984375 123.996094 139.703125 123.285156 C 139.421875 122.570312 139.121094 121.867188 138.800781 121.171875 C 138.480469 120.476562 138.136719 119.792969 137.777344 119.117188 C 137.417969 118.441406 137.039062 117.777344 136.640625 117.121094 C 136.242188 116.46875 135.824219 115.828125 135.390625 115.195312 C 134.953125 114.566406 134.5 113.949219 134.03125 113.347656 C 133.5625 112.742188 133.074219 112.152344 132.570312 111.578125 C 132.066406 111 131.546875 110.441406 131.007812 109.894531 C 130.472656 109.347656 129.921875 108.816406 129.355469 108.300781 C 128.789062 107.789062 128.207031 107.289062 127.613281 106.808594 C 127.019531 106.328125 126.410156 105.863281 125.789062 105.417969 C 125.167969 104.972656 124.535156 104.542969 123.886719 104.132812 C 123.242188 103.722656 122.585938 103.332031 121.917969 102.960938 C 121.246094 102.589844 120.570312 102.238281 119.882812 101.902344 C 119.191406 101.570312 118.496094 101.257812 117.789062 100.964844 C 117.082031 100.671875 116.367188 100.398438 115.648438 100.144531 C 114.925781 99.894531 114.195312 99.664062 113.460938 99.453125 C 112.726562 99.242188 111.984375 99.050781 111.238281 98.886719 C 110.492188 98.71875 109.742188 98.570312 108.988281 98.445312 C 108.234375 98.320312 107.476562 98.21875 106.71875 98.136719 C 105.957031 98.054688 105.195312 97.996094 104.429688 97.957031 C 103.667969 97.921875 102.902344 97.90625 102.140625 97.910156 C 101.375 97.917969 100.609375 97.945312 99.847656 97.996094 C 99.085938 98.046875 98.324219 98.117188 97.566406 98.210938 C 96.808594 98.304688 96.050781 98.421875 95.300781 98.558594 C 94.546875 98.695312 93.800781 98.855469 93.054688 99.035156 C 92.3125 99.214844 91.574219 99.414062 90.84375 99.636719 C 90.113281 99.859375 89.386719 100.101562 88.671875 100.367188 C 87.953125 100.632812 87.242188 100.914062 86.542969 101.21875 C 85.839844 101.523438 85.148438 101.847656 84.464844 102.195312 C 83.78125 102.539062 83.109375 102.902344 82.449219 103.285156 C 81.785156 103.667969 81.132812 104.070312 80.496094 104.488281 C 79.855469 104.910156 79.230469 105.347656 78.617188 105.804688 C 78 106.261719 77.402344 106.734375 76.8125 107.226562 C 76.226562 107.714844 75.65625 108.222656 75.097656 108.746094 C 74.539062 109.269531 73.996094 109.808594 73.46875 110.367188 C 72.941406 110.921875 72.429688 111.488281 71.9375 112.074219 C 71.441406 112.65625 70.964844 113.253906 70.503906 113.867188 C 70.042969 114.480469 69.601562 115.101562 69.175781 115.738281 C 68.75 116.375 68.34375 117.027344 67.957031 117.6875 C 67.570312 118.347656 67.199219 119.015625 66.851562 119.699219 C 66.503906 120.378906 66.171875 121.070312 65.863281 121.769531 C 65.554688 122.472656 65.261719 123.179688 64.996094 123.898438 C 64.726562 124.613281 64.476562 125.335938 64.25 126.070312 C 64.019531 126.800781 63.8125 127.539062 63.628906 128.28125 C 63.441406 129.023438 63.277344 129.769531 63.136719 130.523438 C 62.992188 131.277344 62.871094 132.03125 62.769531 132.792969 C 62.671875 133.550781 62.59375 134.3125 62.535156 135.078125 C 62.480469 135.839844 62.445312 136.605469 62.433594 137.371094 C 62.421875 138.136719 62.429688 138.902344 62.460938 139.667969 C 62.492188 140.433594 62.546875 141.199219 62.621094 141.960938 C 62.695312 142.722656 62.792969 143.484375 62.910156 144.238281 C 63.027344 144.996094 63.167969 145.75 63.332031 146.496094 C 63.492188 147.246094 63.675781 147.992188 63.878906 148.730469 C 64.082031 149.46875 64.308594 150.199219 64.554688 150.925781 C 64.796875 151.648438 65.066406 152.367188 65.351562 153.078125 C 65.636719 153.789062 65.945312 154.488281 66.273438 155.179688 C 66.597656 155.875 66.945312 156.554688 67.3125 157.230469 C 67.675781 157.902344 68.0625 158.5625 68.464844 159.214844 C 68.871094 159.863281 69.292969 160.503906 69.730469 161.128906 C 70.171875 161.753906 70.628906 162.367188 71.105469 162.96875 C 71.582031 163.570312 72.074219 164.15625 72.582031 164.726562 C 73.089844 165.296875 73.613281 165.855469 74.15625 166.398438 C 76.011719 168.265625 78.03125 169.933594 80.214844 171.398438 C 82.398438 172.867188 84.707031 174.105469 87.136719 175.113281 C 89.566406 176.121094 92.070312 176.882812 94.652344 177.390625 C 97.230469 177.902344 99.835938 178.152344 102.46875 178.148438 Z M 78.371094 113.886719 C 78.832031 113.421875 79.304688 112.976562 79.789062 112.542969 C 80.273438 112.109375 80.773438 111.6875 81.28125 111.285156 C 81.792969 110.878906 82.3125 110.488281 82.84375 110.113281 C 83.378906 109.738281 83.917969 109.378906 84.472656 109.03125 C 85.023438 108.6875 85.585938 108.359375 86.15625 108.046875 C 86.730469 107.734375 87.308594 107.441406 87.898438 107.160156 C 88.484375 106.882812 89.082031 106.621094 89.683594 106.378906 C 90.289062 106.132812 90.898438 105.90625 91.511719 105.695312 C 92.128906 105.484375 92.75 105.292969 93.378906 105.121094 C 94.003906 104.945312 94.636719 104.789062 95.273438 104.652344 C 95.910156 104.515625 96.546875 104.394531 97.191406 104.296875 C 97.835938 104.195312 98.480469 104.113281 99.125 104.046875 C 99.773438 103.984375 100.421875 103.9375 101.074219 103.910156 C 101.722656 103.886719 102.375 103.878906 103.023438 103.886719 C 103.675781 103.898438 104.324219 103.929688 104.972656 103.976562 C 105.621094 104.023438 106.269531 104.089844 106.914062 104.175781 C 107.558594 104.261719 108.203125 104.363281 108.839844 104.484375 C 109.480469 104.609375 110.117188 104.75 110.746094 104.90625 C 111.378906 105.066406 112.003906 105.242188 112.625 105.4375 C 113.246094 105.628906 113.863281 105.84375 114.472656 106.070312 C 115.078125 106.300781 115.683594 106.546875 116.277344 106.8125 C 116.871094 107.078125 117.457031 107.359375 118.039062 107.65625 C 118.617188 107.953125 119.1875 108.269531 119.746094 108.597656 C 120.308594 108.929688 120.859375 109.277344 121.398438 109.636719 C 121.941406 110 122.472656 110.378906 122.988281 110.769531 C 123.507812 111.164062 124.015625 111.570312 124.515625 111.992188 C 125.011719 112.414062 125.492188 112.847656 125.964844 113.296875 C 126.4375 113.75 126.894531 114.210938 127.339844 114.6875 C 127.785156 115.164062 128.214844 115.652344 128.632812 116.152344 C 129.046875 116.652344 129.449219 117.164062 129.839844 117.6875 C 130.226562 118.210938 130.597656 118.746094 130.957031 119.289062 C 131.3125 119.835938 131.652344 120.390625 131.980469 120.957031 C 132.304688 121.519531 132.613281 122.09375 132.90625 122.675781 C 133.199219 123.257812 133.472656 123.847656 133.734375 124.445312 C 133.992188 125.046875 134.234375 125.648438 134.457031 126.261719 C 134.683594 126.875 134.886719 127.492188 135.078125 128.117188 C 135.265625 128.738281 135.4375 129.367188 135.589844 130.003906 C 135.742188 130.636719 135.878906 131.273438 135.996094 131.914062 C 136.109375 132.558594 136.207031 133.203125 136.289062 133.847656 C 136.367188 134.496094 136.429688 135.144531 136.472656 135.792969 C 136.515625 136.445312 136.539062 137.097656 136.542969 137.75 C 136.550781 138.402344 136.535156 139.050781 136.503906 139.703125 C 136.472656 140.355469 136.421875 141.003906 136.351562 141.652344 C 136.28125 142.300781 136.195312 142.945312 136.089844 143.589844 C 135.984375 144.234375 135.859375 144.875 135.71875 145.507812 C 135.574219 146.144531 135.414062 146.777344 135.234375 147.402344 C 135.054688 148.03125 134.859375 148.652344 134.644531 149.269531 C 134.429688 149.882812 134.199219 150.492188 133.949219 151.09375 C 133.703125 151.695312 133.4375 152.292969 133.152344 152.878906 C 132.871094 153.464844 132.570312 154.042969 132.253906 154.613281 C 131.9375 155.183594 131.605469 155.746094 131.257812 156.296875 C 130.910156 156.847656 130.546875 157.386719 130.167969 157.917969 C 129.789062 158.445312 129.394531 158.964844 128.984375 159.472656 C 128.578125 159.980469 128.152344 160.476562 127.71875 160.957031 C 127.28125 161.441406 126.828125 161.910156 126.367188 162.367188 C 125.902344 162.828125 125.425781 163.269531 124.9375 163.699219 C 124.445312 164.128906 123.945312 164.546875 123.433594 164.945312 C 122.921875 165.347656 122.394531 165.734375 121.859375 166.105469 C 121.324219 166.476562 120.78125 166.832031 120.226562 167.171875 C 119.671875 167.511719 119.105469 167.832031 118.53125 168.140625 C 117.957031 168.449219 117.375 168.738281 116.785156 169.011719 C 116.195312 169.289062 115.597656 169.542969 114.992188 169.785156 C 114.386719 170.023438 113.773438 170.246094 113.15625 170.449219 C 112.539062 170.652344 111.917969 170.839844 111.289062 171.007812 C 110.660156 171.179688 110.027344 171.328125 109.390625 171.460938 C 108.753906 171.59375 108.113281 171.707031 107.46875 171.804688 C 106.824219 171.898438 106.179688 171.976562 105.53125 172.035156 C 104.882812 172.09375 104.234375 172.132812 103.582031 172.15625 C 102.933594 172.175781 102.28125 172.179688 101.632812 172.164062 C 100.980469 172.148438 100.332031 172.113281 99.683594 172.058594 C 99.035156 172.003906 98.386719 171.933594 97.742188 171.84375 C 97.097656 171.753906 96.457031 171.644531 95.820312 171.515625 C 95.179688 171.390625 94.546875 171.246094 93.917969 171.082031 C 93.289062 170.917969 92.664062 170.734375 92.042969 170.535156 C 91.425781 170.335938 90.8125 170.121094 90.203125 169.886719 C 89.597656 169.652344 88.996094 169.398438 88.402344 169.128906 C 87.8125 168.859375 87.226562 168.574219 86.648438 168.273438 C 86.074219 167.96875 85.507812 167.652344 84.949219 167.316406 C 84.390625 166.980469 83.84375 166.628906 83.304688 166.261719 C 82.765625 165.894531 82.238281 165.515625 81.722656 165.117188 C 81.207031 164.71875 80.703125 164.308594 80.210938 163.882812 C 79.71875 163.457031 79.238281 163.019531 78.769531 162.5625 C 78.300781 162.109375 77.847656 161.644531 77.40625 161.164062 C 76.964844 160.683594 76.539062 160.195312 76.125 159.691406 C 75.714844 159.1875 75.316406 158.671875 74.929688 158.144531 C 74.546875 157.617188 74.179688 157.078125 73.828125 156.53125 C 73.476562 155.984375 73.136719 155.425781 72.816406 154.859375 C 72.496094 154.289062 72.191406 153.714844 71.90625 153.128906 C 71.617188 152.546875 71.347656 151.953125 71.09375 151.351562 C 70.839844 150.753906 70.601562 150.144531 70.382812 149.53125 C 70.164062 148.917969 69.960938 148.296875 69.777344 147.671875 C 69.59375 147.046875 69.429688 146.417969 69.28125 145.78125 C 69.132812 145.148438 69.003906 144.507812 68.890625 143.867188 C 68.78125 143.222656 68.6875 142.578125 68.613281 141.929688 C 68.539062 141.28125 68.484375 140.632812 68.445312 139.984375 C 68.410156 139.332031 68.390625 138.679688 68.390625 138.027344 C 68.382812 135.785156 68.597656 133.5625 69.03125 131.363281 C 69.464844 129.164062 70.109375 127.027344 70.96875 124.953125 C 71.824219 122.882812 72.875 120.914062 74.121094 119.050781 C 75.367188 117.1875 76.785156 115.464844 78.371094 113.886719 Z M 88.972656 133.167969 C 88.722656 132.226562 88.84375 131.335938 89.335938 130.492188 C 89.820312 129.644531 90.53125 129.085938 91.472656 128.824219 C 92.414062 128.574219 93.308594 128.695312 94.152344 129.1875 C 94.175781 129.199219 94.210938 129.222656 94.238281 129.234375 L 94.273438 129.261719 L 94.296875 129.285156 C 95.058594 129.769531 95.554688 130.445312 95.792969 131.316406 L 95.804688 131.339844 C 96.054688 132.28125 95.933594 133.171875 95.445312 134.011719 C 94.960938 134.859375 94.246094 135.414062 93.308594 135.671875 L 93.296875 135.671875 C 92.363281 135.925781 91.476562 135.808594 90.640625 135.320312 L 90.433594 135.199219 C 89.691406 134.703125 89.207031 134.027344 88.972656 133.167969 Z M 107.210938 145.839844 C 108.152344 145.589844 109.039062 145.710938 109.878906 146.203125 C 110.285156 146.433594 110.632812 146.734375 110.917969 147.105469 C 111.203125 147.476562 111.410156 147.886719 111.53125 148.339844 C 111.652344 148.789062 111.683594 149.25 111.625 149.710938 C 111.5625 150.175781 111.417969 150.613281 111.183594 151.015625 L 111.027344 151.257812 C 110.777344 151.628906 110.472656 151.9375 110.105469 152.191406 C 109.738281 152.441406 109.339844 152.617188 108.90625 152.71875 C 108.472656 152.816406 108.039062 152.832031 107.597656 152.765625 C 107.160156 152.695312 106.75 152.546875 106.367188 152.324219 L 106.160156 152.203125 C 105.789062 151.953125 105.476562 151.648438 105.222656 151.277344 C 104.964844 150.910156 104.789062 150.507812 104.683594 150.074219 C 104.582031 149.636719 104.566406 149.199219 104.628906 148.753906 C 104.695312 148.3125 104.839844 147.898438 105.0625 147.507812 C 105.546875 146.65625 106.265625 146.097656 107.210938 145.839844 Z M 78.871094 143.445312 C 78.53125 143.535156 78.191406 143.574219 77.839844 143.5625 C 77.492188 143.550781 77.152344 143.484375 76.820312 143.371094 C 76.488281 143.257812 76.183594 143.101562 75.898438 142.894531 C 75.617188 142.691406 75.367188 142.449219 75.15625 142.171875 C 74.941406 141.894531 74.777344 141.589844 74.652344 141.265625 C 74.53125 140.9375 74.457031 140.597656 74.433594 140.246094 C 74.410156 139.898438 74.441406 139.554688 74.519531 139.210938 C 74.597656 138.871094 74.726562 138.550781 74.898438 138.246094 C 74.921875 138.226562 74.9375 138.199219 74.949219 138.171875 L 74.996094 138.101562 C 75.242188 137.71875 75.546875 137.398438 75.914062 137.136719 C 76.28125 136.875 76.683594 136.691406 77.121094 136.582031 C 77.558594 136.476562 78 136.453125 78.449219 136.519531 C 78.894531 136.582031 79.3125 136.726562 79.703125 136.953125 L 79.980469 137.121094 C 80.679688 137.613281 81.140625 138.269531 81.371094 139.09375 L 81.371094 139.117188 C 81.617188 140.050781 81.5 140.933594 81.019531 141.765625 L 80.863281 142.023438 C 80.378906 142.75 79.714844 143.222656 78.871094 143.445312 Z M 79.726562 125.027344 C 79.472656 124.089844 79.589844 123.203125 80.078125 122.367188 L 80.210938 122.136719 C 80.695312 121.40625 81.355469 120.925781 82.203125 120.699219 L 82.226562 120.699219 C 83.167969 120.449219 84.0625 120.570312 84.90625 121.058594 C 84.933594 121.074219 84.957031 121.089844 84.980469 121.109375 L 85.050781 121.15625 C 85.433594 121.402344 85.753906 121.707031 86.019531 122.078125 C 86.28125 122.445312 86.464844 122.851562 86.570312 123.292969 C 86.675781 123.734375 86.695312 124.175781 86.628906 124.625 C 86.5625 125.074219 86.414062 125.496094 86.183594 125.886719 C 86.175781 125.917969 86.15625 125.945312 86.136719 125.972656 L 86.113281 126.007812 L 86.089844 126.03125 C 85.609375 126.796875 84.929688 127.296875 84.0625 127.53125 L 84.050781 127.53125 C 83.109375 127.785156 82.222656 127.667969 81.378906 127.179688 L 81.175781 127.058594 C 80.433594 126.570312 79.953125 125.898438 79.726562 125.039062 Z M 89.925781 115.265625 C 89.675781 114.320312 89.796875 113.425781 90.289062 112.582031 C 90.296875 112.550781 90.3125 112.523438 90.335938 112.496094 L 90.363281 112.460938 L 90.386719 112.425781 C 90.628906 112.042969 90.933594 111.722656 91.296875 111.460938 C 91.664062 111.195312 92.066406 111.011719 92.503906 110.90625 C 92.941406 110.796875 93.382812 110.777344 93.828125 110.839844 C 94.273438 110.90625 94.691406 111.050781 95.082031 111.277344 L 95.359375 111.445312 C 96.058594 111.933594 96.523438 112.59375 96.746094 113.417969 L 96.757812 113.441406 C 97.011719 114.378906 96.890625 115.265625 96.398438 116.101562 L 96.25 116.359375 C 95.761719 117.078125 95.097656 117.550781 94.261719 117.773438 L 94.25 117.773438 C 93.308594 118.023438 92.417969 117.902344 91.582031 117.410156 C 90.734375 116.925781 90.183594 116.210938 89.925781 115.265625 Z M 99.691406 125.65625 C 99.441406 124.714844 99.5625 123.824219 100.054688 122.984375 C 100.539062 122.132812 101.25 121.578125 102.191406 121.316406 C 103.132812 121.0625 104.027344 121.183594 104.871094 121.675781 C 104.898438 121.691406 104.929688 121.707031 104.953125 121.726562 L 104.992188 121.75 L 105.027344 121.773438 C 105.785156 122.257812 106.277344 122.9375 106.511719 123.804688 L 106.523438 123.828125 C 106.640625 124.28125 106.667969 124.742188 106.605469 125.203125 C 106.539062 125.667969 106.390625 126.101562 106.160156 126.507812 C 105.925781 126.914062 105.625 127.257812 105.253906 127.542969 C 104.886719 127.828125 104.476562 128.035156 104.023438 128.160156 L 104.011719 128.160156 C 103.078125 128.414062 102.195312 128.296875 101.359375 127.808594 L 101.152344 127.6875 C 100.410156 127.195312 99.921875 126.515625 99.691406 125.65625 Z M 97.53125 142.128906 C 97.9375 142.359375 98.28125 142.660156 98.566406 143.03125 C 98.855469 143.402344 99.058594 143.8125 99.179688 144.261719 C 99.300781 144.714844 99.332031 145.171875 99.273438 145.636719 C 99.214844 146.101562 99.066406 146.535156 98.835938 146.941406 L 98.679688 147.195312 C 98.429688 147.5625 98.121094 147.871094 97.753906 148.121094 C 97.386719 148.371094 96.988281 148.546875 96.554688 148.644531 C 96.125 148.742188 95.691406 148.757812 95.25 148.691406 C 94.8125 148.625 94.402344 148.484375 94.019531 148.261719 L 93.8125 148.140625 C 93.074219 147.652344 92.589844 146.980469 92.367188 146.121094 L 92.355469 146.109375 C 92.109375 145.167969 92.230469 144.277344 92.714844 143.4375 C 93.199219 142.582031 93.914062 142.027344 94.863281 141.777344 C 95.800781 141.53125 96.6875 141.648438 97.53125 142.128906 Z M 97.53125 142.128906 "/></g></g></svg>