<svg xmlns="http://www.w3.org/2000/svg" xmlns:xlink="http://www.w3.org/1999/xlink" width="300" zoomAndPan="magnify" viewBox="0 0 224.87999 225" height="300" preserveAspectRatio="xMidYMid meet" version="1.2"><defs><clipPath id="f084f31749"><path d="M 20 17 L 192 17 L 192 206.417969 L 20 206.417969 Z M 20 17 "/></clipPath><clipPath id="daa7099dc5"><path d="M 116 8.523438 L 192 8.523438 L 192 84 L 116 84 Z M 116 8.523438 "/></clipPath></defs><g id="72fe3f8213"><g clip-rule="nonzero" clip-path="url(#f084f31749)"><path style=" stroke:none;fill-rule:nonzero;fill:#000000;fill-opacity:1;" d="M 36.667969 143.601562 C 35.171875 147.242188 34.355469 151.1875 34.355469 155.238281 C 34.355469 155.796875 34.375 156.359375 34.488281 156.917969 C 34.800781 158.515625 36.1875 159.5 37.75 159.5 C 37.996094 159.5 38.242188 159.476562 38.492188 159.425781 C 40.339844 159.0625 41.542969 157.085938 41.179688 155.238281 C 41.179688 146.730469 45.753906 138.816406 53.117188 134.585938 C 54.75 133.648438 55.316406 131.5625 54.375 129.929688 C 53.4375 128.296875 51.351562 127.730469 49.71875 128.667969 C 45.84375 130.894531 42.613281 133.941406 40.097656 137.476562 C 32.824219 135.546875 27.53125 128.875 27.53125 121.117188 C 27.53125 111.710938 35.1875 104.058594 44.59375 104.058594 C 46.476562 104.058594 48.003906 102.53125 48.003906 100.644531 C 48.003906 98.761719 46.476562 97.234375 44.59375 97.234375 C 43.585938 97.234375 42.628906 97.410156 41.652344 97.53125 C 41.367188 96.308594 41.179688 95.066406 41.179688 93.824219 C 41.179688 89.082031 43.207031 84.699219 46.59375 81.480469 C 50.976562 86.882812 57.585938 90.410156 65.0625 90.410156 C 66.949219 90.410156 68.476562 88.882812 68.476562 87 C 68.476562 85.113281 66.949219 83.585938 65.0625 83.585938 C 55.65625 83.585938 48.003906 75.933594 48.003906 66.527344 C 48.003906 60.996094 50.613281 56.007812 54.828125 52.882812 C 54.832031 54.765625 56.355469 56.289062 58.242188 56.289062 C 60.125 56.289062 61.652344 54.765625 61.652344 52.878906 C 61.652344 37.1875 74.417969 24.421875 90.109375 24.421875 C 94.402344 24.421875 98.585938 25.472656 102.597656 27.429688 L 102.597656 196.183594 C 102.597656 196.523438 102.695312 196.832031 102.789062 197.144531 C 99.550781 198.722656 95.992188 199.59375 92.359375 199.59375 C 79.191406 199.59375 68.476562 188.878906 68.476562 175.710938 C 68.476562 173.824219 66.949219 172.296875 65.0625 172.296875 C 63.179688 172.296875 61.652344 173.824219 61.652344 175.710938 C 61.652344 176.808594 61.863281 177.847656 61.976562 178.914062 C 58.84375 178.5 55.816406 177.460938 53.089844 175.847656 C 51.464844 174.894531 49.378906 175.421875 48.414062 177.042969 C 47.453125 178.660156 47.988281 180.757812 49.609375 181.71875 C 53.828125 184.21875 58.609375 185.589844 63.507812 185.839844 C 67.714844 197.785156 78.996094 206.417969 92.359375 206.417969 C 97.117188 206.417969 101.777344 205.25 106.007812 203.148438 C 110.238281 205.25 114.898438 206.417969 119.65625 206.417969 C 133.039062 206.417969 144.332031 197.757812 148.527344 185.785156 C 164.714844 184.949219 177.660156 171.632812 177.660156 155.238281 C 177.660156 151.1875 176.84375 147.246094 175.347656 143.601562 C 184.695312 140.351562 191.308594 131.382812 191.308594 121.117188 C 191.308594 111.335938 185.378906 102.925781 176.941406 99.238281 C 177.367188 97.453125 177.660156 95.640625 177.660156 93.824219 C 177.660156 91.820312 177.441406 90.132812 176.984375 88.515625 C 176.464844 86.703125 174.558594 85.6875 172.761719 86.171875 C 170.953125 86.691406 169.902344 88.582031 170.417969 90.394531 C 170.703125 91.382812 170.835938 92.472656 170.835938 93.824219 C 170.835938 95.066406 170.648438 96.308594 170.363281 97.53125 C 169.390625 97.410156 168.429688 97.234375 167.421875 97.234375 C 165.539062 97.234375 164.011719 98.761719 164.011719 100.644531 C 164.011719 102.53125 165.539062 104.058594 167.421875 104.058594 C 176.828125 104.058594 184.484375 111.710938 184.484375 121.117188 C 184.484375 128.875 179.195312 135.542969 171.925781 137.476562 C 169.410156 133.933594 166.179688 130.878906 162.308594 128.640625 C 160.667969 127.6875 158.582031 128.25 157.648438 129.886719 C 156.699219 131.515625 157.261719 133.601562 158.890625 134.546875 C 166.257812 138.808594 170.835938 146.734375 170.835938 155.238281 C 170.835938 167.34375 161.746094 177.269531 150.050781 178.808594 C 150.15625 177.773438 150.363281 176.769531 150.363281 175.710938 C 150.363281 173.824219 148.835938 172.296875 146.953125 172.296875 C 145.066406 172.296875 143.539062 173.824219 143.539062 175.710938 C 143.539062 188.878906 132.824219 199.59375 119.65625 199.59375 C 116.023438 199.59375 112.464844 198.722656 109.226562 197.144531 C 109.320312 196.832031 109.417969 196.523438 109.417969 196.183594 L 109.417969 27.398438 C 110.6875 26.769531 111.945312 26.21875 113.167969 25.835938 C 114.96875 25.273438 115.96875 23.359375 115.402344 21.5625 C 114.839844 19.765625 112.9375 18.753906 111.128906 19.324219 C 109.4375 19.855469 107.71875 20.5625 105.996094 21.4375 C 100.933594 18.890625 95.59375 17.601562 90.109375 17.601562 C 73.53125 17.601562 59.683594 29.132812 55.921875 44.566406 C 47.050781 48.191406 41.179688 56.738281 41.179688 66.527344 C 41.179688 69.757812 41.839844 72.835938 43.007812 75.648438 C 37.628906 80.191406 34.355469 86.707031 34.355469 93.824219 C 34.355469 95.640625 34.648438 97.453125 35.074219 99.238281 C 26.636719 102.925781 20.707031 111.335938 20.707031 121.117188 C 20.707031 131.382812 27.324219 140.351562 36.667969 143.601562 Z M 36.667969 143.601562 "/></g><path style=" stroke:none;fill-rule:nonzero;fill:#000000;fill-opacity:1;" d="M 75.300781 148.414062 C 75.300781 150.300781 76.828125 151.824219 78.710938 151.824219 C 84.355469 151.824219 88.949219 156.417969 88.949219 162.0625 C 88.949219 163.949219 90.472656 165.472656 92.359375 165.472656 C 94.246094 165.472656 95.773438 163.949219 95.773438 162.0625 C 95.773438 152.65625 88.117188 145.003906 78.710938 145.003906 C 76.828125 145.003906 75.300781 146.527344 75.300781 148.414062 Z M 75.300781 148.414062 "/><path style=" stroke:none;fill-rule:nonzero;fill:#000000;fill-opacity:1;" d="M 69.476562 102.230469 C 66.253906 105.453125 64.476562 109.734375 64.476562 114.292969 C 64.476562 116.179688 66.003906 117.707031 67.890625 117.707031 C 69.777344 117.707031 71.300781 116.179688 71.300781 114.292969 C 71.300781 111.558594 72.363281 108.988281 74.300781 107.0625 C 75.632812 105.726562 75.632812 103.570312 74.304688 102.234375 C 72.972656 100.898438 70.808594 100.902344 69.476562 102.230469 Z M 69.476562 102.230469 "/><path style=" stroke:none;fill-rule:nonzero;fill:#000000;fill-opacity:1;" d="M 137.710938 102.234375 C 136.382812 103.570312 136.382812 105.726562 137.714844 107.0625 C 139.652344 108.988281 140.714844 111.558594 140.714844 114.292969 C 140.714844 116.179688 142.238281 117.707031 144.125 117.707031 C 146.011719 117.707031 147.539062 116.179688 147.539062 114.292969 C 147.539062 109.734375 145.761719 105.453125 142.539062 102.230469 C 141.207031 100.902344 139.042969 100.898438 137.710938 102.234375 Z M 137.710938 102.234375 "/><path style=" stroke:none;fill-rule:nonzero;fill:#000000;fill-opacity:1;" d="M 119.65625 165.472656 C 121.542969 165.472656 123.066406 163.949219 123.066406 162.0625 C 123.066406 156.417969 127.660156 151.824219 133.304688 151.824219 C 135.191406 151.824219 136.714844 150.300781 136.714844 148.414062 C 136.714844 146.527344 135.191406 145.003906 133.304688 145.003906 C 123.898438 145.003906 116.242188 152.65625 116.242188 162.0625 C 116.242188 163.949219 117.769531 165.472656 119.65625 165.472656 Z M 119.65625 165.472656 "/><g clip-rule="nonzero" clip-path="url(#daa7099dc5)"><path style=" stroke:none;fill-rule:nonzero;fill:#000000;fill-opacity:1;" d="M 153.777344 83.585938 C 174.46875 83.585938 191.308594 66.75 191.308594 46.054688 C 191.308594 25.359375 174.46875 8.523438 153.777344 8.523438 C 133.082031 8.523438 116.242188 25.359375 116.242188 46.054688 C 116.242188 66.75 133.082031 83.585938 153.777344 83.585938 Z M 153.777344 15.347656 C 170.707031 15.347656 184.484375 29.121094 184.484375 46.054688 C 184.484375 62.988281 170.707031 76.761719 153.777344 76.761719 C 136.84375 76.761719 123.066406 62.988281 123.066406 46.054688 C 123.066406 29.121094 136.84375 15.347656 153.777344 15.347656 Z M 153.777344 15.347656 "/></g><path style=" stroke:none;fill-rule:nonzero;fill:#000000;fill-opacity:1;" d="M 143.539062 56.289062 L 143.539062 66.527344 C 143.539062 68.414062 145.066406 69.9375 146.953125 69.9375 L 160.597656 69.9375 C 162.484375 69.9375 164.011719 68.414062 164.011719 66.527344 L 164.011719 56.289062 L 174.246094 56.289062 C 176.132812 56.289062 177.660156 54.765625 177.660156 52.878906 L 177.660156 39.230469 C 177.660156 37.34375 176.132812 35.820312 174.246094 35.820312 L 164.011719 35.820312 L 164.011719 25.582031 C 164.011719 23.695312 162.484375 22.171875 160.597656 22.171875 L 146.953125 22.171875 C 145.066406 22.171875 143.539062 23.695312 143.539062 25.582031 L 143.539062 35.820312 L 133.304688 35.820312 C 131.417969 35.820312 129.890625 37.34375 129.890625 39.230469 L 129.890625 52.878906 C 129.890625 54.765625 131.417969 56.289062 133.304688 56.289062 Z M 136.714844 42.644531 L 146.953125 42.644531 C 148.835938 42.644531 150.363281 41.117188 150.363281 39.230469 L 150.363281 28.996094 L 157.1875 28.996094 L 157.1875 39.230469 C 157.1875 41.117188 158.714844 42.644531 160.597656 42.644531 L 170.835938 42.644531 L 170.835938 49.46875 L 160.597656 49.46875 C 158.714844 49.46875 157.1875 50.992188 157.1875 52.878906 L 157.1875 63.113281 L 150.363281 63.113281 L 150.363281 52.878906 C 150.363281 50.992188 148.835938 49.46875 146.953125 49.46875 L 136.714844 49.46875 Z M 136.714844 42.644531 "/><path style=" stroke:none;fill-rule:nonzero;fill:#000000;fill-opacity:1;" d="M 95.773438 56.289062 C 95.773438 54.40625 94.246094 52.878906 92.359375 52.878906 C 90.472656 52.878906 88.949219 54.40625 88.949219 56.289062 C 88.949219 60.050781 85.886719 63.113281 82.125 63.113281 C 80.238281 63.113281 78.710938 64.640625 78.710938 66.527344 C 78.710938 68.414062 80.238281 69.9375 82.125 69.9375 C 89.652344 69.9375 95.773438 63.816406 95.773438 56.289062 Z M 95.773438 56.289062 "/><path style=" stroke:none;fill-rule:nonzero;fill:#000000;fill-opacity:1;" d="M 44.921875 168.898438 C 44.921875 169.351562 44.832031 169.789062 44.660156 170.207031 C 44.488281 170.625 44.242188 170.992188 43.921875 171.3125 C 43.601562 171.632812 43.230469 171.878906 42.8125 172.050781 C 42.394531 172.226562 41.960938 172.3125 41.507812 172.3125 C 41.054688 172.3125 40.621094 172.226562 40.203125 172.050781 C 39.785156 171.878906 39.414062 171.632812 39.09375 171.3125 C 38.777344 170.992188 38.527344 170.625 38.355469 170.207031 C 38.183594 169.789062 38.097656 169.351562 38.097656 168.898438 C 38.097656 168.445312 38.183594 168.011719 38.355469 167.59375 C 38.527344 167.175781 38.777344 166.808594 39.09375 166.488281 C 39.414062 166.167969 39.785156 165.921875 40.203125 165.746094 C 40.621094 165.574219 41.054688 165.488281 41.507812 165.488281 C 41.960938 165.488281 42.394531 165.574219 42.8125 165.746094 C 43.230469 165.921875 43.601562 166.167969 43.921875 166.488281 C 44.242188 166.808594 44.488281 167.175781 44.660156 167.59375 C 44.832031 168.011719 44.921875 168.445312 44.921875 168.898438 Z M 44.921875 168.898438 "/></g></svg>