<svg xmlns="http://www.w3.org/2000/svg" xmlns:xlink="http://www.w3.org/1999/xlink" width="300" zoomAndPan="magnify" viewBox="0 0 224.87999 225" height="300" preserveAspectRatio="xMidYMid meet" version="1.2"><defs><clipPath id="fe596b7863"><path d="M 9.394531 5 L 211.789062 5 L 211.789062 216.128906 L 9.394531 216.128906 Z M 9.394531 5 "/></clipPath></defs><g id="fdca48b4bf"><g clip-rule="nonzero" clip-path="url(#fe596b7863)"><path style=" stroke:none;fill-rule:nonzero;fill:#000000;fill-opacity:1;" d="M 208.582031 91.058594 C 209.210938 89.035156 209.523438 86.933594 209.523438 84.796875 C 209.523438 79.058594 207.15625 73.554688 203.078125 69.589844 C 205.609375 66.144531 206.976562 62 206.976562 57.660156 C 206.976562 46.511719 197.894531 37.4375 186.730469 37.4375 C 173.976562 37.4375 165.355469 49.246094 163.109375 61.339844 C 154.664062 65.980469 147.570312 73.390625 143.839844 81.492188 C 141.722656 82.75 139.683594 84.25 137.695312 86 C 137.964844 84.738281 138.234375 83.425781 138.527344 82.058594 C 142.921875 61.082031 150.289062 25.976562 158.839844 8.808594 C 159.339844 7.808594 159.144531 6.601562 158.367188 5.804688 C 157.585938 5 156.378906 4.785156 155.367188 5.261719 L 142.730469 11.164062 C 141.273438 11.839844 140.761719 11.878906 139.5 11.394531 C 138.320312 10.9375 137.117188 10.269531 135.847656 9.554688 C 132.726562 7.804688 129.191406 5.820312 125.117188 6.910156 C 121.664062 7.835938 119.066406 12.140625 115.207031 19.121094 C 113.835938 21.601562 111.875 25.140625 110.589844 26.605469 C 109.304688 25.140625 107.347656 21.601562 105.972656 19.121094 C 102.117188 12.140625 99.519531 7.835938 96.066406 6.910156 C 91.992188 5.820312 88.453125 7.804688 85.335938 9.554688 C 84.066406 10.269531 82.863281 10.945312 81.683594 11.394531 C 80.421875 11.878906 79.90625 11.847656 78.453125 11.164062 L 65.816406 5.253906 C 64.804688 4.78125 63.601562 5 62.816406 5.796875 C 62.03125 6.59375 61.84375 7.804688 62.34375 8.800781 C 70.894531 25.972656 78.253906 61.078125 82.65625 82.054688 C 82.945312 83.425781 83.21875 84.738281 83.484375 85.996094 C 81.5 84.242188 79.460938 82.746094 77.34375 81.488281 C 73.613281 73.386719 66.515625 65.972656 58.074219 61.335938 C 55.828125 49.246094 47.207031 37.433594 34.453125 37.433594 C 23.289062 37.433594 14.207031 46.503906 14.207031 57.65625 C 14.207031 61.992188 15.574219 66.140625 18.101562 69.585938 C 14.027344 73.550781 11.65625 79.054688 11.65625 84.792969 C 11.65625 86.929688 11.972656 89.03125 12.601562 91.054688 C 10.679688 98.511719 9.398438 107.601562 9.605469 112.511719 C 10.191406 126.609375 15.792969 139.523438 26.253906 150.910156 C 25.398438 152.972656 24.953125 155.199219 24.953125 157.453125 C 24.953125 166.863281 32.617188 174.511719 42.035156 174.511719 C 42.289062 174.511719 42.542969 174.507812 42.796875 174.496094 C 47.484375 178.953125 53.898438 183.65625 62.097656 183.65625 C 65.824219 183.65625 69.921875 182.683594 74.386719 180.28125 C 80.5 176.992188 86.296875 170.140625 89.75 162.417969 L 89.75 213.449219 C 89.75 214.898438 90.929688 216.078125 92.382812 216.078125 L 128.796875 216.078125 C 130.246094 216.078125 131.425781 214.898438 131.425781 213.449219 L 131.425781 162.425781 C 134.882812 170.152344 140.679688 177 146.789062 180.285156 C 161.09375 187.976562 171.5625 180.984375 178.382812 174.5 C 178.636719 174.511719 178.890625 174.515625 179.144531 174.515625 C 188.5625 174.515625 196.226562 166.863281 196.226562 157.457031 C 196.226562 155.207031 195.777344 152.976562 194.925781 150.914062 C 205.390625 139.527344 210.988281 126.613281 211.574219 112.515625 C 211.78125 107.605469 210.503906 98.515625 208.582031 91.058594 Z M 90.859375 92.875 C 89.992188 90.476562 89.261719 87.882812 88.679688 85.140625 C 88.402344 83.820312 88.113281 82.425781 87.808594 80.980469 C 87.167969 77.933594 86.484375 74.675781 85.761719 71.277344 C 87.398438 70.511719 89.054688 69.828125 90.730469 69.21875 C 94.800781 76.234375 102.351562 80.648438 110.597656 80.648438 C 118.839844 80.648438 126.390625 76.234375 130.460938 69.21875 C 132.136719 69.828125 133.792969 70.511719 135.429688 71.277344 C 134.707031 74.675781 134.023438 77.933594 133.382812 80.980469 C 133.078125 82.425781 132.785156 83.820312 132.511719 85.140625 C 131.929688 87.882812 131.199219 90.476562 130.332031 92.875 C 127.140625 93.363281 123.792969 94.382812 120.058594 96.019531 C 117.832031 93.128906 114.339844 91.359375 110.601562 91.359375 C 106.859375 91.359375 103.371094 93.128906 101.140625 96.019531 C 97.398438 94.386719 94.050781 93.363281 90.859375 92.875 Z M 95.929688 67.597656 C 105.574219 65.074219 115.613281 65.074219 125.257812 67.597656 C 122.003906 72.410156 116.535156 75.398438 110.589844 75.398438 C 104.648438 75.394531 99.183594 72.410156 95.929688 67.597656 Z M 76.21875 15.921875 C 78.539062 17.007812 80.578125 17.445312 83.574219 16.300781 C 85.109375 15.707031 86.53125 14.910156 87.910156 14.136719 C 90.480469 12.695312 92.699219 11.449219 94.703125 11.984375 C 96.265625 12.441406 99.585938 18.4375 101.367188 21.660156 C 104.914062 28.070312 107.066406 31.722656 110.082031 32.316406 C 110.414062 32.382812 110.761719 32.382812 111.09375 32.316406 C 114.113281 31.726562 116.265625 28.070312 119.8125 21.660156 C 121.59375 18.4375 124.910156 12.441406 126.476562 11.984375 C 128.480469 11.449219 130.699219 12.695312 133.269531 14.136719 C 134.644531 14.910156 136.074219 15.707031 137.605469 16.300781 C 140.59375 17.449219 142.636719 17.007812 144.957031 15.921875 L 151.222656 12.992188 C 145.421875 27.4375 140.453125 48.109375 136.550781 66.019531 C 119.878906 58.578125 101.296875 58.578125 84.621094 66.019531 C 80.71875 48.109375 75.75 27.4375 69.949219 12.992188 Z M 126.167969 169.664062 L 95.015625 169.664062 L 95.015625 153.910156 C 95.320312 153.761719 95.648438 153.601562 96.011719 153.441406 C 98.789062 152.1875 100.398438 152.175781 102.398438 153.382812 C 105.136719 155.042969 108.078125 155.667969 110.597656 155.160156 C 113.113281 155.675781 116.054688 155.042969 118.792969 153.382812 C 120.792969 152.175781 122.402344 152.1875 125.179688 153.441406 C 125.539062 153.601562 125.867188 153.757812 126.175781 153.910156 L 126.175781 169.664062 Z M 95.011719 174.917969 L 126.164062 174.917969 L 126.164062 190.902344 L 95.011719 190.902344 Z M 95.011719 210.824219 L 95.011719 196.152344 L 126.164062 196.152344 L 126.164062 210.824219 Z M 206.320312 112.300781 C 205.765625 125.636719 200.234375 137.851562 189.878906 148.609375 C 189.074219 149.441406 188.914062 150.703125 189.480469 151.710938 C 190.457031 153.457031 190.96875 155.441406 190.96875 157.457031 C 190.96875 163.96875 185.664062 169.261719 179.148438 169.261719 C 178.671875 169.261719 178.191406 169.230469 177.71875 169.179688 C 176.921875 169.082031 176.128906 169.355469 175.558594 169.917969 C 166.421875 178.929688 158.5625 180.652344 149.285156 175.660156 C 143.183594 172.375 137.175781 164.351562 134.675781 156.148438 C 133.3125 151.664062 130.425781 150.042969 127.339844 148.648438 C 125.648438 147.886719 123.757812 147.222656 121.664062 147.222656 C 119.933594 147.222656 118.070312 147.671875 116.0625 148.886719 C 114.371094 149.910156 112.574219 150.3125 111.371094 149.941406 C 110.863281 149.785156 110.320312 149.785156 109.8125 149.941406 C 108.609375 150.3125 106.8125 149.910156 105.121094 148.886719 C 100.679688 146.199219 96.925781 147.257812 93.84375 148.644531 C 90.753906 150.039062 87.871094 151.660156 86.507812 156.140625 C 84.007812 164.347656 78 172.371094 71.898438 175.65625 C 62.625 180.644531 54.765625 178.925781 45.625 169.914062 C 45.054688 169.355469 44.257812 169.078125 43.464844 169.175781 C 42.996094 169.230469 42.511719 169.257812 42.035156 169.257812 C 35.515625 169.257812 30.214844 163.957031 30.214844 157.453125 C 30.214844 155.4375 30.730469 153.449219 31.703125 151.707031 C 32.269531 150.695312 32.105469 149.4375 31.304688 148.605469 C 20.949219 137.847656 15.414062 125.632812 14.863281 112.296875 C 14.695312 108.3125 15.785156 99.496094 17.882812 91.648438 C 18.019531 91.136719 18.003906 90.59375 17.824219 90.09375 C 17.222656 88.394531 16.917969 86.613281 16.917969 84.792969 C 16.917969 79.703125 19.269531 75.039062 23.363281 72 C 23.972656 71.550781 24.355469 70.855469 24.417969 70.105469 C 24.476562 69.351562 24.210938 68.605469 23.683594 68.0625 C 20.964844 65.257812 19.464844 61.558594 19.464844 57.65625 C 19.464844 49.398438 26.1875 42.6875 34.453125 42.6875 C 44.582031 42.6875 51.613281 53.371094 53.085938 63.425781 C 53.210938 64.265625 53.738281 64.996094 54.492188 65.382812 C 62.679688 69.570312 69.550781 76.664062 72.867188 84.371094 C 73.09375 84.902344 73.488281 85.339844 73.992188 85.625 C 78.386719 88.09375 82.457031 91.761719 86.429688 96.847656 C 86.878906 97.425781 87.558594 97.792969 88.292969 97.847656 C 92.066406 98.152344 96.105469 99.386719 101.011719 101.738281 C 101.648438 102.042969 102.378906 102.078125 103.042969 101.84375 C 103.703125 101.605469 104.242188 101.113281 104.539062 100.472656 C 105.628906 98.125 108.003906 96.605469 110.589844 96.605469 C 113.179688 96.605469 115.554688 98.125 116.640625 100.472656 C 116.9375 101.113281 117.476562 101.605469 118.140625 101.84375 C 118.804688 102.078125 119.535156 102.042969 120.171875 101.738281 C 125.074219 99.386719 129.117188 98.152344 132.890625 97.847656 C 133.628906 97.792969 134.304688 97.429688 134.753906 96.847656 C 138.726562 91.761719 142.796875 88.09375 147.1875 85.625 C 147.695312 85.339844 148.089844 84.902344 148.316406 84.371094 C 151.632812 76.664062 158.5 69.570312 166.691406 65.382812 C 167.449219 64.996094 167.972656 64.265625 168.09375 63.425781 C 169.566406 53.371094 176.601562 42.6875 186.730469 42.6875 C 194.996094 42.6875 201.714844 49.398438 201.714844 57.65625 C 201.714844 61.558594 200.214844 65.257812 197.496094 68.0625 C 196.972656 68.605469 196.703125 69.351562 196.765625 70.105469 C 196.828125 70.855469 197.207031 71.550781 197.816406 72 C 201.914062 75.039062 204.261719 79.703125 204.261719 84.792969 C 204.261719 86.609375 203.960938 88.394531 203.359375 90.09375 C 203.183594 90.59375 203.164062 91.136719 203.296875 91.648438 C 205.402344 99.5 206.488281 108.3125 206.320312 112.300781 Z M 47.75 89.164062 C 49.773438 92.070312 50.539062 95.582031 49.917969 99.0625 C 49.691406 100.332031 48.582031 101.226562 47.332031 101.226562 C 47.175781 101.226562 47.019531 101.210938 46.863281 101.183594 C 45.433594 100.921875 44.480469 99.5625 44.734375 98.128906 C 45.113281 96.03125 44.648438 93.914062 43.429688 92.164062 C 42.210938 90.417969 40.382812 89.246094 38.28125 88.867188 C 36.851562 88.609375 35.898438 87.246094 36.15625 85.816406 C 36.410156 84.382812 37.777344 83.4375 39.210938 83.691406 C 42.699219 84.324219 45.730469 86.261719 47.75 89.164062 Z M 71.472656 137.648438 C 71.472656 142.0625 69.535156 146.234375 66.152344 149.082031 C 65.65625 149.5 65.058594 149.699219 64.457031 149.699219 C 63.707031 149.699219 62.964844 149.386719 62.445312 148.769531 C 61.507812 147.660156 61.644531 146 62.761719 145.0625 C 64.953125 143.214844 66.210938 140.507812 66.210938 137.644531 C 66.210938 133.867188 63.988281 130.402344 60.546875 128.828125 C 59.71875 128.445312 59.148438 127.664062 59.03125 126.765625 C 58.917969 125.863281 59.28125 124.964844 59.988281 124.394531 C 62.28125 122.542969 63.597656 119.792969 63.597656 116.851562 C 63.597656 114.667969 62.890625 112.605469 61.550781 110.894531 C 60.65625 109.75 60.863281 108.101562 62.003906 107.207031 C 63.148438 106.3125 64.804688 106.519531 65.699219 107.664062 C 67.761719 110.3125 68.859375 113.488281 68.859375 116.851562 C 68.859375 120.179688 67.765625 123.34375 65.789062 125.921875 C 69.324219 128.730469 71.472656 133.035156 71.472656 137.648438 Z M 188.035156 94.210938 C 188.105469 95.660156 186.988281 96.890625 185.535156 96.960938 C 185.492188 96.960938 185.449219 96.964844 185.40625 96.964844 C 184.011719 96.964844 182.847656 95.871094 182.777344 94.464844 C 182.5625 90.066406 178.8125 86.667969 174.414062 86.878906 C 172.960938 86.949219 171.730469 85.832031 171.660156 84.382812 C 171.589844 82.933594 172.707031 81.703125 174.160156 81.632812 C 181.464844 81.277344 187.679688 86.921875 188.035156 94.210938 Z M 175.625 137.648438 C 175.625 142.0625 173.683594 146.234375 170.304688 149.082031 C 169.808594 149.5 169.207031 149.699219 168.609375 149.699219 C 167.859375 149.699219 167.117188 149.386719 166.59375 148.769531 C 165.65625 147.660156 165.796875 146 166.910156 145.0625 C 169.101562 143.214844 170.363281 140.507812 170.363281 137.644531 C 170.363281 133.867188 168.140625 130.402344 164.695312 128.828125 C 163.867188 128.445312 163.296875 127.664062 163.183594 126.765625 C 163.070312 125.863281 163.433594 124.964844 164.140625 124.394531 C 166.433594 122.542969 167.75 119.792969 167.75 116.851562 C 167.75 114.667969 167.042969 112.605469 165.699219 110.894531 C 164.804688 109.75 165.011719 108.101562 166.15625 107.207031 C 167.300781 106.3125 168.953125 106.519531 169.847656 107.664062 C 171.914062 110.3125 173.011719 113.488281 173.011719 116.851562 C 173.011719 120.179688 171.917969 123.34375 169.941406 125.921875 C 173.476562 128.730469 175.625 133.039062 175.625 137.648438 Z M 133.21875 125.421875 C 135.683594 127.960938 137.015625 131.300781 136.964844 134.839844 C 136.941406 136.273438 135.765625 137.425781 134.332031 137.425781 C 134.320312 137.425781 134.308594 137.425781 134.292969 137.425781 C 132.84375 137.40625 131.679688 136.214844 131.703125 134.761719 C 131.734375 132.628906 130.929688 130.613281 129.445312 129.085938 C 127.957031 127.554688 125.964844 126.699219 123.832031 126.667969 C 122.382812 126.644531 121.21875 125.453125 121.242188 124 C 121.261719 122.5625 122.4375 121.414062 123.871094 121.414062 C 123.886719 121.414062 123.898438 121.414062 123.910156 121.414062 C 127.449219 121.460938 130.757812 122.886719 133.21875 125.421875 Z M 133.21875 125.421875 "/></g></g></svg>