<svg xmlns="http://www.w3.org/2000/svg" xmlns:xlink="http://www.w3.org/1999/xlink" width="300" zoomAndPan="magnify" viewBox="0 0 224.87999 225" height="300" preserveAspectRatio="xMidYMid meet" version="1.2"><defs><clipPath id="598dba42db"><path d="M 7.15625 16.457031 L 217.792969 16.457031 L 217.792969 189 L 7.15625 189 Z M 7.15625 16.457031 "/></clipPath></defs><g id="bb5e23d96a"><g clip-rule="nonzero" clip-path="url(#598dba42db)"><path style=" stroke:none;fill-rule:evenodd;fill:#000000;fill-opacity:1;" d="M 130.648438 127.148438 C 120.640625 137.164062 104.359375 137.164062 94.347656 127.148438 C 84.34375 117.132812 84.34375 100.832031 94.347656 90.816406 C 104.359375 80.796875 120.636719 80.796875 130.648438 90.816406 C 140.652344 100.832031 140.652344 117.132812 130.648438 127.148438 Z M 135.152344 86.308594 C 122.660156 73.804688 102.335938 73.804688 89.84375 86.308594 C 77.355469 98.808594 77.355469 119.15625 89.84375 131.660156 C 102.335938 144.160156 122.664062 144.160156 135.152344 131.660156 C 147.644531 119.15625 147.644531 98.808594 135.152344 86.308594 Z M 171.191406 147.292969 C 186.410156 137.878906 199.960938 124.703125 210.601562 108.984375 C 203.222656 98.066406 194.578125 88.503906 184.84375 80.472656 C 184.09375 83.371094 181.464844 85.527344 178.332031 85.527344 L 164.152344 85.527344 C 160.4375 85.527344 157.417969 82.503906 157.417969 78.789062 L 157.417969 64.820312 L 143.464844 64.820312 C 139.753906 64.820312 136.734375 61.796875 136.734375 58.082031 L 136.734375 56.449219 C 128.796875 54.644531 120.652344 53.726562 112.5 53.726562 C 73.777344 53.726562 38.132812 73.832031 14.398438 108.984375 C 38.132812 144.128906 73.777344 164.234375 112.5 164.234375 C 123.292969 164.234375 133.976562 162.640625 144.308594 159.503906 C 143.890625 157.679688 144.066406 155.875 144.84375 154.179688 L 139.082031 148.40625 C 120.375 161.089844 95.089844 158.796875 78.90625 142.605469 C 60.34375 124.027344 60.351562 93.933594 78.90625 75.359375 C 97.472656 56.773438 127.523438 56.777344 146.089844 75.359375 C 162.261719 91.542969 164.554688 116.882812 151.882812 135.585938 L 157.648438 141.359375 C 160.691406 139.960938 164.410156 140.507812 166.914062 143.011719 Z M 185.339844 173.105469 L 176.558594 181.894531 C 175.84375 182.605469 174.636719 182.605469 173.925781 181.894531 L 150.996094 158.945312 C 150.277344 158.222656 150.277344 157.03125 150.996094 156.308594 L 159.777344 147.519531 C 160.492188 146.804688 161.699219 146.808594 162.410156 147.519531 L 185.335938 170.46875 C 186.054688 171.183594 186.054688 172.390625 185.339844 173.105469 Z M 146.089844 142.605469 C 146.726562 141.96875 147.335938 141.320312 147.929688 140.652344 L 152.777344 145.507812 L 148.984375 149.300781 L 144.140625 144.449219 C 144.800781 143.855469 145.453125 143.238281 146.089844 142.605469 Z M 141.582031 138.097656 C 157.660156 122.011719 157.65625 95.953125 141.582031 79.863281 C 125.511719 63.78125 99.484375 63.78125 83.414062 79.863281 C 67.339844 95.957031 67.335938 122.007812 83.414062 138.097656 C 99.496094 154.1875 125.503906 154.191406 141.582031 138.097656 Z M 143.101562 43.882812 C 143.101562 43.691406 143.273438 43.523438 143.464844 43.523438 L 160.605469 43.523438 C 162.363281 43.523438 163.789062 42.097656 163.789062 40.332031 L 163.789062 23.179688 C 163.789062 22.984375 163.957031 22.820312 164.152344 22.820312 L 178.332031 22.820312 C 178.527344 22.820312 178.695312 22.984375 178.695312 23.179688 L 178.695312 40.332031 C 178.695312 42.097656 180.121094 43.523438 181.878906 43.523438 L 199.019531 43.523438 C 199.210938 43.523438 199.378906 43.691406 199.378906 43.882812 L 199.378906 58.082031 C 199.378906 58.273438 199.210938 58.441406 199.019531 58.441406 L 181.878906 58.441406 C 180.121094 58.441406 178.695312 59.871094 178.695312 61.632812 L 178.695312 78.789062 C 178.695312 78.984375 178.527344 79.152344 178.332031 79.152344 L 164.152344 79.152344 C 163.957031 79.152344 163.789062 78.984375 163.789062 78.789062 L 163.789062 61.632812 C 163.789062 59.871094 162.363281 58.441406 160.605469 58.441406 L 143.464844 58.441406 C 143.273438 58.441406 143.101562 58.273438 143.101562 58.082031 Z M 217.089844 107.234375 C 208.175781 93.621094 197.402344 81.949219 185.066406 72.507812 L 185.066406 64.820312 L 199.019531 64.820312 C 202.730469 64.820312 205.75 61.796875 205.75 58.082031 L 205.75 43.882812 C 205.75 40.167969 202.730469 37.144531 199.019531 37.144531 L 185.066406 37.144531 L 185.066406 23.179688 C 185.066406 19.464844 182.046875 16.441406 178.332031 16.441406 L 164.152344 16.441406 C 160.4375 16.441406 157.417969 19.464844 157.417969 23.179688 L 157.417969 37.148438 L 143.464844 37.148438 C 139.753906 37.148438 136.734375 40.167969 136.734375 43.882812 L 136.734375 49.921875 C 108.035156 43.765625 78.667969 48.667969 53.011719 63.703125 C 35.398438 74.019531 19.796875 89.074219 7.90625 107.238281 C 7.210938 108.296875 7.210938 109.667969 7.90625 110.730469 C 31.570312 146.894531 69.5 170.613281 112.5 170.613281 C 124.582031 170.613281 136.53125 168.726562 148.050781 165.007812 L 169.421875 186.402344 C 172.636719 189.621094 177.851562 189.617188 181.0625 186.402344 L 189.84375 177.613281 C 193.054688 174.398438 193.054688 169.171875 189.84375 165.960938 L 175.816406 151.921875 C 191.859375 141.726562 206.070312 127.554688 217.089844 110.730469 C 217.789062 109.667969 217.789062 108.296875 217.089844 107.234375 Z M 217.089844 107.234375 "/></g></g></svg>